<svg id="Group_24884" data-name="Group 24884" xmlns="http://www.w3.org/2000/svg" width="58.096" height="56.765" viewBox="0 0 58.096 56.765">
  <path id="Path_94" data-name="Path 94" d="M55.171,25.948a25.5,25.5,0,0,0-50.96,0A6,6,0,0,0,.643,31.424v6.727a6,6,0,0,0,5.992,5.992,3.881,3.881,0,0,0,3.877-3.877V29.308a3.869,3.869,0,0,0-3.5-3.839,22.717,22.717,0,0,1,45.349,0,3.869,3.869,0,0,0-3.492,3.838V40.265a3.867,3.867,0,0,0,3.544,3.843v2.769a5.661,5.661,0,0,1-5.655,5.655H42.572a4.166,4.166,0,0,0-3.953-2.814H34.3a4.144,4.144,0,0,0-1.759.385A4.212,4.212,0,0,0,30.1,53.921a4.21,4.21,0,0,0,4.2,4.2h4.317a4.221,4.221,0,0,0,3.956-2.815H46.76a8.443,8.443,0,0,0,8.435-8.434V43.613a6,6,0,0,0,3.544-5.464V31.422A6,6,0,0,0,55.171,25.948Zm-47.44,3.36V40.265a1.1,1.1,0,0,1-1.1,1.1,3.216,3.216,0,0,1-3.213-3.213V31.423a3.216,3.216,0,0,1,3.213-3.213A1.1,1.1,0,0,1,7.732,29.308ZM40.013,54.219a1.432,1.432,0,0,1-1.4,1.129H34.3a1.425,1.425,0,1,1,0-2.85h4.317a1.431,1.431,0,0,1,1.4,1.721ZM55.96,38.151a3.216,3.216,0,0,1-3.213,3.213,1.1,1.1,0,0,1-1.1-1.1V29.308a1.1,1.1,0,0,1,1.1-1.1,3.216,3.216,0,0,1,3.213,3.213Z" transform="translate(-0.643 -1.361)" fill="#b88230"/>
  <path id="Path_95" data-name="Path 95" d="M39.814,39.7A5.894,5.894,0,0,0,45.7,33.814v-12a5.9,5.9,0,0,0-5.888-5.888h-18a5.894,5.894,0,0,0-5.888,5.888v12A5.894,5.894,0,0,0,21.819,39.7h.11v3.109a2.88,2.88,0,0,0,2.883,2.894,2.825,2.825,0,0,0,2.034-.859L32.018,39.7Zm-9.348-2.375-5.6,5.567a.07.07,0,0,1-.1.022.093.093,0,0,1-.064-.1v-4.5a1.39,1.39,0,0,0-1.39-1.39h-1.5a3.113,3.113,0,0,1-3.109-3.109v-12a3.113,3.113,0,0,1,3.109-3.109h18a3.115,3.115,0,0,1,3.109,3.109v12a3.113,3.113,0,0,1-3.109,3.109H31.447A1.391,1.391,0,0,0,30.467,37.327Z" transform="translate(-1.769 -2.434)" fill="#088a51"/>
  <path id="Path_96" data-name="Path 96" d="M24.55,26.787a2.05,2.05,0,1,0,2.052,2.05A2.053,2.053,0,0,0,24.55,26.787Zm6.749,0a2.05,2.05,0,1,0,2.052,2.05A2.053,2.053,0,0,0,31.3,26.787Zm6.749,0a2.05,2.05,0,1,0,2.052,2.05A2.053,2.053,0,0,0,38.049,26.787Z" transform="translate(-2.253 -3.233)" fill="#088a51"/>
</svg>
