<svg xmlns="http://www.w3.org/2000/svg" width="64.65" height="43.559" viewBox="0 0 64.65 43.559">
  <g id="Group_3" data-name="Group 3" transform="translate(0)">
    <path id="Path_99" data-name="Path 99" d="M211.294,182.309q-.413.189-.838.351.208.436.441.858.441-.214.87-.454-.248-.368-.473-.754Z" transform="translate(-189.681 -153.895)" fill="#fff" fill-rule="evenodd"/>
    <path id="Path_100" data-name="Path 100" d="M184.9,166.652l-2.52-2.035s2.355-3.772,6.653-3.368c0,0,3.633.19,4.749,3.119,0,0,1.261,3.906-1.637,6.491a62.768,62.768,0,0,1-6.433,5.044l2.185-.936h6.382v3.15H182.157v-2.978l6.725-5.439c1.42-1.149,2.472-3.457.736-4.88a2.056,2.056,0,0,0-1.708-.422c-1.217.217-2.346,1.493-3.01,2.253Z" transform="translate(-181.926 -148.116)" fill="#fff" fill-rule="evenodd"/>
    <path id="Path_101" data-name="Path 101" d="M229.284,164.563l0-3.026h11.065v2.7l-4.157,4.082a5.152,5.152,0,0,1,4.324,3.612c.953,3.677-2.3,6.771-6.178,6.495a7.953,7.953,0,0,1-5.962-2.909l2.305-2.271s1.709,2.232,4.174,1.913c0,0,2.154,0,2.263-1.9.142-2.5-2.821-2.594-4.727-2.365l-.557-2.231,5.326-5.339-2.105,1.235Z" transform="translate(-194.59 -148.204)" fill="#fff" fill-rule="evenodd"/>
    <path id="Path_102" data-name="Path 102" d="M255.737,161a8.647,8.647,0,1,1-6.144,2.521A8.655,8.655,0,0,1,255.737,161Zm0,3.3a5.367,5.367,0,1,1-5,5.354,5.2,5.2,0,0,1,5-5.354Z" transform="translate(-199.708 -148.057)" fill="#fff" fill-rule="evenodd"/>
    <path id="Path_103" data-name="Path 103" d="M214.257,162.514q.309-.3.643-.585-.308-.356-.643-.69-.333.334-.643.69Q213.949,162.21,214.257,162.514Z" transform="translate(-190.546 -148.122)" fill="#fff" fill-rule="evenodd"/>
    <path id="Path_104" data-name="Path 104" d="M214.2,158.94q.423-.432.883-.828-.422-.519-.884-.994-.461.478-.884.994.459.4.884.828Z" transform="translate(-190.463 -146.994)" fill="#fff" fill-rule="evenodd"/>
    <path id="Path_105" data-name="Path 105" d="M215.949,160.992q.409-.308.851-.585-.292-.468-.61-.909-.454.339-.877.712.33.38.633.782Z" transform="translate(-191.012 -147.645)" fill="#fff" fill-rule="evenodd"/>
    <path id="Path_106" data-name="Path 106" d="M218.438,165.045q-.15-.341-.317-.673.389-.143.788-.26.154.372.289.755-.385.076-.76.175Z" transform="translate(-191.781 -148.909)" fill="#fff" fill-rule="evenodd"/>
    <path id="Path_107" data-name="Path 107" d="M216.887,165.586q-.172-.276-.361-.546c.209-.1.422-.2.637-.292q.175.3.338.616-.312.1-.614.219Z" transform="translate(-191.344 -149.082)" fill="#fff" fill-rule="evenodd"/>
    <path id="Path_108" data-name="Path 108" d="M217.423,163.058q-.227-.394-.48-.773.423-.234.854-.442.234.43.446.877-.416.156-.819.339Z" transform="translate(-191.458 -148.288)" fill="#fff" fill-rule="evenodd"/>
    <path id="Path_109" data-name="Path 109" d="M215.732,163.969q-.253-.314-.532-.612.342-.234.694-.447c.175.228.345.461.5.7Q216.061,163.782,215.732,163.969Z" transform="translate(-190.98 -148.58)" fill="#fff" fill-rule="evenodd"/>
    <path id="Path_110" data-name="Path 110" d="M212.534,161.018q.3-.4.63-.782-.419-.373-.872-.713-.318.442-.606.907.439.279.848.585Z" transform="translate(-190.018 -147.652)" fill="#fff" fill-rule="evenodd"/>
    <path id="Path_111" data-name="Path 111" d="M214.257,182.819q.309.3.643.585-.308.356-.643.69-.333-.335-.643-.69Q213.949,183.121,214.257,182.819Z" transform="translate(-190.546 -154.035)" fill="#fff" fill-rule="evenodd"/>
    <path id="Path_112" data-name="Path 112" d="M214.2,186.189q.423.432.883.828-.422.519-.884.994-.461-.478-.884-.994.459-.4.884-.828Z" transform="translate(-190.463 -154.959)" fill="#fff" fill-rule="evenodd"/>
    <path id="Path_113" data-name="Path 113" d="M215.949,184.259q.409.308.851.585-.292.468-.61.909-.454-.339-.877-.712Q215.643,184.661,215.949,184.259Z" transform="translate(-191.012 -154.429)" fill="#fff" fill-rule="evenodd"/>
    <path id="Path_114" data-name="Path 114" d="M212.534,184.232q.3.4.63.782-.419.374-.872.713-.318-.442-.606-.907.439-.278.848-.585Z" transform="translate(-190.018 -154.422)" fill="#fff" fill-rule="evenodd"/>
    <path id="Path_115" data-name="Path 115" d="M220.185,164.39q.426-.066.86-.1-.044-.468-.123-.936-.468.077-.922.189.108.423.185.848Z" transform="translate(-192.296 -148.701)" fill="#fff" fill-rule="evenodd"/>
    <path id="Path_116" data-name="Path 116" d="M222.136,161.494q.595-.106,1.2-.161-.043-.668-.143-1.325-.652.122-1.3.3.145.589.24,1.187Z" transform="translate(-192.816 -147.785)" fill="#fff" fill-rule="evenodd"/>
    <path id="Path_117" data-name="Path 117" d="M222.436,164.18q.513-.012,1.033.018.033-.549.029-1.095-.566.012-1.125.071.049.5.063,1.006Z" transform="translate(-192.946 -148.632)" fill="#fff" fill-rule="evenodd"/>
    <path id="Path_118" data-name="Path 118" d="M222.481,166.667c.027-.3.047-.605.055-.908q.48.055.953.137-.058.487-.144.973-.429-.117-.865-.2Z" transform="translate(-192.976 -149.36)" fill="#fff" fill-rule="evenodd"/>
    <path id="Path_119" data-name="Path 119" d="M220.6,166.427q-.025-.4-.079-.808.413.009.823.039.018.432.006.864-.374-.058-.751-.1Z" transform="translate(-192.438 -149.322)" fill="#fff" fill-rule="evenodd"/>
    <path id="Path_120" data-name="Path 120" d="M218.919,166.461q-.088-.315-.2-.625c.23-.04.461-.075.693-.1q.087.34.154.686c-.218.006-.435.02-.651.04Z" transform="translate(-191.946 -149.354)" fill="#fff" fill-rule="evenodd"/>
    <path id="Path_121" data-name="Path 121" d="M219.6,162.16q.478-.151.966-.27-.126-.547-.3-1.088-.515.175-1.019.387.2.482.351.972Z" transform="translate(-192.09 -148.002)" fill="#fff" fill-rule="evenodd"/>
    <path id="Path_122" data-name="Path 122" d="M208.457,180.927q.077.425.185.848-.457.11-.922.189-.079-.468-.123-.936.435-.036.86-.1Z" transform="translate(-188.897 -153.516)" fill="#fff" fill-rule="evenodd"/>
    <path id="Path_123" data-name="Path 123" d="M208.272,179.045q.025.4.079.808-.413-.009-.823-.039-.018-.432-.006-.864.373.058.75.1Z" transform="translate(-188.875 -152.975)" fill="#fff" fill-rule="evenodd"/>
    <path id="Path_124" data-name="Path 124" d="M206.4,183.688q.094.6.24,1.187-.643.175-1.3.3c-.065-.438-.117-.881-.143-1.325q.6-.055,1.2-.161Z" transform="translate(-188.242 -154.273)" fill="#fff" fill-rule="evenodd"/>
    <path id="Path_125" data-name="Path 125" d="M208.954,183.08q.156.49.354.973-.506.211-1.023.385-.175-.54-.3-1.089Q208.474,183.232,208.954,183.08Z" transform="translate(-189.004 -154.107)" fill="#fff" fill-rule="evenodd"/>
    <path id="Path_126" data-name="Path 126" d="M213.23,181.33c-.213.127-.429.249-.647.364q.234.343.491.67.34-.215.672-.447-.269-.286-.516-.585Z" transform="translate(-190.263 -153.627)" fill="#fff" fill-rule="evenodd"/>
    <path id="Path_127" data-name="Path 127" d="M212.288,180.025q-.3.126-.61.234.167.308.351.608.32-.143.632-.306Q212.465,180.3,212.288,180.025Z" transform="translate(-190.016 -153.27)" fill="#fff" fill-rule="evenodd"/>
    <path id="Path_128" data-name="Path 128" d="M210.441,180.642q-.388.108-.787.189.143.388.306.767.413-.124.819-.276-.175-.336-.335-.68Z" transform="translate(-189.461 -153.439)" fill="#fff" fill-rule="evenodd"/>
    <path id="Path_129" data-name="Path 129" d="M209.964,179.094q-.325.019-.653.019.058.346.131.69c.234-.019.468-.046.7-.079-.065-.208-.123-.419-.175-.63Z" transform="translate(-189.367 -153.015)" fill="#fff" fill-rule="evenodd"/>
    <path id="Path_130" data-name="Path 130" d="M206.22,181.115q.012.5.058,1-.557.058-1.122.074,0-.544.03-1.092Q205.708,181.128,206.22,181.115Z" transform="translate(-188.228 -153.564)" fill="#fff" fill-rule="evenodd"/>
    <path id="Path_131" data-name="Path 131" d="M223.943,169.384q.382.2.755.426.239-.405.45-.828-.422-.212-.856-.392Q224.13,169,223.943,169.384Z" transform="translate(-193.377 -150.136)" fill="#fff" fill-rule="evenodd"/>
    <path id="Path_132" data-name="Path 132" d="M220.45,168.136q.317.076.631.171.046-.347.073-.7c-.229-.049-.459-.091-.69-.126q0,.327-.013.653Z" transform="translate(-192.419 -149.834)" fill="#fff" fill-rule="evenodd"/>
    <path id="Path_133" data-name="Path 133" d="M222.247,168.648q.378.143.747.312.112-.4.2-.8-.409-.144-.822-.258Q222.321,168.275,222.247,168.648Z" transform="translate(-192.912 -149.947)" fill="#fff" fill-rule="evenodd"/>
    <path id="Path_134" data-name="Path 134" d="M227.139,168.228q.543.265,1.063.578.358-.565.664-1.156-.6-.287-1.223-.526-.229.562-.5,1.1Z" transform="translate(-194.252 -149.734)" fill="#fff" fill-rule="evenodd"/>
    <path id="Path_135" data-name="Path 135" d="M225.839,170.508q.422.292.824.625.351-.424.667-.868-.464-.324-.951-.608-.255.434-.54.85Z" transform="translate(-193.896 -150.429)" fill="#fff" fill-rule="evenodd"/>
    <path id="Path_136" data-name="Path 136" d="M224.756,167.294q.475.16.939.351.22-.518.4-1.053-.519-.163-1.053-.292-.125.505-.288.994Z" transform="translate(-193.598 -149.508)" fill="#fff" fill-rule="evenodd"/>
    <path id="Path_137" data-name="Path 137" d="M204.727,175.8q-.188.388-.351.794-.434-.18-.856-.391.211-.423.45-.829.372.227.755.426Z" transform="translate(-187.78 -151.994)" fill="#fff" fill-rule="evenodd"/>
    <path id="Path_138" data-name="Path 138" d="M206.863,172.618q-.209.251-.4.516-.245-.25-.476-.514.23-.265.476-.516Q206.654,172.368,206.863,172.618Z" transform="translate(-188.456 -151.099)" fill="#fff" fill-rule="evenodd"/>
    <path id="Path_139" data-name="Path 139" d="M205.691,174.14q-.216.34-.409.7-.329-.252-.643-.518.24-.36.5-.7.268.267.551.52Z" transform="translate(-188.087 -151.516)" fill="#fff" fill-rule="evenodd"/>
    <path id="Path_140" data-name="Path 140" d="M201.354,176.834q-.275.539-.5,1.1-.625-.237-1.223-.526.307-.589.664-1.156.52.312,1.063.578Z" transform="translate(-186.714 -152.236)" fill="#fff" fill-rule="evenodd"/>
    <path id="Path_141" data-name="Path 141" d="M203.85,177.882q-.161.488-.285.994-.533-.129-1.053-.292.175-.539.4-1.057.464.193.941.355Z" transform="translate(-187.504 -152.585)" fill="#fff" fill-rule="evenodd"/>
    <path id="Path_142" data-name="Path 142" d="M208.469,177.372q-.317-.075-.631-.171-.046.347-.072.7.343.073.69.126c0-.219,0-.436.013-.653Z" transform="translate(-188.944 -152.496)" fill="#fff" fill-rule="evenodd"/>
    <path id="Path_143" data-name="Path 143" d="M206.267,178.666q-.445-.092-.884-.212-.088.476-.149.953.482.088.97.147c.011-.3.032-.593.059-.888Z" transform="translate(-188.25 -152.839)" fill="#fff" fill-rule="evenodd"/>
    <path id="Path_144" data-name="Path 144" d="M206.578,176.769q-.378-.142-.747-.312-.112.4-.2.8.409.144.822.259Q206.5,177.142,206.578,176.769Z" transform="translate(-188.358 -152.292)" fill="#fff" fill-rule="evenodd"/>
    <path id="Path_145" data-name="Path 145" d="M207.1,175.18q-.275-.175-.539-.371c-.106.208-.206.42-.3.635q.3.183.609.348.1-.31.229-.612Z" transform="translate(-188.531 -151.84)" fill="#fff" fill-rule="evenodd"/>
    <path id="Path_146" data-name="Path 146" d="M202.763,174.6q-.285.414-.54.847-.486-.28-.95-.6.318-.442.666-.864.4.329.825.62Z" transform="translate(-187.164 -151.614)" fill="#fff" fill-rule="evenodd"/>
    <path id="Path_147" data-name="Path 147" d="M224.038,175.669q.193.387.358.79.432-.185.851-.4-.216-.421-.461-.822-.369.234-.749.435Z" transform="translate(-193.402 -151.957)" fill="#fff" fill-rule="evenodd"/>
    <path id="Path_148" data-name="Path 148" d="M222.935,171.149q.278.246.543.507.254-.328.487-.673-.307-.26-.629-.505-.189.344-.4.672Z" transform="translate(-193.1 -150.654)" fill="#fff" fill-rule="evenodd"/>
    <path id="Path_149" data-name="Path 149" d="M221.986,172.518q.212.249.409.511c.161-.169.318-.343.468-.52q-.234-.262-.483-.51-.19.267-.4.519Z" transform="translate(-192.84 -151.071)" fill="#fff" fill-rule="evenodd"/>
    <path id="Path_150" data-name="Path 150" d="M224.433,172.627q.305.337.589.693.351-.332.681-.682-.337-.356-.7-.692-.275.351-.573.681Z" transform="translate(-193.51 -151.056)" fill="#fff" fill-rule="evenodd"/>
    <path id="Path_151" data-name="Path 151" d="M223.113,174.025q.22.337.42.694.325-.256.636-.526-.244-.357-.512-.7-.264.271-.544.526Z" transform="translate(-193.149 -151.481)" fill="#fff" fill-rule="evenodd"/>
    <path id="Path_152" data-name="Path 152" d="M227.231,176.662q.282.536.518,1.095.622-.245,1.216-.54-.315-.585-.679-1.146-.516.319-1.053.592Z" transform="translate(-194.278 -152.186)" fill="#fff" fill-rule="evenodd"/>
    <path id="Path_153" data-name="Path 153" d="M221.7,170.32c.188.109.374.223.556.344q.143-.32.268-.648-.308-.168-.626-.318Q221.81,170.013,221.7,170.32Z" transform="translate(-192.762 -150.44)" fill="#fff" fill-rule="evenodd"/>
    <path id="Path_154" data-name="Path 154" d="M224.9,177.741q.168.486.3.994.531-.136,1.049-.306-.184-.537-.409-1.053Q225.373,177.575,224.9,177.741Z" transform="translate(-193.639 -152.544)" fill="#fff" fill-rule="evenodd"/>
    <path id="Path_155" data-name="Path 155" d="M225.881,174.451q.292.409.551.84.482-.287.942-.616-.323-.438-.677-.856-.4.334-.819.632Z" transform="translate(-193.906 -151.569)" fill="#fff" fill-rule="evenodd"/>
    <path id="Path_156" data-name="Path 156" d="M204.741,169.51q-.38.2-.75.435-.244-.4-.461-.823.419-.218.851-.4.166.4.358.79Z" transform="translate(-187.783 -150.172)" fill="#fff" fill-rule="evenodd"/>
    <path id="Path_157" data-name="Path 157" d="M201.337,168.4q-.54.273-1.053.592-.365-.56-.68-1.147.595-.292,1.216-.54.234.559.519,1.1Z" transform="translate(-186.708 -149.783)" fill="#fff" fill-rule="evenodd"/>
    <path id="Path_158" data-name="Path 158" d="M202.753,170.661q-.418.3-.819.635-.354-.419-.678-.859.46-.332.943-.619.261.431.551.843Z" transform="translate(-187.159 -150.473)" fill="#fff" fill-rule="evenodd"/>
    <path id="Path_159" data-name="Path 159" d="M204.271,172.669q-.305-.337-.588-.693-.351.332-.681.682.337.356.7.692.275-.351.572-.681Z" transform="translate(-187.638 -151.064)" fill="#fff" fill-rule="evenodd"/>
    <path id="Path_160" data-name="Path 160" d="M205.671,171.331q-.22-.337-.42-.694-.326.256-.636.526.244.357.512.7.264-.271.544-.526Z" transform="translate(-188.08 -150.697)" fill="#fff" fill-rule="evenodd"/>
    <path id="Path_161" data-name="Path 161" d="M203.847,167.433q-.474.166-.936.364-.228-.514-.413-1.049.516-.169,1.047-.3.132.5.3.989Z" transform="translate(-187.5 -149.549)" fill="#fff" fill-rule="evenodd"/>
    <path id="Path_162" data-name="Path 162" d="M220.441,180.841q-.071.426-.175.851.458.1.925.175.073-.468.11-.936-.435-.03-.861-.091Z" transform="translate(-192.369 -153.493)" fill="#fff" fill-rule="evenodd"/>
    <path id="Path_163" data-name="Path 163" d="M222.22,176.492q.08.364.141.73.4-.117.789-.257-.1-.391-.212-.78Q222.583,176.352,222.22,176.492Z" transform="translate(-192.905 -152.218)" fill="#fff" fill-rule="evenodd"/>
    <path id="Path_164" data-name="Path 164" d="M220.684,177.037q.025.326.03.654c.229-.041.458-.088.685-.143q-.035-.351-.091-.7-.31.1-.625.185Z" transform="translate(-192.484 -152.4)" fill="#fff" fill-rule="evenodd"/>
    <path id="Path_165" data-name="Path 165" d="M222.56,178.611q.049.452.068.908.48-.059.951-.149-.064-.487-.157-.971c-.285.08-.573.15-.863.213Z" transform="translate(-192.997 -152.823)" fill="#fff" fill-rule="evenodd"/>
    <path id="Path_166" data-name="Path 166" d="M220.681,178.954q-.02.4-.069.808.413-.014.823-.05.013-.432,0-.864-.372.063-.749.1Z" transform="translate(-192.464 -152.947)" fill="#fff" fill-rule="evenodd"/>
    <path id="Path_167" data-name="Path 167" d="M222.384,183.576q-.087.6-.225,1.191.643.169,1.3.282c.058-.439.1-.882.125-1.327q-.6-.047-1.2-.145Z" transform="translate(-192.887 -154.242)" fill="#fff" fill-rule="evenodd"/>
    <path id="Path_168" data-name="Path 168" d="M221.722,175.051q.133.3.248.608.3-.175.6-.365-.15-.318-.319-.627-.258.2-.526.387Z" transform="translate(-192.768 -151.801)" fill="#fff" fill-rule="evenodd"/>
    <path id="Path_169" data-name="Path 169" d="M219.868,183q-.15.491-.342.977.509.2,1.027.372.166-.541.287-1.092Q220.349,183.146,219.868,183Z" transform="translate(-192.166 -154.084)" fill="#fff" fill-rule="evenodd"/>
    <path id="Path_170" data-name="Path 170" d="M215.628,181.3q.322.187.652.356-.23.346-.482.676-.343-.21-.678-.437.265-.292.509-.594Z" transform="translate(-190.959 -153.618)" fill="#fff" fill-rule="evenodd"/>
    <path id="Path_171" data-name="Path 171" d="M216.621,179.987q.3.123.613.227-.163.311-.343.611-.322-.139-.636-.3.193-.264.366-.54Z" transform="translate(-191.27 -153.259)" fill="#fff" fill-rule="evenodd"/>
    <path id="Path_172" data-name="Path 172" d="M217.522,182.259q.415.183.843.339-.2.439-.429.863-.443-.208-.877-.443Q217.3,182.646,217.522,182.259Z" transform="translate(-191.49 -153.882)" fill="#fff" fill-rule="evenodd"/>
    <path id="Path_173" data-name="Path 173" d="M218.42,180.58q.39.1.79.178-.138.39-.3.771-.415-.117-.819-.266.172-.337.327-.684Z" transform="translate(-191.774 -153.421)" fill="#fff" fill-rule="evenodd"/>
    <path id="Path_174" data-name="Path 174" d="M214.428,180.4q.244.216.5.419-.257.238-.526.461-.257-.24-.5-.494c.18-.123.354-.253.526-.387Z" transform="translate(-190.626 -153.372)" fill="#fff" fill-rule="evenodd"/>
    <path id="Path_175" data-name="Path 175" d="M218.993,179.025q.326.015.653.01c-.034.234-.074.462-.122.69-.234-.016-.468-.04-.7-.07.063-.209.117-.42.165-.632Z" transform="translate(-191.974 -152.995)" fill="#fff" fill-rule="evenodd"/>
    <path id="Path_176" data-name="Path 176" d="M222.651,180.995q-.006.5-.048,1,.558.053,1.123.058,0-.544-.044-1.091-.519.035-1.031.027Z" transform="translate(-193.009 -153.527)" fill="#fff" fill-rule="evenodd"/>
    <path id="Path_177" data-name="Path 177" d="M208.5,164.456q-.426-.058-.861-.091.039-.468.11-.936.468.072.924.175-.1.425-.175.85Z" transform="translate(-188.91 -148.723)" fill="#fff" fill-rule="evenodd"/>
    <path id="Path_178" data-name="Path 178" d="M213.125,164.1q-.321-.187-.652-.356.229-.346.482-.676.344.21.678.437-.265.292-.509.594Z" transform="translate(-190.233 -148.623)" fill="#fff" fill-rule="evenodd"/>
    <path id="Path_179" data-name="Path 179" d="M212.2,165.489q-.3-.123-.613-.227.163-.311.343-.612.322.14.636.3-.193.265-.366.54Z" transform="translate(-189.991 -149.057)" fill="#fff" fill-rule="evenodd"/>
    <path id="Path_180" data-name="Path 180" d="M211.176,163.079q-.416-.184-.843-.339.2-.439.429-.864.444.208.877.443Q211.395,162.692,211.176,163.079Z" transform="translate(-189.647 -148.297)" fill="#fff" fill-rule="evenodd"/>
    <path id="Path_181" data-name="Path 181" d="M210.348,164.853q-.39-.1-.789-.178.137-.391.3-.771.415.117.819.266-.173.337-.327.684Z" transform="translate(-189.435 -148.852)" fill="#fff" fill-rule="evenodd"/>
    <path id="Path_182" data-name="Path 182" d="M206.369,161.587q-.6-.1-1.2-.145.035-.668.126-1.327.654.113,1.3.282-.138.592-.225,1.191Z" transform="translate(-188.232 -147.814)" fill="#fff" fill-rule="evenodd"/>
    <path id="Path_183" data-name="Path 183" d="M214.375,165.059q-.244-.216-.5-.419.257-.238.526-.461.257.24.5.494-.27.185-.526.387Z" transform="translate(-190.617 -148.928)" fill="#fff" fill-rule="evenodd"/>
    <path id="Path_184" data-name="Path 184" d="M206.215,164.277q-.513-.005-1.033.031-.04-.547-.043-1.094.567.005,1.126.055-.043.5-.05,1.006Z" transform="translate(-188.224 -148.663)" fill="#fff" fill-rule="evenodd"/>
    <path id="Path_185" data-name="Path 185" d="M206.62,168.907q-.081-.364-.14-.73-.4.117-.789.257.1.391.212.78.356-.165.718-.306Z" transform="translate(-188.375 -150.023)" fill="#fff" fill-rule="evenodd"/>
    <path id="Path_186" data-name="Path 186" d="M208.238,168.435q-.025-.326-.03-.654-.344.062-.685.143c.023.234.055.468.091.7.207-.069.415-.13.625-.186Z" transform="translate(-188.877 -149.914)" fill="#fff" fill-rule="evenodd"/>
    <path id="Path_187" data-name="Path 187" d="M206.246,166.756q-.049-.453-.068-.908-.479.058-.951.149.064.487.157.971.428-.12.863-.212Z" transform="translate(-188.248 -149.384)" fill="#fff" fill-rule="evenodd"/>
    <path id="Path_188" data-name="Path 188" d="M208.2,166.5q.019-.4.068-.809-.413.013-.823.049-.012.432,0,.864Q207.819,166.538,208.2,166.5Z" transform="translate(-188.853 -149.341)" fill="#fff" fill-rule="evenodd"/>
    <path id="Path_189" data-name="Path 189" d="M207.15,170.369q-.132-.3-.247-.608-.3.175-.6.365.15.318.318.627.257-.2.526-.387Z" transform="translate(-188.543 -150.457)" fill="#fff" fill-rule="evenodd"/>
    <path id="Path_190" data-name="Path 190" d="M209.87,166.509q.084-.316.188-.628-.346-.058-.694-.092c-.055.227-.1.457-.144.688C209.437,166.481,209.653,166.492,209.87,166.509Z" transform="translate(-189.342 -149.369)" fill="#fff" fill-rule="evenodd"/>
    <path id="Path_191" data-name="Path 191" d="M208.962,162.22q-.48-.146-.97-.257.117-.55.283-1.091.517.168,1.025.372Q209.11,161.728,208.962,162.22Z" transform="translate(-189.006 -148.021)" fill="#fff" fill-rule="evenodd"/>
    <path id="Path_192" data-name="Path 192" d="M182.308,201.8v-3.358h.444v1.665l1.664-1.665h.6l-1.4,1.36,1.467,2H184.5l-1.192-1.7-.549.536V201.8Zm60.5,0,1.287-3.358h.478l1.371,3.358h-.505l-.391-1.017h-1.4l-.367,1.017Zm.967-1.379h1.136l-.351-.93q-.159-.424-.237-.7a4.3,4.3,0,0,1-.181.643Zm-1.823,1.379v-3.358h.443V201.8Zm-3.216,0v-3.358h1.257a1.559,1.559,0,0,1,.615.1.791.791,0,0,1,.363.315.83.83,0,0,1,.132.443.76.76,0,0,1-.117.405.835.835,0,0,1-.351.308.872.872,0,0,1,.468.3.818.818,0,0,1,.165.509.986.986,0,0,1-.1.439.852.852,0,0,1-.246.313,1.023,1.023,0,0,1-.367.165,2.212,2.212,0,0,1-.54.055Zm.444-1.947h.725a1.622,1.622,0,0,0,.423-.039.468.468,0,0,0,.254-.167.484.484,0,0,0,.086-.292.543.543,0,0,0-.079-.292.41.41,0,0,0-.229-.175,1.914,1.914,0,0,0-.51-.047h-.669Zm0,1.551h.834a1.956,1.956,0,0,0,.3-.016.726.726,0,0,0,.256-.092.486.486,0,0,0,.169-.186.59.59,0,0,0,.066-.283.563.563,0,0,0-.1-.327.507.507,0,0,0-.267-.195,1.675,1.675,0,0,0-.49-.055h-.774V201.4Zm-3.915.4,1.287-3.358h.477L238.4,201.8h-.505l-.391-1.017h-1.4l-.367,1.017Zm.967-1.379h1.136l-.351-.93q-.16-.423-.237-.7a4.287,4.287,0,0,1-.181.643Zm-3.971,1.379v-3.358h1.485a1.971,1.971,0,0,1,.681.091.748.748,0,0,1,.373.319.959.959,0,0,1,.137.506.842.842,0,0,1-.231.6,1.17,1.17,0,0,1-.713.312,1.119,1.119,0,0,1,.268.167,2.358,2.358,0,0,1,.368.446l.585.914h-.557l-.443-.7a5.356,5.356,0,0,0-.32-.462.989.989,0,0,0-.225-.224.665.665,0,0,0-.2-.09,1.4,1.4,0,0,0-.248-.016h-.513V201.8Zm.443-1.875h.953a1.414,1.414,0,0,0,.475-.063.5.5,0,0,0,.261-.2.547.547,0,0,0,.089-.3.5.5,0,0,0-.173-.391.8.8,0,0,0-.545-.154H232.7v1.111Zm-3.939,1.875,1.287-3.358h.477L231.9,201.8H231.4L231,200.783h-1.4l-.367,1.017Zm.967-1.379h1.136l-.351-.93q-.16-.423-.237-.7a4.289,4.289,0,0,1-.181.643Zm-2.865,1.379v-3.358h.443V201.8Zm-3.455,0v-3.358h1.154a2.793,2.793,0,0,1,.6.049,1.132,1.132,0,0,1,.491.24,1.372,1.372,0,0,1,.4.574,2.252,2.252,0,0,1,.132.8,2.332,2.332,0,0,1-.09.678,1.623,1.623,0,0,1-.228.49,1.2,1.2,0,0,1-.305.3,1.224,1.224,0,0,1-.4.169,2.278,2.278,0,0,1-.538.058Zm.443-.4h.716a1.724,1.724,0,0,0,.52-.061.747.747,0,0,0,.3-.176,1.052,1.052,0,0,0,.246-.425,2.085,2.085,0,0,0,.088-.647,1.563,1.563,0,0,0-.175-.809.866.866,0,0,0-.419-.379,1.714,1.714,0,0,0-.574-.069h-.7V201.4Zm-1.625-2.962h.444v1.937a2.3,2.3,0,0,1-.117.8.979.979,0,0,1-.413.484,1.451,1.451,0,0,1-.782.187,1.6,1.6,0,0,1-.771-.163.923.923,0,0,1-.427-.468,2.236,2.236,0,0,1-.128-.842v-1.94h.443v1.938a1.888,1.888,0,0,0,.081.643.618.618,0,0,0,.278.32.963.963,0,0,0,.484.113.921.921,0,0,0,.7-.223,1.286,1.286,0,0,0,.208-.853v-1.938Zm-5.688,3.358,1.287-3.358h.477l1.371,3.358h-.505l-.391-1.017h-1.4l-.367,1.017Zm.966-1.379h1.136l-.351-.93q-.159-.424-.237-.7a4.3,4.3,0,0,1-.181.643Zm-3.87.3.418-.036a.923.923,0,0,0,.138.414.756.756,0,0,0,.337.261,1.277,1.277,0,0,0,.514.1,1.235,1.235,0,0,0,.448-.075.625.625,0,0,0,.289-.207.483.483,0,0,0,.095-.288.432.432,0,0,0-.092-.276.671.671,0,0,0-.3-.2,5.875,5.875,0,0,0-.6-.164,3.04,3.04,0,0,1-.646-.21.91.91,0,0,1-.358-.313.771.771,0,0,1-.117-.418.857.857,0,0,1,.143-.475.9.9,0,0,1,.42-.336,1.6,1.6,0,0,1,.615-.117,1.675,1.675,0,0,1,.657.12.945.945,0,0,1,.437.351,1.022,1.022,0,0,1,.166.526l-.425.032a.692.692,0,0,0-.234-.481.9.9,0,0,0-.585-.163.936.936,0,0,0-.585.148.444.444,0,0,0-.184.356.382.382,0,0,0,.13.3,1.75,1.75,0,0,0,.668.24,4.447,4.447,0,0,1,.742.214,1.023,1.023,0,0,1,.432.343.836.836,0,0,1,.138.478.915.915,0,0,1-.153.505,1.013,1.013,0,0,1-.441.369,1.53,1.53,0,0,1-.643.132,1.912,1.912,0,0,1-.76-.133,1.07,1.07,0,0,1-.483-.4,1.132,1.132,0,0,1-.183-.6Zm-3.986,1.079v-3.358h2.261v.4h-1.818v1.04h1.572v.4h-1.572V201.8Zm-3.8-1.637a1.825,1.825,0,0,1,.447-1.309,1.524,1.524,0,0,1,1.157-.473,1.609,1.609,0,0,1,.836.221,1.452,1.452,0,0,1,.568.62,2.011,2.011,0,0,1,.195.9,1.98,1.98,0,0,1-.2.915,1.4,1.4,0,0,1-.585.611,1.66,1.66,0,0,1-.813.207,1.579,1.579,0,0,1-.846-.229,1.471,1.471,0,0,1-.565-.626,1.9,1.9,0,0,1-.193-.838Zm.457.007a1.345,1.345,0,0,0,.325.957,1.135,1.135,0,0,0,1.607.031l.034-.034a1.432,1.432,0,0,0,.323-1,1.727,1.727,0,0,0-.138-.716,1.067,1.067,0,0,0-.4-.475,1.1,1.1,0,0,0-.6-.168,1.13,1.13,0,0,0-.811.325,1.45,1.45,0,0,0-.339,1.082Zm-5.536,1.629v-3.358h.668l.792,2.378c.073.221.127.387.16.5q.058-.183.178-.539l.8-2.336h.6V201.8h-.427v-2.811l-.973,2.811h-.4l-.969-2.858V201.8Zm-3.761-1.637a1.828,1.828,0,0,1,.447-1.309,1.524,1.524,0,0,1,1.157-.473,1.609,1.609,0,0,1,.836.221,1.457,1.457,0,0,1,.568.62,2.012,2.012,0,0,1,.195.9,1.98,1.98,0,0,1-.2.915,1.409,1.409,0,0,1-.585.611,1.664,1.664,0,0,1-.813.207,1.579,1.579,0,0,1-.846-.229A1.471,1.471,0,0,1,197.2,201a1.9,1.9,0,0,1-.193-.838Zm.457.007a1.345,1.345,0,0,0,.325.957,1.135,1.135,0,0,0,1.607.032l.034-.035a1.433,1.433,0,0,0,.323-1,1.73,1.73,0,0,0-.138-.716,1.068,1.068,0,0,0-.4-.475,1.1,1.1,0,0,0-.6-.168,1.13,1.13,0,0,0-.81.325,1.448,1.448,0,0,0-.339,1.082Zm-3.7,1.629V198.44h1.154a2.794,2.794,0,0,1,.6.049,1.131,1.131,0,0,1,.491.24,1.37,1.37,0,0,1,.4.574,2.252,2.252,0,0,1,.132.8,2.329,2.329,0,0,1-.09.678,1.623,1.623,0,0,1-.229.489,1.192,1.192,0,0,1-.305.3,1.225,1.225,0,0,1-.4.169,2.281,2.281,0,0,1-.538.059Zm.443-.4h.716a1.724,1.724,0,0,0,.52-.061.747.747,0,0,0,.3-.175,1.052,1.052,0,0,0,.246-.425,2.077,2.077,0,0,0,.088-.647,1.568,1.568,0,0,0-.173-.809.867.867,0,0,0-.42-.379,1.713,1.713,0,0,0-.574-.069h-.7V201.4Zm-2.515-.921v-.393h1.419v1.246a2.5,2.5,0,0,1-.674.393,2,2,0,0,1-.713.132,1.9,1.9,0,0,1-.9-.212,1.4,1.4,0,0,1-.609-.612,1.93,1.93,0,0,1-.206-.9,2.077,2.077,0,0,1,.205-.915,1.356,1.356,0,0,1,.588-.632,1.844,1.844,0,0,1,.884-.206,1.736,1.736,0,0,1,.657.117,1.078,1.078,0,0,1,.46.328,1.468,1.468,0,0,1,.254.55l-.4.111a1.268,1.268,0,0,0-.187-.4.772.772,0,0,0-.32-.234,1.169,1.169,0,0,0-.461-.089,1.357,1.357,0,0,0-.526.093.979.979,0,0,0-.358.244,1.17,1.17,0,0,0-.211.332,1.755,1.755,0,0,0-.128.675,1.638,1.638,0,0,0,.154.751.989.989,0,0,0,.449.449,1.381,1.381,0,0,0,.626.147,1.474,1.474,0,0,0,.562-.112,1.411,1.411,0,0,0,.416-.237v-.626Zm-4.953,1.318V198.44h.455l1.76,2.637V198.44h.425V201.8h-.455l-1.76-2.639V201.8Zm-1.22,0V198.44h.443V201.8Z" transform="translate(-181.968 -158.298)" fill="#fff" fill-rule="evenodd"/>
    <path id="Path_193" data-name="Path 193" d="M212.886,166.558a1.462,1.462,0,0,1,.216.732s.453-.743,1.392-.124c0,0-.8-.108-.988.305,0,0,1.228-.322,1.491.819,0,0-.568-.635-1.087-.52a1.333,1.333,0,0,1,.848,1.626s-.1-1.09-.889-1.222a1.813,1.813,0,0,1,.453,1.816,1.788,1.788,0,0,0-.56-1.329,1.921,1.921,0,0,1-.239,1.775s.321-1.081-.2-1.478c0,0-.214-.132-.206.264,0,0-.061,2.269.051,3.376,0,0,2.266-1.923,4.205-.643,0,0-1.92-.939-4.132,1.13l1.476,1.3a.37.37,0,0,1,.684.2c0,.5-.7.464-.955.164l-1.551-1.429-.011-.034-.011.034-1.551,1.429c-.256.3-.956.335-.956-.164a.37.37,0,0,1,.685-.2l1.476-1.3c-2.211-2.071-4.132-1.13-4.132-1.13,1.939-1.278,4.205.643,4.205.643.112-1.107.05-3.376.05-3.376.009-.4-.206-.264-.206-.264-.519.4-.2,1.478-.2,1.478a1.921,1.921,0,0,1-.239-1.775,1.788,1.788,0,0,0-.56,1.329,1.813,1.813,0,0,1,.453-1.816c-.791.132-.889,1.222-.889,1.222a1.332,1.332,0,0,1,.849-1.626c-.519-.117-1.087.52-1.087.52.264-1.139,1.491-.819,1.491-.819-.189-.413-.988-.305-.988-.305.939-.619,1.392.124,1.392.124a1.462,1.462,0,0,1,.215-.732Z" transform="translate(-189.118 -149.579)" fill="#fff" fill-rule="evenodd"/>
    <path id="Path_194" data-name="Path 194" d="M185.233,194.8h.432v-.432h-.432Zm-1.01-4.688h-.432v.432h.432Zm1.735,4.688h.432v-.432h-.432Zm-2.463-4.688h-.432v.432h.432Zm5.516,1.287a1.052,1.052,0,0,0-.375-.273,1.12,1.12,0,0,0-.5-.091h-.318v.409h.375a.611.611,0,0,1,.284.068.7.7,0,0,1,.227.171.8.8,0,0,1,.125.239,1.3,1.3,0,0,1,.034.318v1.218H186.9v.421h2.384v-1.65a1.547,1.547,0,0,0-.068-.468.952.952,0,0,0-.2-.364Zm16.208,2.48h.42v-3.766h-.42Zm-1.634-.421h-.692a1.389,1.389,0,0,1-.578-.1.806.806,0,0,1-.33-.319,1.376,1.376,0,0,0,.046-.4v-1.345h-.42V192.7a.829.829,0,0,1-.193.58.753.753,0,0,1-.59.216.825.825,0,0,1-.34-.059.984.984,0,0,1-.261-.148.919.919,0,0,1-.17-.239.622.622,0,0,1-.068-.284v-1.479h-.42v1.447a.9.9,0,0,1-.058.33.51.51,0,0,1-.159.216.545.545,0,0,1-.227.125.659.659,0,0,1-.261.046h-.819v-2.164h-.42v2.164h-2.187l.726-1.754a4.347,4.347,0,0,0-.351-.284,3.27,3.27,0,0,0-.385-.216,2.029,2.029,0,0,0-.409-.159,1.454,1.454,0,0,0-.806,0,2.985,2.985,0,0,0-.409.148,2.655,2.655,0,0,0-.385.228,3,3,0,0,0-.351.284l.737,1.754H192.35v-2.423h-.67a2.285,2.285,0,0,0-.7.1,1.8,1.8,0,0,0-.545.307,1.286,1.286,0,0,0-.363.455,1.34,1.34,0,0,0-.125.569,1.228,1.228,0,0,0,.147.637,1.151,1.151,0,0,0,.375.432,1.68,1.68,0,0,0,.556.262,3.089,3.089,0,0,0,.658.079h.25v.117a.566.566,0,0,1-.181.478.9.9,0,0,1-.533.137,1.672,1.672,0,0,1-.351-.035,2.205,2.205,0,0,1-.351-.125l-.125.4a2.953,2.953,0,0,0,.42.137,1.4,1.4,0,0,0,.375.046,1.215,1.215,0,0,0,.9-.3,1.091,1.091,0,0,0,.273-.773v-.08h6.515a1.076,1.076,0,0,0,.545-.136,1.152,1.152,0,0,0,.385-.351.985.985,0,0,0,.409.4,1.333,1.333,0,0,0,.625.137,1.508,1.508,0,0,0,.635-.125.891.891,0,0,0,.409-.409.692.692,0,0,0,.136.182.664.664,0,0,0,.193.149.935.935,0,0,0,.284.113,1.275,1.275,0,0,0,.306.035v.011h1.215v-3.766h-.42v3.345Zm10.13,1.353h.432v-.435h-.432Zm4.1-1.345-.647-1.615a1.479,1.479,0,0,1,.488-.3,1.424,1.424,0,0,1,.533-.091,1.345,1.345,0,0,1,.556.114,1.378,1.378,0,0,1,.477.273l-.659,1.615Zm2.975,0h-1.782l.737-1.763c-.113-.091-.238-.182-.363-.273a4.259,4.259,0,0,0-.385-.228,2.781,2.781,0,0,0-.4-.148,1.494,1.494,0,0,0-.819,0,2.947,2.947,0,0,0-.409.148,2.611,2.611,0,0,0-.385.228c-.125.091-.238.182-.351.273l.749,1.763h-1.566v-2.434h-.42v2.936a1.221,1.221,0,0,1-.023.307.434.434,0,0,1-.058.194.244.244,0,0,1-.125.117.456.456,0,0,1-.193.034.318.318,0,0,1-.1-.012.69.69,0,0,1-.113-.023l-.113.409a2.024,2.024,0,0,0,.341.046.777.777,0,0,0,.385-.08.622.622,0,0,0,.25-.2,1.192,1.192,0,0,0,.136-.341,2.525,2.525,0,0,0,.034-.444v-.091H221.2v-3.755h-.42v3.346Zm-8.6,1.345h.432v-.435h-.432Zm-2.542-1.345h-.42a1.5,1.5,0,0,1-.442-.068.994.994,0,0,1-.351-.2.83.83,0,0,1-.25-.308,1.035,1.035,0,0,1-.091-.421.856.856,0,0,1,.1-.421,1.36,1.36,0,0,1,.25-.319,1.96,1.96,0,0,1,.375-.2,1.272,1.272,0,0,1,.409-.068h.42v2.013Zm4.506-2.434h-.42v2.434h-1.579v-2.434h-.42v2.434h-1.667v-2.434H209.4a2.354,2.354,0,0,0-.716.114,1.569,1.569,0,0,0-.545.3,1.373,1.373,0,0,0-.351.456,1.351,1.351,0,0,0-.125.569,1.427,1.427,0,0,0,.147.637,1.4,1.4,0,0,0,.375.444,1.675,1.675,0,0,0,.556.25,2.439,2.439,0,0,0,.658.08h4.744v-2.844Zm-2.69,3.778h.431v-.433h-.431Zm-1.4-4.688h-.432v.432h.432Zm-.737,0h-.432v.432h.431Zm13.1,3.755h.42v-3.755h-.419v3.755Zm18.737-.367a1.078,1.078,0,0,1-.238.351,1.2,1.2,0,0,1-.34.228,1.135,1.135,0,0,1-.443.08.918.918,0,0,1-.432-.091,1.36,1.36,0,0,1-.34-.228,1.019,1.019,0,0,1-.215-.351,1.076,1.076,0,0,1-.091-.421,1.134,1.134,0,0,1,.091-.432,1.024,1.024,0,0,1,.215-.351,1.3,1.3,0,0,1,.34-.239,1.045,1.045,0,0,1,.432-.08,1.134,1.134,0,0,1,.443.08,1.265,1.265,0,0,1,.351.227.9.9,0,0,1,.227.351,1.144,1.144,0,0,1,.091.444,1.087,1.087,0,0,1-.091.432Zm-4.063,0a1.071,1.071,0,0,1-.238.351,1.116,1.116,0,0,1-.351.228,1.04,1.04,0,0,1-.432.08.917.917,0,0,1-.431-.091,1.362,1.362,0,0,1-.34-.228,1.255,1.255,0,0,1-.227-.351,1.315,1.315,0,0,1-.08-.421,1.388,1.388,0,0,1,.08-.432,1.264,1.264,0,0,1,.227-.351,1.3,1.3,0,0,1,.34-.239,1.049,1.049,0,0,1,.431-.08,1.14,1.14,0,0,1,.443.08,1.262,1.262,0,0,1,.351.227,1.046,1.046,0,0,1,.227.351,1.145,1.145,0,0,1,.091.444,1.088,1.088,0,0,1-.091.432Zm-10.191.193H226.5a1.385,1.385,0,0,1-.443-.068,1.038,1.038,0,0,1-.363-.2.8.8,0,0,1-.238-.307.881.881,0,0,1-.091-.421.994.994,0,0,1,.091-.421,1.146,1.146,0,0,1,.261-.318,1.588,1.588,0,0,1,.363-.205,1.316,1.316,0,0,1,.42-.068h.409Zm16.072,0h-1.442a1.442,1.442,0,0,0,.136-.626,1.55,1.55,0,0,0-.125-.6,1.579,1.579,0,0,0-.318-.489,1.455,1.455,0,0,0-.488-.319,1.5,1.5,0,0,0-.6-.114,1.478,1.478,0,0,0-.59.114,1.386,1.386,0,0,0-.468.332,1.3,1.3,0,0,0-.318.489,1.482,1.482,0,0,0-.125.592,1.408,1.408,0,0,0,.136.626h-1.3a1.444,1.444,0,0,0,.136-.626,1.546,1.546,0,0,0-.125-.6,1.579,1.579,0,0,0-.318-.489,1.449,1.449,0,0,0-.488-.319,1.489,1.489,0,0,0-.6-.114,1.435,1.435,0,0,0-.59.114,1.557,1.557,0,0,0-.477.332,1.654,1.654,0,0,0-.318.489,1.712,1.712,0,0,0-.114.592,1.565,1.565,0,0,0,.034.33,2.924,2.924,0,0,0,.091.3h-1.328v-3.35h-.42V193.7h-1.328v-.649a1.52,1.52,0,0,0-.068-.455.985.985,0,0,0-.193-.375,1.434,1.434,0,0,0-.375-.273,1.33,1.33,0,0,0-.511-.08h-1.861l.794-1.513h-.454l-.806,1.5a1.246,1.246,0,0,0,.058.239,1.056,1.056,0,0,0,.125.182h2.145a.834.834,0,0,1,.34.068.546.546,0,0,1,.227.159.485.485,0,0,1,.125.239,1.273,1.273,0,0,1,.034.308v.649h-3.882v-2.434h-.658a2.346,2.346,0,0,0-.716.114,1.686,1.686,0,0,0-.545.3,1.338,1.338,0,0,0-.34.455,1.2,1.2,0,0,0-.125.569,1.427,1.427,0,0,0,.136.637,1.775,1.775,0,0,0,.375.444,1.653,1.653,0,0,0,.556.25,2.475,2.475,0,0,0,.658.08h8.307a1.493,1.493,0,0,0,.488.351,1.4,1.4,0,0,0,.613.125,1.42,1.42,0,0,0,.624-.125,1.292,1.292,0,0,0,.5-.351h1.85a1.451,1.451,0,0,0,.477.351,1.4,1.4,0,0,0,.613.125,1.423,1.423,0,0,0,.625-.125,1.3,1.3,0,0,0,.5-.351h2.133v-3.755h-.42V193.7Zm1.646.409h.42v-3.755h-.42Zm-18.035-3.755h-.432v.432h.432Zm.737,0h-.432v.432h.432Zm-41.011.675h-.42v2.423h-1.668v-2.423h-.658a2.365,2.365,0,0,0-.716.1,1.8,1.8,0,0,0-.545.3,1.359,1.359,0,0,0-.468,1.024,1.392,1.392,0,0,0,.137.637,1.335,1.335,0,0,0,.385.444,1.607,1.607,0,0,0,.545.25,2.574,2.574,0,0,0,.658.091h2.748v-2.844Zm-2.51,2.426H183.4a1.394,1.394,0,0,1-.443-.068,1.242,1.242,0,0,1-.363-.194.95.95,0,0,1-.239-.319.856.856,0,0,1-.091-.421.987.987,0,0,1,.091-.409,1.127,1.127,0,0,1,.625-.526,1.3,1.3,0,0,1,.42-.08h.409v2.015Zm8.126,0h-.42a1.394,1.394,0,0,1-.443-.068,1.022,1.022,0,0,1-.363-.194.834.834,0,0,1-.25-.308,1,1,0,0,1-.091-.421.847.847,0,0,1,.1-.409,1.007,1.007,0,0,1,.25-.319,1.462,1.462,0,0,1,.363-.216,1.4,1.4,0,0,1,.432-.068h.42v2Zm2.315,0-.658-1.616a1.746,1.746,0,0,1,.5-.3,1.641,1.641,0,0,1,.533-.091,1.39,1.39,0,0,1,.556.114,1.679,1.679,0,0,1,.468.273L195,193.454Z" transform="translate(-181.839 -156.032)" fill="#fff" fill-rule="evenodd"/>
    <path id="Path_195" data-name="Path 195" d="M246.844,152.973h.725v.727h-.725Zm1.45,0h.725v.727H248.3ZM233.989,144.7h-.723v-.727h.725Zm17.358,5.058a3.052,3.052,0,0,0,.952.439,4.688,4.688,0,0,0,1.148.137h.181l.257-.515v.712a.966.966,0,0,1-.332.819,1.438,1.438,0,0,1-.906.242,2.47,2.47,0,0,1-.6-.059,3.758,3.758,0,0,1-.619-.212l-.227.7a5.494,5.494,0,0,0,.74.227,3.151,3.151,0,0,0,.65.075,2.05,2.05,0,0,0,1.541-.5,1.878,1.878,0,0,0,.468-1.345v-5.043h-1.149a3.855,3.855,0,0,0-1.223.182,2.945,2.945,0,0,0-.936.515,2.416,2.416,0,0,0-.589,2.878,2.1,2.1,0,0,0,.65.76Zm0-2.559a1.6,1.6,0,0,1,.438-.56,2.077,2.077,0,0,1,1.345-.485h1.163l-.409.212v3.241h-.74a2.4,2.4,0,0,1-.755-.108,2.113,2.113,0,0,1-.633-.333,1.771,1.771,0,0,1-.423-.53,1.607,1.607,0,0,1-.151-.727,1.413,1.413,0,0,1,.165-.712Zm-15.923-2.5h-.71v-.727h.71Zm21.014,7.617a2.635,2.635,0,0,1-.589-.075l.181-.7a1.294,1.294,0,0,1,.2.046h.181a.724.724,0,0,0,.332-.058.36.36,0,0,0,.212-.182.951.951,0,0,0,.106-.351,2.625,2.625,0,0,0,.03-.515v-5.058h.725v5.059a3.836,3.836,0,0,1-.059.757,1.479,1.479,0,0,1-.241.591,1.1,1.1,0,0,1-.423.363,1.655,1.655,0,0,1-.65.121Zm-22.978-.091h1.5v-.546a.337.337,0,0,1,.045.075,1.153,1.153,0,0,0,.438.364,1.6,1.6,0,0,0,.65.121h13.188v-6.815h-.725v6.088H236.119a1.128,1.128,0,0,1-.347-.045.49.49,0,0,1-.2-.2.937.937,0,0,1-.121-.351,4.461,4.461,0,0,1-.03-.515v-4.982h-1.949a3.318,3.318,0,0,0-3.354,3.282v.126a3.3,3.3,0,0,0,3.2,3.392h.139Zm-2.568-3.424a2.57,2.57,0,0,1,2.568-2.7h1.692l-.438.212v4.089a3.748,3.748,0,0,0,.058.757,2.063,2.063,0,0,0,.106.364h-1.4a2.6,2.6,0,0,1-2.584-2.711v-.015Zm22.9-5.636h.59v.533h-.542a.213.213,0,0,0-.212.213v.213h.93v.576h-1.53v-.767a.768.768,0,0,1,.765-.767Z" transform="translate(-195.069 -143.171)" fill="#fff" fill-rule="evenodd"/>
    <path id="Path_196" data-name="Path 196" d="M213.187,146.17h.739v6.777h-.6l-4.813-6.1.423.984v5.113h-.739V146.17h.709l4.588,5.839-.3-.832V146.17Zm-28.172,6.837L182.1,146.17h.845l.423,1.013,1.992,4.826.2.468-.075-.742,2.309-5.567h.815l-2.912,6.837Zm12.918-6.837h.77v6.777h-.772V146.17Zm8.208,3.4a2.663,2.663,0,0,1-2.656,2.783,2.7,2.7,0,0,1-2.672-2.8v-.015a2.667,2.667,0,1,1,5.328.015Zm-2.656-3.525a3.439,3.439,0,0,0-3.455,3.422v.1a3.4,3.4,0,0,0,3.3,3.493h.143a3.434,3.434,0,0,0,3.471-3.4v-.129a3.409,3.409,0,0,0-3.322-3.494h-.133Zm-6.806,5.067v.015c0,1.165-.981,1.921-2.324,1.921a3.961,3.961,0,0,1-2.761-1.089l.468-.56a3.25,3.25,0,0,0,2.324.953c.92,0,1.509-.484,1.509-1.15v-.015c0-.635-.332-1-1.765-1.287-1.554-.351-2.264-.847-2.264-1.967v-.015a2,2,0,0,1,2.218-1.86,3.483,3.483,0,0,1,2.384.847l-.437.59a3.005,3.005,0,0,0-1.961-.742c-.877,0-1.449.484-1.449,1.089v.03c0,.635.347,1,1.841,1.316,1.509.333,2.218.877,2.218,1.921Zm-6.262,1.83h-.77V146.17h.77Z" transform="translate(-181.912 -143.959)" fill="#fff" fill-rule="evenodd"/>
  </g>
</svg>
