<svg xmlns="http://www.w3.org/2000/svg" width="28.911" height="30.526" viewBox="0 0 28.911 30.526">
  <g id="Group_24851" data-name="Group 24851" transform="translate(-2.776 -0.1)">
    <path id="Path_62366" data-name="Path 62366" d="M21.591,17.7c-2.979-4.383-6.958-6.712-9.042-5.285a2.4,2.4,0,0,0-.589.592c0,.017-4.824,9.779-4.824,9.779L4.443,24.61a3.8,3.8,0,0,0-1.01,5.285l.121.178a3.811,3.811,0,0,0,5.261,1.01l4.326,6.372a2.455,2.455,0,0,0,3.366.646,2.279,2.279,0,0,0,1.01-1.548,2.41,2.41,0,0,0-.374-1.818l-3.811-5.622s9.008-.717,9.042-.73a2.158,2.158,0,0,0,.784-.337c1.07-.727,1.454-2.252,1.084-4.3A16.472,16.472,0,0,0,21.591,17.7ZM4.534,29.41l-.121-.178a2.622,2.622,0,0,1,.7-3.646L7.439,24l3.07,4.521L8.183,30.107A2.626,2.626,0,0,1,4.534,29.41ZM16.174,35.4a1.245,1.245,0,0,1-2.067,1.39L9.8,30.437l1.734-1.178.458-.037Zm-4.551-7.332L8.277,23.139l3.191-6.507a16.2,16.2,0,0,0,2.663,6.13A16.251,16.251,0,0,0,18.844,27.5Zm9.93-.784c-1.609-.1-4.228-1.919-6.446-5.187s-2.939-6.362-2.444-7.9a1.434,1.434,0,0,1,1.346-1.01c1.6,0,4.312,1.824,6.594,5.187a14.361,14.361,0,0,1,2.478,5.6c.5,3.309-1.528,3.309-1.528,3.309Z" transform="translate(0 -7.891)" fill="#fff"/>
    <path id="Path_62367" data-name="Path 62367" d="M40.944,9.933a3.161,3.161,0,0,0-2.4.495.592.592,0,1,0,.673.973,2.02,2.02,0,0,1,2.269,3.343.589.589,0,0,0,.337,1.074.576.576,0,0,0,.337-.1,3.195,3.195,0,0,0-1.195-5.783Zm4.935-4.221h.057a.589.589,0,0,0,.586-.528L46.976.767A.589.589,0,1,0,45.805.645l-.451,4.42A.589.589,0,0,0,45.879,5.712ZM53.493,4.8a.592.592,0,0,0-.818-.168l-4.1,2.693a.589.589,0,0,0,.337,1.081.6.6,0,0,0,.337-.094l4.1-2.693a.589.589,0,0,0,.145-.818Zm1.256,7.19-4.773-.858a.59.59,0,0,0-.209,1.161l4.77.858h.1a.589.589,0,0,0,.1-1.171Z" transform="translate(-23.561 0)" fill="#fff"/>
  </g>
</svg>
