<svg xmlns="http://www.w3.org/2000/svg" width="18.27" height="18.27" viewBox="0 0 18.27 18.27">
  <g id="Group_24974" data-name="Group 24974" transform="translate(-0.001)">
    <path id="Path_62486" data-name="Path 62486" d="M13.2,18.27H3.046A3.045,3.045,0,0,1,0,15.225V5.075A3.045,3.045,0,0,1,3.046,2.03h4.06a1.015,1.015,0,0,1,0,2.03H3.046A1.015,1.015,0,0,0,2.031,5.075v10.15A1.015,1.015,0,0,0,3.046,16.24H13.2a1.015,1.015,0,0,0,1.015-1.015v-4.06a1.015,1.015,0,0,1,2.03,0v4.06A3.045,3.045,0,0,1,13.2,18.27Zm-6.09-6.09a1.015,1.015,0,0,1-.718-1.733L14.806,2.03h-3.64a1.015,1.015,0,0,1,0-2.03h6.09a1.012,1.012,0,0,1,.709.289h0l0,0h0l0,0h0l0,0,0,0h0l0,0,0,0h0a1.012,1.012,0,0,1,.289.709v6.09a1.015,1.015,0,1,1-2.03,0V3.465L7.824,11.883a1.011,1.011,0,0,1-.718.3Z" fill="#fff"/>
  </g>
</svg>
