<svg xmlns="http://www.w3.org/2000/svg" xmlns:xlink="http://www.w3.org/1999/xlink" width="19.152" height="19.152" viewBox="0 0 19.152 19.152">
  <defs>
    <clipPath id="clip-path">
      <path id="Path_13" data-name="Path 13" d="M0-682.665H19.152v19.152H0Z" transform="translate(0 682.665)" fill="#fff"/>
    </clipPath>
  </defs>
  <g id="Group_21" data-name="Group 21" transform="translate(0 -0.002)">
    <g id="Group_20" data-name="Group 20" transform="translate(0 0.002)" clip-path="url(#clip-path)">
      <path id="Path_12" data-name="Path 12" d="M-280.351-484.675h1.471m2.951,0h1.471m-10.308,0h1.471m2.943-4.414h1.471m2.951,0h1.471m-10.308,0h1.471m-5.15-3.691h17.664m-14.713,11.771h11.762a2.951,2.951,0,0,0,2.951-2.951v-10.282a2.951,2.951,0,0,0-2.951-2.951h-11.762a2.951,2.951,0,0,0-2.951,2.951v10.282A2.951,2.951,0,0,0-285.492-481.01Zm10.3-13.978v-3.678m-8.836,3.678v-3.678" transform="translate(289.191 499.414)" fill="none" stroke="#fff" stroke-linecap="round" stroke-linejoin="round" stroke-miterlimit="10" stroke-width="2"/>
    </g>
  </g>
</svg>
