<svg xmlns="http://www.w3.org/2000/svg" width="17.76" height="17.76" viewBox="0 0 17.76 17.76">
  <g id="Group_27" data-name="Group 27" transform="translate(0 0)">
    <path id="Path_31" data-name="Path 31" d="M9.88,1a8.88,8.88,0,1,0,8.88,8.88A8.88,8.88,0,0,0,9.88,1Zm0,16.146A7.266,7.266,0,1,1,17.146,9.88,7.266,7.266,0,0,1,9.88,17.146Z" transform="translate(-1 -1)" fill="#1a5a8f"/>
    <path id="Path_32" data-name="Path 32" d="M12.615,10.317V5.807a.807.807,0,0,0-1.615,0v4.844a.807.807,0,0,0,.236.571l2.422,2.422A.807.807,0,1,0,14.8,12.5Z" transform="translate(-2.927 -1.771)" fill="#1a5a8f"/>
  </g>
</svg>
