<svg xmlns="http://www.w3.org/2000/svg" width="25.999" height="26" viewBox="0 0 25.999 26">
  <g id="Group_19" data-name="Group 19" transform="translate(-5.5 -5.499)">
    <path id="Layer_2" data-name="Layer 2" d="M29.588,25.286A12.939,12.939,0,0,0,31.5,18.5h0a12.939,12.939,0,0,0-1.912-6.787l-.007-.011a13,13,0,0,0-22.162,0l-.007.011a13,13,0,0,0,0,13.574l.007.012a13,13,0,0,0,22.162,0Zm-9.426,3.985a3.159,3.159,0,0,1-.844.583,1.9,1.9,0,0,1-1.635,0,3.979,3.979,0,0,1-1.475-1.3,11.62,11.62,0,0,1-1.679-3.643q1.984-.122,3.971-.124t3.972.124a14.665,14.665,0,0,1-.712,1.961,7.538,7.538,0,0,1-1.6,2.4ZM6.986,19.229H12.23a25.8,25.8,0,0,0,.474,4.357q-2.15.189-4.289.52a11.46,11.46,0,0,1-1.429-4.877Zm1.429-6.337q2.138.331,4.291.52a25.751,25.751,0,0,0-.475,4.357H6.986A11.46,11.46,0,0,1,8.415,12.892Zm8.424-5.165a3.158,3.158,0,0,1,.844-.583,1.9,1.9,0,0,1,1.635,0,3.979,3.979,0,0,1,1.475,1.3,11.619,11.619,0,0,1,1.679,3.643q-1.984.122-3.971.124t-3.972-.124a14.662,14.662,0,0,1,.712-1.961,7.538,7.538,0,0,1,1.6-2.4ZM30.014,17.769H24.77a25.8,25.8,0,0,0-.474-4.357q2.15-.189,4.289-.52a11.46,11.46,0,0,1,1.429,4.877Zm-15.841,5.7a24.158,24.158,0,0,1-.482-4.243h9.618a24.153,24.153,0,0,1-.481,4.243q-2.162-.142-4.328-.145t-4.327.145Zm8.654-9.947a24.16,24.16,0,0,1,.482,4.243H13.691a24.153,24.153,0,0,1,.481-4.243q2.162.142,4.328.145t4.327-.145Zm1.943,5.7h5.244a11.46,11.46,0,0,1-1.429,4.877q-2.138-.331-4.291-.52a25.75,25.75,0,0,0,.475-4.357Zm2.94-7.682q-1.87.27-3.75.427a16.657,16.657,0,0,0-.869-2.453,10.365,10.365,0,0,0-1.209-2.058,11.537,11.537,0,0,1,5.829,4.084ZM10.341,10.34a11.535,11.535,0,0,1,4.778-2.875c-.027.036-.056.07-.082.105a13.334,13.334,0,0,0-1.993,4.405q-1.881-.159-3.753-.427a11.634,11.634,0,0,1,1.05-1.208ZM9.291,25.45q1.869-.27,3.75-.427a16.657,16.657,0,0,0,.869,2.453,10.366,10.366,0,0,0,1.209,2.058A11.537,11.537,0,0,1,9.291,25.45ZM26.66,26.659a11.535,11.535,0,0,1-4.778,2.875c.027-.036.056-.07.082-.105a13.334,13.334,0,0,0,1.993-4.405q1.881.159,3.753.427a11.634,11.634,0,0,1-1.05,1.208Z" fill="#fff"/>
  </g>
</svg>
