<svg id="Group_77" data-name="Group 77" xmlns="http://www.w3.org/2000/svg" width="15.142" height="23" viewBox="0 0 15.142 23">
  <path id="Path_106" data-name="Path 106" d="M55.651,0C51.476,0,48.08,3.811,48.08,8.5a10.8,10.8,0,0,0,.642,3.271A14.329,14.329,0,0,0,49.6,13.6l5.191,8.826a.938.938,0,0,0,1.725,0L61.705,13.6a14.27,14.27,0,0,0,.875-1.837A10.8,10.8,0,0,0,63.222,8.5c0-4.685-3.4-8.5-7.571-8.5Zm6.108,11.379a13.129,13.129,0,0,1-.8,1.674L55.77,21.88c-.1.174-.135.174-.237,0l-5.192-8.827a13.136,13.136,0,0,1-.8-1.675A9.8,9.8,0,0,1,48.971,8.5c0-4.134,3-7.5,6.68-7.5s6.68,3.363,6.68,7.5a9.81,9.81,0,0,1-.572,2.883Z" transform="translate(-48.08 0)" fill="#b88230"/>
  <path id="Path_107" data-name="Path 107" d="M116.088,64.008a4.528,4.528,0,1,0,4.008,4.5A4.279,4.279,0,0,0,116.088,64.008Zm0,8a3.522,3.522,0,1,1,3.118-3.5A3.328,3.328,0,0,1,116.088,72Z" transform="translate(-108.517 -60.009)" fill="#b88230"/>
</svg>
