<svg xmlns="http://www.w3.org/2000/svg" width="21.233" height="21.233" viewBox="0 0 21.233 21.233">
  <g id="Group_24967" data-name="Group 24967" transform="translate(0.25 0.25)">
    <path id="Path_62480" data-name="Path 62480" d="M18.574,16.367H15.982a.432.432,0,0,1,0-.864h2.592a1.3,1.3,0,0,0,1.3-1.3V8.16a1.3,1.3,0,0,0-1.3-1.3H2.16a1.3,1.3,0,0,0-1.3,1.3v6.047a1.3,1.3,0,0,0,1.3,1.3H4.751a.432.432,0,0,1,0,.864H2.16A2.162,2.162,0,0,1,0,14.207V8.16A2.162,2.162,0,0,1,2.16,6H18.574a2.162,2.162,0,0,1,2.16,2.16v6.047A2.162,2.162,0,0,1,18.574,16.367Zm-6.047,2.592H7.343a.432.432,0,0,1,0-.864h5.183a.432.432,0,0,1,0,.864Zm0-1.728H7.343a.432.432,0,0,1,0-.864h5.183a.432.432,0,0,1,0,.864Z" transform="translate(0 -0.817)" fill="#36a071" stroke="#36a071" stroke-width="0.5"/>
    <path id="Path_62481" data-name="Path 62481" d="M9.751,14.686H8.024a.432.432,0,0,1,0-.864H9.751a.432.432,0,0,1,0,.864Zm6.911-8.639a.432.432,0,0,1-.432-.432V2.16a1.3,1.3,0,0,0-1.3-1.3H7.16a1.3,1.3,0,0,0-1.3,1.3V5.615a.432.432,0,0,1-.864,0V2.16A2.162,2.162,0,0,1,7.16,0h7.775a2.162,2.162,0,0,1,2.16,2.16V5.615A.432.432,0,0,1,16.663,6.047Z" transform="translate(-0.681)" fill="#36a071" stroke="#36a071" stroke-width="0.5"/>
    <path id="Path_62482" data-name="Path 62482" d="M14.935,22.5H7.16A2.162,2.162,0,0,1,5,20.343V13.432A.432.432,0,0,1,5.432,13H16.663a.432.432,0,0,1,.432.432v6.911A2.162,2.162,0,0,1,14.935,22.5ZM5.864,13.864v6.479a1.3,1.3,0,0,0,1.3,1.3h7.775a1.3,1.3,0,0,0,1.3-1.3V13.864Z" transform="translate(-0.681 -1.769)" fill="#36a071" stroke="#36a071" stroke-width="0.5"/>
  </g>
</svg>
