<svg xmlns="http://www.w3.org/2000/svg" width="15.799" height="18.077" viewBox="0 0 15.799 18.077">
  <g id="Group_24968" data-name="Group 24968" transform="translate(0.25 0.25)">
    <path id="Path_62483" data-name="Path 62483" d="M12.422,11.823a2.87,2.87,0,0,0-2.128.942L5.557,9.832a2.866,2.866,0,0,0,0-2.086l4.737-2.934a2.876,2.876,0,1,0-.553-.891L5,6.854a2.877,2.877,0,1,0,0,3.869l4.737,2.934a2.877,2.877,0,1,0,2.68-1.834ZM10.594,2.877a1.828,1.828,0,1,1,1.828,1.828A1.83,1.83,0,0,1,10.594,2.877Zm-7.717,7.74A1.828,1.828,0,1,1,4.7,8.789a1.83,1.83,0,0,1-1.828,1.828ZM10.594,14.7a1.828,1.828,0,1,1,1.828,1.828A1.83,1.83,0,0,1,10.594,14.7Zm0,0" fill="#36a071" stroke="#36a071" stroke-width="0.5"/>
  </g>
</svg>
