<svg xmlns="http://www.w3.org/2000/svg" width="17.664" height="17.664" viewBox="0 0 17.664 17.664">
  <g id="Group_26" data-name="Group 26" transform="translate(0 0)">
    <path id="Path_30" data-name="Path 30" d="M15.077,11.419a8.8,8.8,0,0,0-3.356-2.105,5.106,5.106,0,1,0-5.778,0A8.846,8.846,0,0,0,0,17.664H1.38a7.452,7.452,0,1,1,14.9,0h1.38a8.774,8.774,0,0,0-2.587-6.245ZM8.832,8.832a3.726,3.726,0,1,1,3.726-3.726A3.73,3.73,0,0,1,8.832,8.832Z" transform="translate(0 0)" fill="#ffb417"/>
  </g>
</svg>
