<svg xmlns="http://www.w3.org/2000/svg" xmlns:xlink="http://www.w3.org/1999/xlink" width="752" height="206" viewBox="0 0 752 206">
  <defs>
    <clipPath id="clip-path">
      <rect id="Rectangle_7972" data-name="Rectangle 7972" width="752" height="206" transform="translate(-0.263 -0.076)" fill="rgba(90,88,77,0.14)"/>
    </clipPath>
  </defs>
  <g id="partnersBg" transform="translate(0.263 0.076)" opacity="0.42" clip-path="url(#clip-path)" style="mix-blend-mode: exclusion;isolation: isolate">
    <path id="Path_62118" data-name="Path 62118" d="M1036.26,237.931V290.7a3.012,3.012,0,0,0,3.155,2.847H1055.9a3.012,3.012,0,0,0,3.155-2.847V237.931a3.012,3.012,0,0,0-3.155-2.847h-16.488A3.018,3.018,0,0,0,1036.26,237.931Z" transform="translate(-333.285 -91.639)" fill="rgba(90,88,77,0.14)" opacity="0.5"/>
    <path id="Path_62119" data-name="Path 62119" d="M969.05,176.726H956.316v-4.844h-20.7v4.844h-6.132v92.168h60.263V171.882h-20.7Z" transform="translate(-298.96 -66.984)" fill="rgba(90,88,77,0.14)" opacity="0.5"/>
    <path id="Path_62120" data-name="Path 62120" d="M54.061,220.162H24.3v55.745H54.061Z" transform="translate(-7.971 -85.818)" fill="rgba(90,88,77,0.14)"/>
    <path id="Path_62121" data-name="Path 62121" d="M1089.225,209.514h-.984v-.895h-1.811V195.948h-1.812v12.671h-20.1V280.47h23.721V225.646h.984Z" transform="translate(-342.37 -76.372)" fill="rgba(90,88,77,0.14)"/>
    <path id="Path_62122" data-name="Path 62122" d="M187.353,154.218H164.561V263.847h22.792Z" transform="translate(-53.059 -60.093)" fill="rgba(90,88,77,0.14)"/>
    <path id="Path_62123" data-name="Path 62123" d="M404.781,145.475H358.564V260.446h46.217Z" transform="translate(-115.426 -56.682)" fill="rgba(90,88,77,0.14)"/>
    <path id="Path_62124" data-name="Path 62124" d="M476.631,195.948H430.414v85.281h46.217Z" transform="translate(-138.523 -76.372)" fill="rgba(90,88,77,0.14)"/>
    <path id="Path_62125" data-name="Path 62125" d="M629.209,95.047h-26.35v146.82h26.35Z" transform="translate(-193.959 -37.01)" fill="rgba(90,88,77,0.14)"/>
    <path id="Path_62126" data-name="Path 62126" d="M878.075,157.834h-16.02v25.035h-9.748v83.492h16.01V241.326h9.758Z" transform="translate(-274.15 -61.504)" fill="rgba(90,88,77,0.14)"/>
    <path id="Path_62127" data-name="Path 62127" d="M707.076,222.333v-7.158h-4.431V209.96h-5.673v-6.733c0-1.826-1.818-3.317-4.078-3.317h-4.2v-12.7h-2.6v-.84c0-1.835-1.823-3.308-4.077-3.308H665.3v-8.984h-5.761V129.712H634.436V211.7H625.28V190.13h-4.007v-4.546a.157.157,0,0,0-.081-.136l-.31-.235.19-2.332a.24.24,0,0,0-.01-.082l-.191-.406v-1.519a.138.138,0,0,0-.01-.063l-.33-.822a.267.267,0,0,0-.271-.135.212.212,0,0,0-.2.2v1.554l-.231.063-.31-.488a.264.264,0,0,0-.271-.1.211.211,0,0,0-.191.19v.967l-.651.1h-.771V166.623a.226.226,0,0,0-.241-.2h-.13a.2.2,0,0,0-.05-.073l-.341-.334v-.606a.225.225,0,0,0-.241-.2H616.3a.235.235,0,0,0-.25.2v.542l-.05.037v-5.143a.2.2,0,0,0,.05-.127v-5a.164.164,0,0,0-.05-.118v-1.048a.207.207,0,0,0-.04-.109l-.321-.37-.52-1.184a.251.251,0,0,0-.241-.135.239.239,0,0,0-.221.145l-.23.687-1.623-3.181v-1.148a.238.238,0,0,0-.02-.081l-.381-.687v-1.085a.21.21,0,0,0-.11-.162l-.361-.19v-.569a.164.164,0,0,0-.02-.073l-.381-.732v-1.193a.226.226,0,0,0-.241-.2h-.4a.226.226,0,0,0-.241.2v1.446l-.25.479a.193.193,0,0,0-.02.073v.569l-.351.19a.188.188,0,0,0-.111.162v1.085l-.381.687a.256.256,0,0,0-.02.081v1.121l-.01.009-1.6,3.244-.251-.723a.237.237,0,0,0-.22-.145.255.255,0,0,0-.241.135l-.521,1.184-.31.371a.161.161,0,0,0-.04.109v2.052a.153.153,0,0,0-.02.072v.931a.192.192,0,0,0,.02.072v.985a.156.156,0,0,0-.02.073v.931a.241.241,0,0,0,.02.082v.614a.156.156,0,0,0-.02.073v5.54l-.03-.027v-.542a.226.226,0,0,0-.241-.2h-.33c-.13,0-.24,19.694-.24,19.8v.606l-.341.334a.194.194,0,0,0-.05.073h-.13a.218.218,0,0,0-.24.2v15.716h-1.143l-.28-.045v-1.021a.21.21,0,0,0-.191-.19.247.247,0,0,0-.27.1l-.3.488-.241-.063v-1.564a.212.212,0,0,0-.2-.2.268.268,0,0,0-.271.136l-.331.822a.139.139,0,0,0-.01.063V202l-.19.407a.124.124,0,0,0-.02.082l.06.732-5.27-1.058-3.7.814V196.2H580.215v-7.646a.174.174,0,0,0-.09-.154h-.01V170.952h1.693V125H560.979v41.439h-12v25.929H542v6.553h-5.951v-2.033l-3.076-.542V173.718l-1.763.244v-19.3h-2.6V146.65l-7.574-6.146v43.752h-4.148v-10.71h.02V144.715h-4.829V144.4a.173.173,0,0,0-.09-.154l-1.072-.678v-2.54a.183.183,0,0,0-.08-.145l-.872-.642v-2.729a.14.14,0,0,0-.03-.09l-.531-.8v-2.549a3.538,3.538,0,0,0-.441-1.094c-.12-2.766-.311-7.51-.441-10.963l-.03-2.224a.313.313,0,0,0-.05-.154c-.01-.37-.02-.7-.03-.976v-.8l-.01-.145h-.721v.967c-.05,2.675-.391,10.655-.551,14.487a3.6,3.6,0,0,0-.341.922v2.548l-.531.8a.167.167,0,0,0-.03.091v2.729l-.872.642a.2.2,0,0,0-.08.145v2.54l-1.082.678a.184.184,0,0,0-.09.154v.317h-4.288V159.4a10.168,10.168,0,0,0-.221,1.347h-.06a.219.219,0,0,0-.241.2V163.1H487.05v20.941h-6.2l-1.152-6.924a.187.187,0,0,0-.05-.081l-.07-.063-.05-.289-.782-.705h-.24l-.862-.8L477,160.667a.163.163,0,0,0-.08-.117.221.221,0,0,0-.17-.009l-8.576,3.064v-.281h-.01l-.481-22.034a.186.186,0,0,0-.36-.009l-1.032,23.977L459.9,175.29a.126.126,0,0,0-.02.054l-1.673,13.421H454.68V193.9H427.729V116.165h-13.6v48.814H402.712v-4.464H391.681L391.04,138.6h.02v-.2h-.02l-1.031-35.411.01-.253H385.48V95.477H367.425v7.257h-2.354l-1.092,37.6h-.41v1.654h-2.906v-1.654h-.491v1.654h-2.905v-1.654h-.491v1.654H353.87v-1.654h-.5v1.654h-.991V134.71c0-1.835-1.824-3.308-4.088-3.308H336.017c-2.255,0-4.088,1.483-4.088,3.308v24.619h-.261v-5.595c0-.108-.11-.19-.25-.19h-.14v-1.88a.218.218,0,0,0-.24-.19v46.59h-16.02V132.171h-9.868v30.25h-10.43V147.408H278.7v17.778h.531v15.961H235.939v5.459h-1.593v-3.552a.335.335,0,0,0-.361-.3H232.9v-1.608h-3.3v1.608h-1.183a.335.335,0,0,0-.36.3v3.552h-5.1a.328.328,0,0,0-.36.289v4.591a.334.334,0,0,0,.36.3h.561V193.2h-.561a.334.334,0,0,0-.36.3v14.334l-1.092-1.9v-8.4h-.271v-1.256l-6.893-5.6-1.563,1.274-.841-.678-.641-.524v-2.476h-2.334v-2.016h-2.415V179.5H204.51l-.06,13.213H197.9v25.369l-4.839,1.9-3.216-4.619v-6.417l-12.554-6.326v-16.63a.219.219,0,0,0-.24-.19h-.481v-4.708a.186.186,0,0,0-.07-.136.238.238,0,0,0-.24-.162h-.8v-.886a.168.168,0,0,0-.03-.1l-3.526-5.016V148.2H136.111v35.6l-.591-.85V233.16l-4.528-25.3V197.216a3.487,3.487,0,0,0,.431-1.681c0-2.142-1.983-3.913-4.539-4.166l-.19-2.657h-.832l-.19,2.648c-2.384.217-4.278,1.735-4.569,3.66h-1.253v4.808H118.2v8.026l-10.68,25.3V210.439h-1.984V172.886h-.581v-.668c0-1.826-1.833-3.308-4.087-3.308h-6.8c-2.254,0-4.078,1.482-4.078,3.308v.668H88.743l-1.552,44.15c-.591-.832-.291,0-.291,0v3.7l-1.813-1.474H81.85v2.205H32.527v20.38H84.775v.036h18.164v.045h15.98v-.045h35.787a.216.216,0,0,0,.21.136h26.51a.219.219,0,0,0,.21-.136h14.227v.136H241l2.665.009-.01-.009h.741a.4.4,0,0,0,.3-.136h21.952v.027h9.808a.16.16,0,0,0,.16.109h59.111v-.054h.09v-.027c.02-.009.02-.036.031-.063h3.827a.312.312,0,0,0,.271.135h20.207a.312.312,0,0,0,.271-.135H361.6a.43.43,0,0,0,.321.135h31.269a.43.43,0,0,0,.321-.135h2.324v.135h20.769v-.135h3.757a.164.164,0,0,0,.181.135h32.461c.01,0,.01-.009.02-.009h2.966c.01,0,.01.009.02.009h29.606a.161.161,0,0,0,.17-.135h5.922a.216.216,0,0,0,.21.135H595.654a.172.172,0,0,0,.181-.135h5.25a.224.224,0,0,0,.21.126h14.287a.065.065,0,0,0,.04.009h1.753a.1.1,0,0,0,.05-.009h3.587a.223.223,0,0,0,.21-.126h24.957v.813h32.36l10.129-.813h18.367v-.9H739.1V222.324h-32.02Z" transform="translate(-10.615 -37.178)" fill="rgba(90,88,77,0.14)"/>
    <path id="Path_62128" data-name="Path 62128" d="M1011.472,251.12l.109-6.326-8.393-1.356v-9.065h-1.506v8.794l-7.342,1.627v6.326h-2.531v11.7H960.566v32.148h31.242v.967h23.5V251.12Z" transform="translate(-308.952 -91.362)" fill="rgba(90,88,77,0.14)"/>
    <path id="Path_62129" data-name="Path 62129" d="M637.619,239.448V168.97h-1.262v-9.652h-4.93V153.66h-10.96V141.3h-1.132V153.66H616.76v13.665h-.972v1.645H611.6l-1.623,70.478h-13.3v20.461H643.29V239.448Z" transform="translate(-191.97 -55.052)" fill="rgba(90,88,77,0.14)"/>
    <path id="Path_62130" data-name="Path 62130" d="M581.164,127.181l.03-.244h-.13V127l.05.072A.22.22,0,0,1,581.164,127.181Z" transform="translate(-186.953 -49.451)" fill="rgba(90,88,77,0.14)"/>
    <path id="Path_62131" data-name="Path 62131" d="M155.948,182.589v-10.05h-2.4v-12.2H145.8v-6.814h-3.206V136.658h-2.134v16.865h-2.4v6.814h-2.4v97.609h15.489v.362h3.737v.362h2.665V182.589Z" transform="translate(-43.765 -53.243)" fill="rgba(90,88,77,0.14)"/>
    <path id="Path_62132" data-name="Path 62132" d="M74.26,248.766v-2.892H70.783v-1.2H68.92v1.2H67.848v-1.2h-1.6v1.2H64.912v-1.2H63.039v1.2H61.977v-1.2H60.1v1.2H59.031v2.892H58.5v52.763H89.208V248.766Z" transform="translate(-18.964 -95.38)" fill="rgba(90,88,77,0.14)"/>
    <path id="Path_62133" data-name="Path 62133" d="M1050.273,270.723H1024.95v39.586h25.323Z" transform="translate(-329.649 -105.542)" fill="rgba(90,88,77,0.14)"/>
    <path id="Path_62134" data-name="Path 62134" d="M252.85,220.672v-.037h-2.806V121.662h-.07l-.02-.018a.382.382,0,0,0-.04-.1l-.2-.307h.09V120.6h-.511l-.591-.913a.41.41,0,0,0-.341-.181l-18.736.009v-2.3c.221,0,.4-.118.4-.317s-.18-.316-.4-.316v-.425a.439.439,0,0,0,.4-.424.446.446,0,0,0-.4-.425v-18.7c0-.2-.25-.361-.471-.361s-.471.163-.471.361v17.823h-.541a.384.384,0,0,0-.4.362V119.7H226.02a.375.375,0,0,0-.391.362v97.826H209.378a.383.383,0,0,0-.4.361v14.235h-3.116a.384.384,0,0,0-.4.362v7.465h.04a.4.4,0,0,0,.361.216h43.762a.4.4,0,0,0,.281-.126.291.291,0,0,0,.06-.09h2.7a.384.384,0,0,0,.4-.362V221A.307.307,0,0,0,252.85,220.672Z" transform="translate(-66.208 -37.479)" fill="rgba(90,88,77,0.14)"/>
    <path id="Path_62135" data-name="Path 62135" d="M486.768,199.129a.454.454,0,0,0-.11-.217v-2.35a.511.511,0,0,0-.531-.479h-.191a14.916,14.916,0,0,0-5.44-11.8h.02v-.488h-.661a1.2,1.2,0,0,0-.14-.09v-1.347h.271v-.479h-.271v-8.188h.271v-.479h-.271v-.723h-.521l-.009-11.795-.271-.009v-6.019H477.3v6.019l-.241.018.02,11.794h-.571v.723h-.27v.479h.27v8.188h-.27v.479h.27v.913a12.847,12.847,0,0,0-3.6,2.982,15.47,15.47,0,0,0-3.436,9.852.5.5,0,0,0-.451.46v2.648a.545.545,0,0,0,.04.181c.01.018.02.027.03.045a.26.26,0,0,0,.08.1.174.174,0,0,0,.05.036.6.6,0,0,0,.1.063.525.525,0,0,0,.071.027.151.151,0,0,0,.06.018c.882.4,4.529,3.7,4.218,12.255-.02.56-.05,1.22-.081,1.971h-.821a.51.51,0,0,0-.531.479v1.69a.5.5,0,0,0,.531.479h.691c-.421,8.487-1.342,24.249-2.675,45.506l-.07,1.2a.467.467,0,0,0,.14.361.545.545,0,0,0,.391.145h13.185a.587.587,0,0,0,.391-.145.454.454,0,0,0,.14-.361c-.08-1.175-1.943-32.284-2.635-46.708h1.383a.51.51,0,0,0,.531-.479v-1.69a.5.5,0,0,0-.531-.479h-1.5c-.031-.732-.06-1.392-.08-1.971-.321-8.757,3.526-12,4.3-12.274A.479.479,0,0,0,486.768,199.129Z" transform="translate(-150.936 -60.267)" fill="rgba(90,88,77,0.14)"/>
    <path id="Path_62136" data-name="Path 62136" d="M1053.861,151.953a11.843,11.843,0,0,0-2.171-.172,14.144,14.144,0,0,0-3.861.525V135.594a.576.576,0,0,0-.611-.551h-1.941a.584.584,0,0,0-.611.551v18.094a10.52,10.52,0,0,0-1.052.732,5.129,5.129,0,0,0-.543.479,5.8,5.8,0,0,0-.468.524c0,.009-.013.009-.013.009-.156.208-.319.425-.468.66a6.94,6.94,0,0,0-.482-.669,5.049,5.049,0,0,0-.482-.524,5.152,5.152,0,0,0-.543-.479,12.032,12.032,0,0,0-3.678-1.943V135.594a.576.576,0,0,0-.611-.551h-1.941a.58.58,0,0,0-.611.551v16.25c-.461-.036-.9-.054-1.3-.054a12.405,12.405,0,0,0-2.246.18.557.557,0,0,0-.468.534V255.328a.58.58,0,0,0,.611.551h11.467a.708.708,0,0,0,.346-.09h.427a.7.7,0,0,0,.339.09h10.816a.58.58,0,0,0,.611-.551V152.5A.642.642,0,0,0,1053.861,151.953Z" transform="translate(-331.196 -52.613)" fill="rgba(90,88,77,0.14)"/>
    <path id="Path_62137" data-name="Path 62137" d="M986.462,234.927l-1.813-8.162,1.683-3.886a.435.435,0,0,0,.02-.316l-1.513-4.347.752-4.6a.176.176,0,0,0,.01-.072V201.406a.51.51,0,0,0-.531-.479h-24.4a.51.51,0,0,0-.531.479V213.67l-.962,4.582a.564.564,0,0,0,.01.226l1.3,4.04-1.673,3.868a.411.411,0,0,0-.02.289l2.284,8.252-1.6,4.763a.627.627,0,0,0-.02.145v43.31a.471.471,0,0,0,.16.343.551.551,0,0,0,.381.135l7.775-.036a.576.576,0,0,0,.21.036h.15l7.775-.036a.568.568,0,0,0,.421-.009l8.736-.045a.511.511,0,0,0,.531-.479l-.191-43.354,1.052-4.582A.589.589,0,0,0,986.462,234.927Z" transform="translate(-308.379 -78.314)" fill="rgba(90,88,77,0.14)"/>
    <path id="Path_62138" data-name="Path 62138" d="M787.815,151.907l-3.456-4.1a.331.331,0,0,0-.12-.109l-4.428-2.666a.481.481,0,0,0-.281-.081l-1.5.009v-.162h.161a.474.474,0,0,0,.5-.452v-2.1a.474.474,0,0,0-.5-.452h-1.593v-2.278a.474.474,0,0,0-.5-.451h-.862v-.525a.457.457,0,0,0,.32-.424V126.33a.473.473,0,0,0-.421-.452l-.07-13.313a.445.445,0,0,0,.2-.362.223.223,0,0,0-.01-.081l-.29-11.713a.486.486,0,0,0-.5-.443h-1.934a.479.479,0,0,0-.5.443l-.29,11.794a.435.435,0,0,0,.14.326l.05.045-.1,13.322a.469.469,0,0,0-.391.443v11.794a.459.459,0,0,0,.24.389l-.01.56h-.591a.48.48,0,0,0-.5.452v2.277h-1.783a.474.474,0,0,0-.5.452v2.1a.48.48,0,0,0,.5.452h.16v.172l-1.282-.009a.506.506,0,0,0-.281.081l-4.428,2.666a.325.325,0,0,0-.12.109l-3.456,4.1a.407.407,0,0,0-.05.479l2.394,4.184a.622.622,0,0,0,.15.163l4.248,2.81a.553.553,0,0,0,.3.09h1v1.329a.473.473,0,0,0,.5.452h.18v2.6a.457.457,0,0,0,.32.425v2.215h-.06a.7.7,0,0,0-.2.036h-2a.54.54,0,0,0-.411.19.451.451,0,0,0-.17.343v2.485a.439.439,0,0,0,.11.289.512.512,0,0,0,.471.281h2.264v4.428a.362.362,0,0,0,.07.226v65.416a.48.48,0,0,0,.5.452h9.728a.474.474,0,0,0,.5-.452v-70.07h2.335a.48.48,0,0,0,.5-.452v-2.7a.487.487,0,0,0-.5-.461h-1.223a.494.494,0,0,0-.2-.036h-.9v-2.232a.454.454,0,0,0,.29-.416v-2.6h.18a.474.474,0,0,0,.5-.452v-1.328h.551a.578.578,0,0,0,.3-.09l4.248-2.811a.5.5,0,0,0,.15-.162l2.395-4.184A.378.378,0,0,0,787.815,151.907Z" transform="translate(-244.243 -38.929)" fill="rgba(90,88,77,0.14)"/>
    <path id="Path_62139" data-name="Path 62139" d="M842.675,83.8a.421.421,0,0,0,.281-.379.428.428,0,0,0-.3-.389l-.01-.28.841-29.346v-.081l-4.4-38.971a.678.678,0,0,0-.681-.56L834,13.78a.54.54,0,0,0-.12.009h-8.946a.665.665,0,0,0-.662.47l-3.076,10.9h-.181l-3.847-10.683a.676.676,0,0,0-.651-.425h-4.208a.673.673,0,0,0-.691.587L807.4,82.784v.063l.02.425a.325.325,0,0,0-.02.217l.04.181,1.643,30.3-1.4,30.123v.054l2.735,63.3-.1.678a.55.55,0,0,0,.16.488.72.72,0,0,0,.511.217h30.8a.657.657,0,0,0,.681-.606l1.032-34.9.19-59.6v-.289Z" transform="translate(-259.71 -5.307)" fill="rgba(90,88,77,0.14)"/>
    <path id="Path_62140" data-name="Path 62140" d="M305.174,200.156a.568.568,0,0,0-.381-.154h-.672a.572.572,0,0,0-.07-.162,10.577,10.577,0,0,0-5.12-3.317l-.01.018a12.6,12.6,0,0,0-2.214-.606.717.717,0,0,1-.591-.632l-1.092-16.531v-.353a.138.138,0,0,0-.03-.081L287.531,65.628a.391.391,0,0,0-.081-.226l-1.372-1.961a.839.839,0,0,1-.121-.307c-.17-1.708-.35-3.182-.541-4.384,0-.027-.01-.063-.01-.09V39.327a.485.485,0,0,0-.4-.461.559.559,0,0,0-.591.244.786.786,0,0,1-1.453-.307L282.612.455a.5.5,0,0,0-.511-.47h-.01a.506.506,0,0,0-.521.443l-3.005,49.256-.05.1a.485.485,0,0,0-.05.208v1.464L277.1,73.716c0,.018-.01.027-.01.046a.031.031,0,0,0,.01.027l-.03.443a.73.73,0,0,1-.761.651h-1.1a.508.508,0,0,0-.5.343.455.455,0,0,0,.221.525,11.268,11.268,0,0,1,1.292.84,3.389,3.389,0,0,1,.341.3.666.666,0,0,1,.2.515l-6.092,75.259c0,.009-.01.018-.01.036v.054l-2.014,24.926a.153.153,0,0,0-.071.118v.75l-1.342,16.548a.717.717,0,0,1-.582.623,18.846,18.846,0,0,0-2.4.66.065.065,0,0,1-.04.009,12.341,12.341,0,0,0-6.012,3.425.349.349,0,0,0-.09.19h-1.071a.519.519,0,0,0-.381.163.369.369,0,0,0-.25.317v1.726a.346.346,0,0,0,.241.307.54.54,0,0,0,.391.163h47.76a.518.518,0,0,0,.381-.163c.16-.063.28-.163.28-.317v-1.726C305.454,200.319,305.334,200.219,305.174,200.156Z" transform="translate(-82.584 0.074)" fill="rgba(90,88,77,0.14)"/>
    <path id="Path_62141" data-name="Path 62141" d="M937.368,262.631a.644.644,0,0,0-.621-.407h-2.234v-1.9h1.5a.639.639,0,0,0,.641-.5.58.58,0,0,0-.451-.642l-20.739-5.649c-.02-.009-.03-.027-.05-.036a.688.688,0,0,0-.5-.109.709.709,0,0,0-.5.109.193.193,0,0,1-.05.036l-20.739,5.649a.582.582,0,0,0-.451.642.63.63,0,0,0,.641.5h2.094v1.9h-3.557a.63.63,0,0,0-.621.416c-.031.1-.752,2.358,2.5,4.067,1.493.777,4.328,2.007,7.073,3.19,2.515,1.084,4.889,2.115,5.721,2.576,1.463.823,1.463,2.874,1.463,7.375v23.011a.621.621,0,0,0,.651.587h10.81a.621.621,0,0,0,.651-.587V279.848c0-3.5,0-5.6.732-6.706a2.066,2.066,0,0,1,.731-.669c1.032-.578,4.238-1.988,7.324-3.335,2.094-.912,4.077-1.78,5.44-2.413C937.538,265.46,937.669,263.49,937.368,262.631Z" transform="translate(-286.795 -98.779)" fill="rgba(90,88,77,0.14)"/>
    <path id="Path_62142" data-name="Path 62142" d="M183.842,215.872h-.05V204.765H182.71v.777h-3.015v-.777h-1.513v.777h-2.805v-.777h-1.513v.777h-3.026v-.777h-1.512v.777H166.52v-.777H164.8v.777h-2.585v-.777h-1.723v.777h-2.805v-.777h-1.512v3.307h-1.263L151.9,190.521a.477.477,0,0,0-.511-.353H128.719a.488.488,0,0,0-.511.389l-2.956,17.877a.427.427,0,0,0,.06.289v68.064a.616.616,0,0,0,.531.587h35.206a.493.493,0,0,0,.381-.226h22.4a.494.494,0,0,0,.521-.47V216.342A.485.485,0,0,0,183.842,215.872Zm-41.869-22.053c.08,0,.15.009.23.009a4.107,4.107,0,0,1,1.643.651l.05.28.25-.036V194.7a5.857,5.857,0,0,1,2.154,4.564,6.227,6.227,0,0,1-1.032,3.353h-.01v.009a4.186,4.186,0,0,1-3.427,2.033.638.638,0,0,0-.181.036c-3.346-.145-6.021-2.521-6.021-5.432C135.632,196.269,138.477,193.819,141.974,193.819Zm40.736,13.087v8.965h-3.015v-8.965Zm-4.529,0v8.965h-2.805v-8.965Zm-4.318,0v8.965h-3.026v-8.965Zm-4.538,0v8.965H166.52v-8.965Zm-4.529,0v8.965h-2.585v-8.965Zm-7.124,0h2.806v1.165h-2.806Z" transform="translate(-40.421 -74.117)" fill="rgba(90,88,77,0.14)"/>
    <path id="Path_62143" data-name="Path 62143" d="M74.629,294.418H13.334v25.134H74.629Z" transform="translate(-4.444 -114.786)" fill="rgba(90,88,77,0.14)"/>
    <path id="Path_62144" data-name="Path 62144" d="M449.539,223.639h-4.578v-4.591c0-1.048-.8-1.672-2.134-1.672H418.761a1.733,1.733,0,0,0-1.833,1.672v4.591h-3.437c-1.312,0-1.9.84-1.9,1.437v12.771c0,.623.812,1.22,1.432,1.22h2.044v48.886a1.328,1.328,0,0,0,1.273,1.22h29.745c.622,0,1.032-.488,1.032-1.22V239.066h2.435c.622,0,1.032-.488,1.032-1.22V225.076C450.571,224.38,450.251,223.639,449.539,223.639Zm-32.611,13.493a.577.577,0,0,1-.4,0Z" transform="translate(-132.471 -84.731)" fill="rgba(90,88,77,0.14)"/>
    <path id="Path_62145" data-name="Path 62145" d="M124.718,253.069c-1.042-3.254-4.8-19.45-4.839-19.612a.333.333,0,0,0-.311-.244c-.02-.072-.03-.117-.03-.117h-.331s-.17-.56-.451-1.681h-.942c-.05-.226-.11-.506-.17-.8s-.13-.6-.191-.886h.892q-.181-.841-.391-1.681h-.892c0-.018-.01-.036-.01-.063-.111-.506-.241-1.039-.361-1.617h.892q-.165-.841-.36-1.681h-.892c0-.018-.01-.036-.01-.063-.11-.515-.221-1.058-.341-1.618h.892q-.165-.841-.33-1.681h-.892c0-.018-.01-.036-.01-.054l-.12-.632c-.06-.326-.12-.651-.191-.995h.892c-.1-.56-.21-1.12-.31-1.681h-.892a.4.4,0,0,0-.009-.045c-.1-.533-.191-1.075-.291-1.636h.892c-.1-.561-.191-1.121-.291-1.681h-.892l-.01-.045c-.071-.407-.14-.814-.211-1.239l-.06-.388h.892l-.271-1.681h-.881l-.271-1.681h.892c-.09-.56-.17-1.121-.261-1.681h-.892l-.01-.045c-.06-.379-.111-.768-.17-1.166l-.071-.47H114l-.24-1.681h-.9l-.09-.6q-.075-.543-.15-1.084h.892c-.08-.561-.151-1.121-.231-1.681h-.892a.049.049,0,0,0-.01-.036q-.074-.583-.15-1.166l-.06-.479h.892c-.07-.56-.15-1.121-.22-1.681h-.882l-.09-.678-.12-1h.892c-.03-.28-.06-.506-.09-.759-.04-.307-.07-.642-.11-.922h-.892V194.4c-.06-.551-.12-1.1-.17-1.654h.892q-.091-.841-.151-1.681h-.892v-.018c-.05-.561-.09-1.112-.13-1.663h.892c-.04-.56-.07-1.12-.11-1.681h-.892v-.018c-.03-.56-.06-1.112-.08-1.663h.892q-.031-.841-.06-1.681h-.892v-.009c-.01-.542-.02-1.084-.03-1.618v-.054h.892c-.01-.56-.01-1.12-.01-1.681H110.8c0-.56,0-1.13.01-1.681h.892q0-.841.03-1.681h-.892c.01-.56.031-1.12.05-1.672v-.009h.892c.02-.561.04-1.12.071-1.681h-.892c.02-.561.05-1.112.09-1.663v-.018h.892c.031-.561.071-1.121.111-1.682h-.892c.04-.56.08-1.111.13-1.663v-.018h.892q.075-.841.15-1.681h-.892c.05-.56.111-1.112.17-1.654v-.027h.892c.06-.56.12-1.121.191-1.681H111.8c.07-.561.13-1.1.21-1.645v-.036h.892c.07-.56.15-1.121.231-1.681h-.892c.081-.588.161-1.139.251-1.636a.079.079,0,0,1,.009-.045h.892l.271-1.681h-.892c.09-.569.191-1.112.28-1.627v-.027a.03.03,0,0,1,.01-.027h.892a4.385,4.385,0,0,1,.08-.434c.081-.416.161-.967.241-1.247h-.922c.111-.579.221-1.112.331-1.618,0-.027.009-.045.009-.063h.892c.13-.56.25-1.12.37-1.681h-.892c.14-.615.27-1.148.381-1.6v-.018c.01-.018.02-.045.03-.063h.862a2.042,2.042,0,0,0,.05-.208c.16-.651.27-1.084.341-1.311.03-.117.05-.171.05-.171h-6.532c0-.2,0-.4-.01-.6h.04v-.208h-.03v-.09c0-.181.009-.362.009-.543h.031v-.207h-.031c0-.208.01-.425.01-.633h.01v-.208h-.01c.1-4.148.271-8.531.37-11.017.071-1.229.121-2,.121-2.024a.316.316,0,0,0-.2-.307L99.24,127.379a.386.386,0,0,0-.3.009.337.337,0,0,0-.18.217c-.01.018-.1.46-.271,1.283h-.08v.208h.04c-.21,1.03-.5,2.585-.841,4.663l-1.723-.542v-.163h-.23v.091l-2.565-.8v-.136h-.23v.063l-1.563-.488a.376.376,0,0,0-.311.036.319.319,0,0,0-.15.253c0,.208-.08,19.431.441,37.164h-.02v.208h.02c.01.207.01.424.02.632h-.04v.208h.05c.01.208.01.424.02.632h-.07v.208h.08c.01.208.01.424.02.632h-.1v.208h.1c.01.208.01.424.02.632h-.12v.208h.13c.02.6.04,1.193.06,1.78.11,2.856.25,5.938.421,9.111v.036c.01.208.02.424.03.632h-.04v.208h.05c.962,17.7,2.615,37.868,2.635,38.113,0,.009.01.018.01.036v.3c.01.569.02,1.13.04,1.681v.063c.01.542.02,1.075.04,1.617.01.307.02.615.03.913l.17,4.781c.01.362.03.732.05,1.084.311,6.824.741,12.373,1.062,15.862v3.687h.23v-1.256c.1,1.012.16,1.572.17,1.591a.328.328,0,0,0,.341.28l27.692.181a.329.329,0,0,0,.341-.316A.1.1,0,0,0,124.718,253.069Zm-32.04-67.648c.02.208.03.425.05.632h-.01C92.7,185.837,92.688,185.629,92.678,185.421Zm.441,6.516h-.03v-.389C93.1,191.675,93.109,191.811,93.119,191.937Zm.12,1.682h-.07c-.01-.208-.03-.425-.04-.633h.07C93.209,193.193,93.219,193.41,93.239,193.618Zm-.15-1.474h.04c.01.208.03.425.04.632H93.1c-.01-.108-.01-.207-.02-.316v-.317Zm.09,1.681h.08c.02.208.03.425.05.633h-.09C93.2,194.251,93.189,194.034,93.179,193.826Zm.05.841h.08c.02.207.03.424.05.632h-.09C93.259,195.091,93.239,194.874,93.229,194.667Zm.06.84h.09c.02.208.03.424.05.632h-.1C93.309,195.932,93.3,195.715,93.289,195.507Zm-.561-9.246h.01c.01.208.03.425.04.632h-.02C92.748,186.677,92.738,186.469,92.728,186.261Zm.04.84h.02c.01.208.03.425.04.633h-.02C92.8,187.527,92.788,187.31,92.768,187.1Zm.05.84h.03c0,.073.01.145.01.217v.416C92.848,188.358,92.828,188.15,92.818,187.942Zm.621,8.406c.11,1.491.23,2.973.341,4.438.03,1.193.06,2.35.09,3.461-.18-2.521-.361-5.179-.531-7.9Zm-.832-12.1a.462.462,0,0,0,.01.117A.5.5,0,0,0,92.608,184.246Zm.02.334c.01.208.03.424.04.632h-.01C92.658,185,92.638,184.788,92.628,184.58Z" transform="translate(-29.357 -49.613)" fill="rgba(90,88,77,0.14)"/>
    <path id="Path_62146" data-name="Path 62146" d="M72.88,282.373v-.036H64.334v.723h-.751v-13.7h-.06v-.036h-1.8v-6.95h-.06v-.036h-.531v6.986H53.444v-1.166h-.06v-.036H50.037v.036H50l-.02.217a16.036,16.036,0,0,1-.691,2.883H39.3v-2.621h-.06V268.6H32.685l-.01.037h-.04l-.07.135a37.344,37.344,0,0,0-3.256,15.6,54.109,54.109,0,0,0,1.924,14.822h-1.1v7.23h.06v.036h41.4v-6.742H72.92V282.373Zm-10.42-11.117H54.506v-.931h7.955Zm-10.71,0H49.867a12.352,12.352,0,0,0,.541-2.052Zm1.1-2.621v1.057c0,.027,0,.145-.01.353-.04.289-.12.7-.23,1.2h-.17l-1.7-2.612Z" transform="translate(-9.58 -102.27)" fill="rgba(90,88,77,0.14)"/>
    <path id="Path_62147" data-name="Path 62147" d="M209.624,284.315v-.859a.369.369,0,0,0-.02-.1.391.391,0,0,0-.381-.271.383.383,0,0,0-.4.361.244.244,0,0,0-.02-.09.4.4,0,0,0-.381-.271.383.383,0,0,0-.4.361.243.243,0,0,0-.02-.09.4.4,0,0,0-.381-.271.384.384,0,0,0-.4.361.243.243,0,0,0-.02-.09.391.391,0,0,0-.381-.271.384.384,0,0,0-.4.361.373.373,0,0,0-.02-.1.391.391,0,0,0-.381-.271.383.383,0,0,0-.4.361v-9.264a.244.244,0,0,0-.02-.09.009.009,0,0,0-.009-.009.166.166,0,0,0-.05-.063l.24-.85a.246.246,0,0,0,.1-.19v-1.2a.25.25,0,0,0-.271-.235h-.531V260.69a.285.285,0,0,0-.02-.09l.481-1.925a.243.243,0,0,0,.07-.154c0-.018-.01-.036-.01-.054l.181-.714a.232.232,0,0,0,.1-.19v-1.69a.257.257,0,0,0-.271-.244h-.531v-3.371a.257.257,0,0,0,.27-.244v-1.69a.25.25,0,0,0-.27-.235h-.111l-.431-.262v-1.672a.254.254,0,0,0-.02-.09,1.919,1.919,0,0,0-1.253-1.03c-.16-2.91-.421-2.91-.671-2.91a.332.332,0,0,0-.221.081c-.07.073-.3.271-.271,2.829a1.431,1.431,0,0,0-1.032,1.075.394.394,0,0,0-.01.045v1.672l-.731.307a.238.238,0,0,0-.151.271.257.257,0,0,0,.08.127v1.509a.257.257,0,0,0,.271.244v3.371H200a.257.257,0,0,0-.27.244v1.789a.139.139,0,0,0,.01.063l.961,3.027a.222.222,0,0,0,.1.126v10.647h-.271a.257.257,0,0,0-.271.235v.994a.569.569,0,0,0-.09.063.23.23,0,0,0-.05.208l.4,1.364v8.7a.659.659,0,0,0-.13-.027.388.388,0,0,0-.391.307.137.137,0,0,1-.03-.036v-.009a.379.379,0,0,0-.24-.244c-2.084-2.178-8.716-8.306-17.633-8.757V274.3l-.421.018s-.15.009-.24.009c-.11,0-.25-.009-.261-.009h-.421v.037c-9.077.47-15.77,6.805-17.713,8.875a.412.412,0,0,0-.311-.145.384.384,0,0,0-.4.361.243.243,0,0,0-.02-.09.4.4,0,0,0-.381-.271.384.384,0,0,0-.4.361.373.373,0,0,0-.02-.1.4.4,0,0,0-.381-.271.383.383,0,0,0-.4.361.351.351,0,0,0-.02-.1.4.4,0,0,0-.381-.271.383.383,0,0,0-.4.362.341.341,0,0,0-.02-.1.4.4,0,0,0-.381-.271.384.384,0,0,0-.4.362.345.345,0,0,0-.02-.1.391.391,0,0,0-.381-.271.384.384,0,0,0-.4.362.369.369,0,0,0-.02-.1.4.4,0,0,0-.381-.271.384.384,0,0,0-.4.362.346.346,0,0,0-.02-.1.4.4,0,0,0-.381-.271.383.383,0,0,0-.4.361.351.351,0,0,0-.02-.1.4.4,0,0,0-.381-.271.384.384,0,0,0-.4.362.34.34,0,0,0-.02-.1.4.4,0,0,0-.381-.271.384.384,0,0,0-.4.362.364.364,0,0,0-.02-.1.4.4,0,0,0-.381-.271.384.384,0,0,0-.4.362.345.345,0,0,0-.02-.1.4.4,0,0,0-.381-.271.384.384,0,0,0-.4.362.345.345,0,0,0-.02-.1.391.391,0,0,0-.381-.271.384.384,0,0,0-.4.362.243.243,0,0,0-.02-.09.391.391,0,0,0-.381-.271.384.384,0,0,0-.4.362v1.337h.271v13.358h57.668V284.315Zm-5.6-28.668h-.531v-3.371h.531Zm-1.072-3.371v3.371h-.27v-3.371Zm-.8,0v3.371h-.531v-3.371Z" transform="translate(-48.991 -95.165)" fill="rgba(90,88,77,0.14)"/>
    <path id="Path_62148" data-name="Path 62148" d="M383.041,237.69l-.421-1.925a.518.518,0,0,0-.08-.19l-1.613-2.232V219.921a.556.556,0,0,0-.582-.524h-2.515v-1.22a.556.556,0,0,0-.581-.525h-6.082a47.682,47.682,0,0,0,1.152-15.418c-.791-6.562-4.288-13.033-7.274-15.437-.1-.081-.2-.154-.29-.226l-.12-3.19q.1-.163.3-.515a56.5,56.5,0,0,0,7.394-27.2c0-13.331-5.25-16.928-7.2-17.8,1.322-2.007,5.711-9.192,5.791-16.376.1-8.306-1.774-10.692-5.781-13.846-.07-.054-.13-.109-.2-.154-3.106-2.476-6.212-5.359-7.033-8.432a7.889,7.889,0,0,1-.211-.912c-.02-.208-.08-.416-.08-.615V88.755a.584.584,0,0,0-1.162,0V96.5a.444.444,0,0,0-.05.2c0,.018-.04.668-.2,1.744a38.845,38.845,0,0,0-7.323,12.716,2.882,2.882,0,0,0-1.112.732,1.7,1.7,0,0,0-.351,1.464l.07.245a1.155,1.155,0,0,0,.06.135.358.358,0,0,0,.151.145l.23.28c-.23.84-.451,1.708-.641,2.612h-2.855a.6.6,0,0,0-.511.28c-.06.091-5.41,9.147-5.41,19.6a35.291,35.291,0,0,0,.881,7.538c.822,6.878,2.735,10.4,4.358,12.21.231.461.411.8.521,1.012-.832,1.672-5.571,11.568-5.571,20.281v.551c0,8.911,0,15.97,6.141,22.911-.08.19-.2.479-.35.823-.451,1.039-1.2,2.784-2.264,5.368-.8,1.952-2.655,8.459-3.136,10.158h-5.23a.554.554,0,0,0-.581.506l-.03,1.022-2.314-.027a.6.6,0,0,0-.421.154.5.5,0,0,0-.17.371v15.075l-.852.967a.62.62,0,0,0-.1.171l-.651,1.88a.454.454,0,0,0,.09.47.6.6,0,0,0,.471.217h53.19a.6.6,0,0,0,.451-.19A.543.543,0,0,0,383.041,237.69Zm-27.271-136.8a33.56,33.56,0,0,1-2.614,7.674c-.361.723-.641,1.292-.9,1.771-.651.09-1.253.2-1.783.326A41.379,41.379,0,0,1,355.769,100.892Zm-6.812,14.56.09.109c-.06.1-.13.208-.191.317C348.887,115.742,348.917,115.6,348.957,115.452Zm15.6-3.551a2.354,2.354,0,0,0-.782-.57,15.707,15.707,0,0,0-6.723-1.2h-1.663q-.871,0-1.653.054c.18-.353.37-.741.591-1.2a34.959,34.959,0,0,0,2.785-8.441c.841,2.079,2.615,4.5,6.292,7.275.18.135.36.28.541.424.02.009.03.027.05.036.15.127.3.244.441.371a14.124,14.124,0,0,1,5.049,8.487h-6.722v-.94l2.044-2.712a.619.619,0,0,0,.06-.109A1.609,1.609,0,0,0,364.556,111.9Z" transform="translate(-105.828 -34.351)" fill="rgba(90,88,77,0.14)"/>
    <path id="Path_62149" data-name="Path 62149" d="M748.253,197.173c-.381-1.473-.761-2.956-1.142-4.428,4.859-18.745,4.448-40.2,4.448-40.408,0-.037-.01-.082-.01-.118v-1.654a.425.425,0,0,0-.441-.4h-1.4a.428.428,0,0,0-.451.4v.786l-27.381-.009v-.786a.425.425,0,0,0-.44-.4H720.05a.419.419,0,0,0-.441.4v2.386a.329.329,0,0,0,.031.136A224.411,224.411,0,0,0,723.456,192a.416.416,0,0,0,0,.154c.01.027.08.353.221.94.02.081.03.163.05.244a.239.239,0,0,0-.02.081c-5.641,22.125-3.847,54.634-1.633,67.125a1.083,1.083,0,0,0,1.1.84h.01l24.6-.135a1.072,1.072,0,0,0,1.092-.84C749.515,256.751,755.036,223.772,748.253,197.173Z" transform="translate(-231.491 -58.509)" fill="rgba(90,88,77,0.14)"/>
    <path id="Path_62150" data-name="Path 62150" d="M691.011,81.686a.466.466,0,0,0-.381-.027l-7.975,3.236a.358.358,0,0,0-.231.325v3.037H679.71V76.6a.384.384,0,0,0-.4-.361h-.1v-3.6a.388.388,0,0,0-.27-.343V64.008a.384.384,0,0,0-.4-.361h-.451a.384.384,0,0,0-.4.361V72.3a.358.358,0,0,0-.271.343v3.6h-.1a.384.384,0,0,0-.4.361V88.274H674.47V76.6a.383.383,0,0,0-.4-.361h-.1v-3.6a.388.388,0,0,0-.271-.343V64.008a.383.383,0,0,0-.4-.361h-.451a.383.383,0,0,0-.4.361V72.3a.358.358,0,0,0-.271.343v3.6h-.1a.383.383,0,0,0-.4.361V88.274h-3.016V85.238a.354.354,0,0,0-.24-.325l-7.975-3.236a.466.466,0,0,0-.381.027.353.353,0,0,0-.18.3V228.244a.384.384,0,0,0,.4.362h1.784a.444.444,0,0,0,.24.081h26.5a.419.419,0,0,0,.24-.081h1.743a.384.384,0,0,0,.4-.362V81.993A.369.369,0,0,0,691.011,81.686Zm-8.6,25.387h-.892v-2.079a.384.384,0,0,0-.4-.362h-1.192V96.9h2.484Zm-6.141-10.168v7.727h-1.563V96.9h1.563Zm-5.22,0v7.727h-1.563a.384.384,0,0,0-.4.362v2.079h-.431V96.906Z" transform="translate(-212.291 -24.761)" fill="rgba(90,88,77,0.14)"/>
    <path id="Path_62151" data-name="Path 62151" d="M457.478,213.443h.03v.018C457.508,213.452,457.488,213.443,457.478,213.443Zm142.147.018v-.018h.03C599.645,213.443,599.635,213.452,599.624,213.461Zm2.525-1.184a.458.458,0,0,0-.48-.425l-15.66.036v-3.705a.459.459,0,0,0-.481-.434h-10.92V204.8H575.8a.46.46,0,0,0,.481-.434V203.4a.466.466,0,0,0-.481-.434H554.259V37.268a.686.686,0,0,0-.721-.651H504.4a.686.686,0,0,0-.721.651V202.977H481.323a.46.46,0,0,0-.481.434v.967a.459.459,0,0,0,.481.434h1.192v2.946h-10.92a.46.46,0,0,0-.481.434V211.9l-15.66-.036a.458.458,0,0,0-.48.425l-.02,1.473a.41.41,0,0,0,.14.307.505.505,0,0,0,.341.126h1.232v2.26a.459.459,0,0,0,.481.434l64.22.073a.312.312,0,0,0,.09-.018h14.187a.318.318,0,0,0,.09.018l64.221-.073a.456.456,0,0,0,.471-.434v-2.26h1.242a.507.507,0,0,0,.341-.126.427.427,0,0,0,.14-.307Zm-62.287-136.3c-3.737,13.1-9.588,18.654-11.291,18.654-1.8,0-5.571-2.377-10.49-18.275a153.2,153.2,0,0,1-6.392-30.494,64.431,64.431,0,0,1,34.535-.325C545.653,49.071,543.078,64.716,539.862,75.977Z" transform="translate(-146.412 -14.217)" fill="rgba(90,88,77,0.14)"/>
    <path id="Path_62152" data-name="Path 62152" d="M666.894,272.673H665.4a24.253,24.253,0,0,0-1.663-9.318c-1.142-2.992-3.8-8.568-8.807-12.355a.372.372,0,0,0-.22-.073H654.1v-4.275a.212.212,0,0,0-.22-.2h-.09v-3.389a.215.215,0,0,0-.23-.2h-.251a.212.212,0,0,0-.22.2v3.389H653a.213.213,0,0,0-.221.2v4.275h-.812a.312.312,0,0,0-.331.3V252.4h-.26a21.364,21.364,0,0,0-1.673-1.41.376.376,0,0,0-.221-.073h-.611v-4.275a.215.215,0,0,0-.23-.2h-.09v-3.389a.212.212,0,0,0-.221-.2h-.25a.212.212,0,0,0-.221.2v3.389h-.09a.212.212,0,0,0-.22.2v4.275h-.811a.314.314,0,0,0-.331.307v3.651h-2.154a.409.409,0,0,0-.211.063l-.25.18c-.02.009-.03.027-.05.036a34.906,34.906,0,0,0-3.8,4.79c-.41-1.455-.771-2.413-.932-2.838a.223.223,0,0,0,0-.162,37.707,37.707,0,0,0-5.38-10.285c0-.009-.01-.018-.02-.027a41.517,41.517,0,0,0-2.635-3.3c-.01-.018-.03-.027-.04-.037l-.3-.235a.372.372,0,0,0-.22-.073h-2.685v-1.807a.043.043,0,0,0,0-.073v-2.992a.285.285,0,0,0-.09-.226.341.341,0,0,0-.25-.1h-1.032v-5.7a.212.212,0,0,0-.22-.2h-.151v-4.51a.212.212,0,0,0-.22-.2h-.3a.212.212,0,0,0-.221.2v4.51h-.15a.212.212,0,0,0-.221.2v5.7h-.791a.329.329,0,0,0-.221.081c-.671.551-1.333,1.148-1.974,1.78H621.4V238.1a.319.319,0,0,0-.331-.307h-1.032v-5.7a.212.212,0,0,0-.22-.2h-.151v-4.51a.212.212,0,0,0-.221-.2h-.3a.212.212,0,0,0-.221.2v4.51h-.15a.212.212,0,0,0-.22.2v5.7h-.791a.329.329,0,0,0-.221.081,29.131,29.131,0,0,0-4.639,4.817h-.04c-.03,0-.06.018-.06.046s.01.027.03.036a41.681,41.681,0,0,0-5.991,11.261,34,34,0,0,0-2.023,12.3h-1.884a.322.322,0,0,0-.341.307v26.924a.321.321,0,0,0,.341.3h2.034a.379.379,0,0,0,.18.045h36.308a.379.379,0,0,0,.18-.045h3.7a.37.37,0,0,0,.2-.063h19.536a.448.448,0,0,0,.16-.036h1.663a.321.321,0,0,0,.341-.3V272.962A.334.334,0,0,0,666.894,272.673ZM651.656,252.51v.135l-.15-.135ZM621.8,239.785c-.13.126-.261.262-.391.4v-.4Z" transform="translate(-193.874 -88.558)" fill="rgba(90,88,77,0.14)"/>
    <path id="Path_62153" data-name="Path 62153" d="M952.867,320.844h.01C952.826,320.807,952.867,320.844,952.867,320.844Z" transform="translate(-306.472 -125.088)" fill="rgba(90,88,77,0.14)"/>
    <path id="Path_62154" data-name="Path 62154" d="M952.867,320.756h.01C952.826,320.718,952.867,320.756,952.867,320.756Z" transform="translate(-306.472 -125.054)" fill="rgba(90,88,77,0.14)"/>
    <path id="Path_62155" data-name="Path 62155" d="M1042.07,307.514a.543.543,0,0,0-.482-.262c-.02,0-.027.009-.047.009-.835-.181-5.469-1.437-10.823-7.764l-.231-3.236a.52.52,0,0,0-.543-.46h-.007a.545.545,0,0,0-.543.451l-.271,2.992c-.129.1-.346.245-.638.434-.4-.425-.794-.859-1.174-1.311l-.21-3.055a.547.547,0,0,0-1.079-.009l-.271,2.865c-.326.19-1.011.606-2.253,1.328a17.618,17.618,0,0,1-1.676-2.729l-.231-3.371a.52.52,0,0,0-.543-.461h-.007a.522.522,0,0,0-.55.452l-.312,3.353a16.715,16.715,0,0,1-4.1,4.031,13.219,13.219,0,0,1-2.463-4.754c0-.009-.014-.018-.014-.027l-.217-3.128a.52.52,0,0,0-.543-.46.53.53,0,0,0-.543.452l-.312,3.371a33.073,33.073,0,0,1-5.639,6.444,26.253,26.253,0,0,1-3.067-7.113.467.467,0,0,0,.02-.135c0-.036-.007-.072-.007-.117l-.251-3.552a.52.52,0,0,0-.543-.461h-.007a.525.525,0,0,0-.543.452l-.312,3.3c-.611,2.557-2.321,7.248-4.98,9.354-3.162-2.521-4.465-8.459-4.628-9.282l-.231-3.353a.52.52,0,0,0-.543-.461h-.007a.529.529,0,0,0-.543.452l-.326,3.633a.335.335,0,0,0,.013.163,26.009,26.009,0,0,1-3.06,7.122,33.746,33.746,0,0,1-5.743-6.589l-.21-3.1a.526.526,0,0,0-.541-.461h-.01a.541.541,0,0,0-.541.452l-.31,3.335a13.519,13.519,0,0,1-2.375,4.474,16.643,16.643,0,0,1-4.148-4.1l-.22-3.154a.52.52,0,0,0-.541-.461h-.01a.526.526,0,0,0-.541.452l-.311,3.336a17.967,17.967,0,0,1-1.633,2.657c-1.183-.687-1.854-1.093-2.194-1.292l-.2-2.892a.526.526,0,0,0-.541-.461h-.01a.526.526,0,0,0-.541.452l-.28,2.992q-.6.719-1.232,1.383c-.25-.154-.451-.29-.581-.389l-.21-3.064a.526.526,0,0,0-.541-.461h-.01a.525.525,0,0,0-.541.452l-.3,3.226c-5.36,6.381-10.039,7.646-10.871,7.827-.02,0-.03-.009-.05-.009a.546.546,0,0,0-.48.262.388.388,0,0,0-.04.317.548.548,0,0,0,.04.217l4.458,8.947a.564.564,0,0,0,.5.3.6.6,0,0,0,.22-.045.471.471,0,0,0,.271-.651l-2.615-5.251c.12.145.231.281.361.434a37.24,37.24,0,0,1,3.416,4.745l.07.171v.063a.453.453,0,0,0,.17.353l.221.542a.548.548,0,0,0,.511.325.1.1,0,0,0,.05-.009.686.686,0,0,0,.3-.009.487.487,0,0,0,.33-.624s-.01-.036-.03-.09h1.112a.543.543,0,0,0,.491.28.643.643,0,0,0,.231-.045.5.5,0,0,0,.25-.235h1.042l.16.407a.518.518,0,0,0,.411.307.511.511,0,0,0,.161.027.53.53,0,0,0,.571-.488.485.485,0,0,0-.06-.235c0-.009,0-.009-.01-.018h2.2a.56.56,0,0,0,.481.271.743.743,0,0,0,.24-.046.534.534,0,0,0,.241-.216h3.577l.16.407a.548.548,0,0,0,.511.325h.02a.317.317,0,0,0,.1.018h.01a.522.522,0,0,0,.542-.5.473.473,0,0,0-.031-.172.249.249,0,0,0-.02-.072h5.4a.6.6,0,0,0,.641.154.584.584,0,0,0,.21-.154h3.938a.763.763,0,0,1,.04.126.5.5,0,0,0,.071.244.536.536,0,0,0,.581.371c.02,0,.04-.009.06-.009h.05a.543.543,0,0,0,.5-.379c0-.009.04-.136.09-.344h6.44a.576.576,0,0,0,.482.271.515.515,0,0,0,.129-.018.538.538,0,0,0,.353-.253h5.008v.253a.515.515,0,0,0,.522.489h.02c.02,0,.041-.009.061-.009a.182.182,0,0,0,.041.009h.027a.52.52,0,0,0,.516-.506v-.235h5.014a.562.562,0,0,0,.339.253.853.853,0,0,0,.136.018.576.576,0,0,0,.482-.271h6.439a3.465,3.465,0,0,1,.088.344.537.537,0,0,0,.5.379h.047c.02,0,.041.009.061.009a.556.556,0,0,0,.584-.352.506.506,0,0,0,.081-.262v-.018c.007-.027.021-.063.027-.1h3.936a.568.568,0,0,0,.217.154.543.543,0,0,0,.21.037.576.576,0,0,0,.428-.19h5.4c-.02.091-.034.145-.034.145a.5.5,0,0,0,.4.578.55.55,0,0,0,.244,0h.007a.545.545,0,0,0,.516-.326l.156-.406h3.576a.522.522,0,0,0,.244.217.558.558,0,0,0,.231.045.549.549,0,0,0,.482-.271h2.205a.847.847,0,0,0-.034.09.481.481,0,0,0,.333.624.533.533,0,0,0,.292.009.543.543,0,0,0,.489-.316l.163-.407h1.038a.511.511,0,0,0,.251.235.528.528,0,0,0,.231.045.552.552,0,0,0,.489-.28h1.113a.29.29,0,0,0-.027.09.477.477,0,0,0,.333.624.557.557,0,0,0,.3.009c.02,0,.027.009.047.009a.553.553,0,0,0,.516-.325l.2-.489a.494.494,0,0,0,.265-.406v-.235a36.432,36.432,0,0,1,3.406-4.745c.129-.153.244-.307.366-.451l-2.626,5.269a.479.479,0,0,0,.271.651.672.672,0,0,0,.231.045.547.547,0,0,0,.5-.3l4.458-8.948a.428.428,0,0,0,.041-.226A.355.355,0,0,0,1042.07,307.514Zm-25.587,3.949c.068-.045.129-.09.2-.135.2-.126.394-.253.584-.37.041-.027.081-.054.129-.082.2-.117.393-.235.584-.343a.773.773,0,0,0,.108-.063l-.468.994Zm2.9-.7.122.136c.156.181.312.379.461.569H1018.8l.414-.867A1.188,1.188,0,0,1,1019.387,310.767Zm-18.307.678c.02-.009.034-.027.054-.037.2-.153.407-.3.611-.434a.5.5,0,0,0,.088-.063c.2-.135.4-.253.59-.37.034-.018.054-.027.081-.045.2-.118.4-.235.59-.335s.38-.2.563-.289a.393.393,0,0,0,.068-.036c.17-.081.339-.154.5-.226.027-.009.054-.027.088-.037.047-.027.1-.036.149-.063l-.543,1.952h-2.863A.033.033,0,0,0,1001.08,311.446Zm4.621-1.862c.041.027.081.063.122.09.142.109.271.217.4.326.027.027.061.045.088.072a6.085,6.085,0,0,1,.461.434,1.02,1.02,0,0,1,.088.09c.122.126.244.244.353.37a.9.9,0,0,1,.109.127c.115.126.21.244.326.37h-2.606l.55-1.961A.75.75,0,0,1,1005.7,309.584Zm-29.484.859a1.713,1.713,0,0,1,.17.1c.21.118.421.235.631.37.01.009.03.018.04.027.21.126.421.262.641.407.06.036.12.081.181.117,0,0,.01,0,.01.009h-1.814l-.571-1.211a1.8,1.8,0,0,0,.13-.136C975.816,310.216,976.017,310.325,976.217,310.442Zm-1.814,1.03.3-.379.18.379Zm15.149-2.1a.718.718,0,0,1,.068.027c.129.054.285.109.421.171a.816.816,0,0,1,.1.045c.163.073.319.145.489.226l.075.036c.177.09.36.181.55.28.007,0,.007.009.021.009.19.1.38.208.583.326.027.018.054.036.088.054l.583.361a.7.7,0,0,0,.108.073c.2.135.4.271.59.424.027.018.048.037.081.063h-3.542l-.617-2.223a.055.055,0,0,1,.02-.018A3.747,3.747,0,0,1,989.552,309.376Zm-2.836,2.1c.014-.009.02-.018.02-.027.088-.109.183-.208.271-.317a2.13,2.13,0,0,1,.17-.19c.088-.1.19-.2.278-.3a1.432,1.432,0,0,0,.142-.145c.142-.135.292-.281.441-.407.041-.036.081-.063.122-.1.021-.018.041-.027.061-.045l.427,1.527Z" transform="translate(-306.058 -113.566)" fill="rgba(90,88,77,0.14)"/>
    <path id="Path_62156" data-name="Path 62156" d="M952.867,320.029h.01C952.826,319.992,952.867,320.029,952.867,320.029Z" transform="translate(-306.472 -124.77)" fill="rgba(90,88,77,0.14)"/>
    <path id="Path_62157" data-name="Path 62157" d="M952.867,319.954h.01C952.826,319.907,952.867,319.954,952.867,319.954Z" transform="translate(-306.472 -124.739)" fill="rgba(90,88,77,0.14)"/>
    <path id="Path_62158" data-name="Path 62158" d="M899.767,213.793l.15-.28.651.28Zm.5-.94.9-1.663h.892c.08.8.16,1.627.24,2.459,0,.036.01.073.01.109Zm4.478.018c-.33-3.479-.631-6.661-.921-9.833-1.523-16.44-2.615-28.325-6.813-53.242-5.66-33.657-8.3-42.017-9.207-44.078l-.611-10.963a2.471,2.471,0,0,0-.04-.271l-.18-.822a2.283,2.283,0,0,0-2.284-1.726c-.09,0-.18.009-.231.009a.764.764,0,0,0-.2.027,1.163,1.163,0,0,0-.151-.018,2.539,2.539,0,0,0-.28-.018,2.293,2.293,0,0,0-2.285,1.726l-.18.85a1.364,1.364,0,0,0-.031.271l-.611,10.927c-.912,2.061-3.547,10.421-9.208,44.078-4.2,24.917-5.29,36.8-6.823,53.3-.271,2.928-.582,6.245-.912,9.779-.721,7.493-.972,24.339-.841,25.975a2.253,2.253,0,0,0,2.325,1.979h37.981a2.26,2.26,0,0,0,2.325-1.97C905.717,237.192,905.467,220.327,904.746,212.871Zm-6.692-22.893.08-.208.4.208Zm-24.787-23.49h-.661l.52-.343Zm-3.066,23.49h-.341l.28-.127Zm29.806-.073-1.6-.84.611-1.608h.732C899.836,188.279,899.917,189.093,900.007,189.906Zm-4.489-23.417.111-.389.541.389Zm-12.333-38.42h-4.7l4.7-2.133Zm0,3.543h-5.1l5.1-2.314Zm0,3.434h-5.24l5.24-2.377Zm0,.768v2.956H876.5l6.513-2.956Zm-3.757-15.138.17.262.2.343.01-.027,2.174,3.326h-3.356C878.907,123.18,879.178,121.887,879.428,120.676Zm3.757,4.672v.037L878,127.734c.17-.849.331-1.672.491-2.458v.063h4.7Zm-5.37,3.308v.181h5.179l-5.71,2.585C877.465,130.464,877.645,129.542,877.815,128.656Zm-.712,3.723h5.491l-5.821,2.639a.021.021,0,0,0-.02.018h-.14C876.773,134.124,876.944,133.239,877.1,132.38Zm-.641,3.434h5.34l-5.82,2.639C876.142,137.55,876.3,136.664,876.463,135.814Zm-.671,3.715h7.394v.28a10.549,10.549,0,0,0-5.651,2.16h-2.174C875.5,141.138,875.641,140.324,875.791,139.529Zm-.581,3.209h1.443a8.881,8.881,0,0,0-1.333,1.672c.04-.018.08-.027.12-.045a8.148,8.148,0,0,0-.791,1.636C874.839,144.88,875.03,143.795,875.211,142.738Zm-3.367,20.272,1.012,2.476-1.523,1.012h-.04c.17-1.148.351-2.314.541-3.525Zm-3.276,24.448h.29l.922,1.744-1.473.659C868.4,189.065,868.478,188.261,868.568,187.457Zm27.271-22.071.671-2.3q.24,1.6.481,3.118Zm-10.711-29.572h.481l6.512,2.956h-6.983v-2.956Zm0-.768v-2.522l5.55,2.522Zm0-3.434v-2.458l5.411,2.458Zm0-5.812,5.01,2.269h-5.01Zm-10.981,23.028v.045a9.064,9.064,0,0,0,6.112,8.315h-7.514c.371-2.278.771-4.664,1.2-7.185C874.018,149.606,874.088,149.218,874.148,148.829Zm13.9,8.36a9.05,9.05,0,0,0,6.112-8.315v-.045c.07.389.13.778.2,1.166.431,2.521.832,4.908,1.2,7.185h-7.514Zm3.527-14.451h1.523q.285,1.585.571,3.253A8.875,8.875,0,0,0,891.571,142.738Zm-.872-.768a10.531,10.531,0,0,0-5.571-2.16v-.28h7.394c.141.8.291,1.609.441,2.44Zm-3.877-6.155h5.029c.151.8.3,1.636.451,2.486Zm-.792-3.434h5.18c.16.832.321,1.681.481,2.567Zm-.4-3.543h4.9c.15.787.311,1.6.471,2.432Zm-.271-3.489h4.478c.14.723.29,1.464.441,2.233Zm.812-.768,2.7-3.941c.261,1.211.531,2.521.812,3.941Zm-.661-30.666.18.822.631,11.162.06.226c.651,1.41,3.256,8.757,9.157,43.87,1.793,10.638,3.015,18.889,3.947,26.146-.961-7.3-2.214-15.608-4.048-26.291-6.352-37.091-8.946-43.472-9.478-44.457l-.641-11.361a.179.179,0,0,0-.01-.072l-.11-.524A.885.885,0,0,1,885.51,93.915Zm-2.515.226-.631,11.252c-.04.072-.09.181-.16.325l.661-10.981ZM868.618,213.793h-.862l.711-.28Zm-2.6-.145c.08-.831.16-1.654.24-2.459h1.022l.862,1.672-2.124.84C866,213.684,866.013,213.667,866.013,213.648Z" transform="translate(-277.556 -35.796)" fill="rgba(90,88,77,0.14)"/>
    <path id="Path_62159" data-name="Path 62159" d="M385.872,288.032v-.271A1.861,1.861,0,0,1,385.872,288.032Zm22.051-17.154a28.549,28.549,0,0,0-4.569-.678,10.29,10.29,0,0,1-4.97-3.715,3.574,3.574,0,0,1-.24-.424c-.421-.814-.811-1.545-1.162-2.215-.28-.542-.541-1.03-.782-1.482-.711-1.356-1.2-2.341-1.5-3.082-.05-.127-.1-.28-.151-.443-.24-.732-.571-1.772-1.423-2.133a1.749,1.749,0,0,0-.671-.136h-.04c-1.242.109-1.653,1.2-2.084,2.35-.06.154-.12.307-.18.47a68.887,68.887,0,0,1-3.156,6.67c-1.192,2.277-3.707,3.534-5.149,4.1a26.617,26.617,0,0,0-4.959.7,2.415,2.415,0,0,0-1.2.778c-.01.009-.02.018-.02.027a2.8,2.8,0,0,0-.6,1.8c0,.009,0,.009-.01.009l-.031.081a1.037,1.037,0,0,1-.05.1.4.4,0,0,0-.04.154v1.69a1.59,1.59,0,0,1-.009.208c-.05,1.3.32,2.6,5.309,5.251a1.981,1.981,0,0,0,.331.135,1.265,1.265,0,0,1,.22.09.514.514,0,0,0,.191.073c.06.036.12.073.17.1l.15.081.1.063.09.054.11.073c.05.036.111.072.161.108l.02.018a1.913,1.913,0,0,1,.16.118l.03.018c.07.054.14.109.2.154s.11.09.17.136c.07.063.151.117.21.181.05.045.1.09.16.135.071.063.13.127.2.181.05.045.09.09.14.135.06.063.13.126.191.2l.04.036a.64.64,0,0,1,.08.081c.07.073.13.145.191.217l.09.1c.08.09.15.19.23.281l.03.036a7.706,7.706,0,0,1,.451.651l.02.027a.131.131,0,0,0,.02.027c.05.09.11.171.15.262l.031.063c.04.081.09.163.13.244l.03.063c.04.081.08.171.12.253l.02.045a.877.877,0,0,1,.04.09.33.33,0,0,0,.01.172,19.752,19.752,0,0,1,.15,2.35v14.334a.384.384,0,0,0,.4.362h13.765a.384.384,0,0,0,.4-.362v-.054c0-1,.01-15.012.1-16.368a.69.69,0,0,1,.04-.108.736.736,0,0,0,.04-.1l.02-.063c.031-.081.071-.172.111-.262l.02-.045c.031-.081.071-.154.111-.235l.03-.073c.04-.081.08-.154.13-.235l.04-.073a1.668,1.668,0,0,1,.15-.244l.041-.063c.06-.1.13-.2.19-.3l.02-.027c.07-.109.15-.217.23-.325l.05-.063c.07-.082.13-.172.2-.253l.1-.118c.06-.063.12-.135.18-.2a.993.993,0,0,0,.09-.1l.04-.036c.06-.063.12-.118.18-.181.04-.045.09-.082.15-.145a1.623,1.623,0,0,1,.191-.172,1.188,1.188,0,0,1,.17-.145c.07-.054.13-.118.2-.172s.12-.1.18-.145c.07-.063.15-.117.221-.171l.02-.018.17-.126.25-.172.06-.036a1.341,1.341,0,0,0,.14-.1c.09-.063.191-.118.3-.181l.081-.045.11-.072c.15-.09.311-.172.471-.262l.05-.027c3.857-2.052,4.709-3.109,5.029-3.95a2.661,2.661,0,0,0,.09-.913v-2.413C409.647,272.957,409.336,271.258,407.924,270.878Z" transform="translate(-120.683 -100.021)" fill="rgba(90,88,77,0.14)"/>
    <path id="Path_62160" data-name="Path 62160" d="M56.548,293.078c-.11-.054-10.3-4.953-13.285-6.471-.22-.118-.411-.208-.551-.281-1.733-.922-2.354-2.241-2.354-5.034,0-2.485.02-18.645.03-21.446.03-.009.05-.027.08-.037.17-.072.341-.154.511-.244.07-.036.13-.072.2-.109l.481-.271a.912.912,0,0,1,.08-.045c.19-.118.371-.235.551-.362a1.055,1.055,0,0,0,.11-.081,10.129,10.129,0,0,0,2.495-2.531h.03v-.045c.02-.027.03-.054.05-.081a8.3,8.3,0,0,0,1.373-3.326c.02-.09.03-.172.05-.262,0-.027.01-.045.01-.073a8.312,8.312,0,0,0,.1-1.328,8.812,8.812,0,0,0-.281-2.187c0-.018-.01-.027-.01-.045-.05-.181-.1-.353-.15-.524a9.9,9.9,0,0,0-5.781-6.064c-.13-.054-.26-.109-.391-.154-.02-.009-.03-.009-.05-.018v-4.438H38.775v-.967h.8v-4.573h-.8v-2.169H32.363v2.169h-.8v4.573h.8v.967h-.531v4.347a9.843,9.843,0,0,0-6.923,9.092,9.713,9.713,0,0,0,6.041,8.74c0,2.684.03,18.988.03,21.491,0,2.793-.621,4.113-2.354,5.034-1.944,1.031-13.716,6.7-13.836,6.752l-1.413.678H57.961ZM25.77,251.07a1.256,1.256,0,0,1,.01-.2c.16-.651.711-2.594,1.443-3.136a13.686,13.686,0,0,1-.03,3.389H25.78A.106.106,0,0,1,25.77,251.07ZM26.842,247c0,.009.01,0,0,0l-.01.009C26.842,247.012,26.842,247.012,26.842,247Zm3,.8a13.507,13.507,0,0,1,.291,3.326H27.944v-.136l.581-.027S29.066,248.521,29.838,247.8Zm9.227.47a9.733,9.733,0,0,1,.591,2.16c.06.415.09.7.09.7h-.681v-2.865C39.055,248.259,39.055,248.268,39.065,248.268Zm3.877,2.811a.1.1,0,0,0,.01.045H40.488a12.779,12.779,0,0,1,.321-3.507c.912.488,1.543,3.344,1.543,3.344l.581.027A.283.283,0,0,0,42.942,251.079Zm2.555.045H43.524a14.66,14.66,0,0,0-.1-1.853c0-.063.01-.118.01-.181v-.045c.01-.117.02-.226.03-.334,0-.018.01-.045.01-.063.01-.109.03-.217.04-.316a.332.332,0,0,1,.01-.045,4.4,4.4,0,0,1,.15-.633.512.512,0,0,1,.21-.045c.791,0,1.443,1.663,1.783,2.693.02.262.04.525.04.786v.054H45.5Zm-13.656-3.615v3.606H30.75c0-.172-.01-.326-.01-.479a9.25,9.25,0,0,1,1.092-3.109C31.842,247.527,31.842,247.518,31.842,247.509ZM35.318,260.8h.06c.19.009.21.009.331.009s.4,0,.4-.009v26.219h-.8V260.8Z" transform="translate(-4.458 -89.622)" fill="rgba(90,88,77,0.14)"/>
    <path id="Path_62161" data-name="Path 62161" d="M42.986,326.218a1.766,1.766,0,0,0-1.723,1.184,3.252,3.252,0,0,0-.421-.027,3.644,3.644,0,0,0-2.054.615l-.03-.027a1.319,1.319,0,0,0,.15-.587A1.453,1.453,0,0,0,37.386,326a2.142,2.142,0,0,0-.25.018V326a1.216,1.216,0,0,0-1.272-1.148,1.691,1.691,0,0,0-.311.036,1.111,1.111,0,0,0,.04-.253,1.209,1.209,0,0,0-2.4,0,1.017,1.017,0,0,0,.291.705h-.04a1.85,1.85,0,0,0-1.944,1.744h-.03a2.709,2.709,0,0,0-2.394,1.328,4.958,4.958,0,0,0-2.144-.479c-2.064,0-3.747,1.193-3.877,2.693H44.3c0-.045.01-.09.01-.127a2.841,2.841,0,0,0-.321-1.3,1.586,1.586,0,0,0,.8-1.347A1.729,1.729,0,0,0,42.986,326.218Zm-8.346-.506c-.01,0-.01-.009-.02-.018h.03C34.641,325.694,34.641,325.7,34.641,325.712Z" transform="translate(-7.567 -126.151)" fill="rgba(90,88,77,0.14)"/>
    <path id="Path_62162" data-name="Path 62162" d="M222.746,325.364a1.788,1.788,0,0,0-1.723,1.184c-.14-.009-.28-.018-.421-.018a3.645,3.645,0,0,0-2.054.615l-.03-.027a1.322,1.322,0,0,0,.15-.588,1.453,1.453,0,0,0-1.523-1.373,2.135,2.135,0,0,0-.25.018c0-.009.01-.009.01-.018a1.217,1.217,0,0,0-1.273-1.148,1.735,1.735,0,0,0-.31.036,1.053,1.053,0,0,0,.04-.253,1.209,1.209,0,0,0-2.4,0,1.016,1.016,0,0,0,.29.705c-.02,0-.03-.009-.04-.009a1.85,1.85,0,0,0-1.943,1.744h-.031a2.708,2.708,0,0,0-2.395,1.329,4.955,4.955,0,0,0-2.143-.479c-2.064,0-3.748,1.193-3.878,2.693h21.25c0-.045.01-.09.01-.126a2.936,2.936,0,0,0-.321-1.311,1.586,1.586,0,0,0,.8-1.347A1.742,1.742,0,0,0,222.746,325.364Zm-8.346-.506-.02-.018h.03C214.41,324.849,214.41,324.858,214.4,324.858Zm1.253,1.437a3.349,3.349,0,0,0-.521.145,1.43,1.43,0,0,0,.02-.208V326.2a1.4,1.4,0,0,0,.48.081A.033.033,0,0,0,215.652,326.3Z" transform="translate(-65.358 -125.821)" fill="rgba(90,88,77,0.14)"/>
    <path id="Path_62163" data-name="Path 62163" d="M150.469,326.4a1.757,1.757,0,0,0-1.713,1.175c-.14-.009-.281-.018-.421-.018a3.666,3.666,0,0,0-2.053.614l-.031-.027a1.289,1.289,0,0,0,.151-.587,1.454,1.454,0,0,0-1.523-1.374,2.121,2.121,0,0,0-.25.018v-.018a1.216,1.216,0,0,0-1.272-1.148,1.7,1.7,0,0,0-.311.037,1.1,1.1,0,0,0,.04-.253,1.2,1.2,0,0,0-2.395,0,1.019,1.019,0,0,0,.291.705c-.02,0-.031-.009-.05-.009a1.857,1.857,0,0,0-1.944,1.744h-.03a2.709,2.709,0,0,0-2.395,1.328,4.924,4.924,0,0,0-2.144-.479c-2.063,0-3.747,1.193-3.877,2.684h21.22c0-.045.01-.09.01-.127a2.867,2.867,0,0,0-.32-1.3,1.589,1.589,0,0,0,.8-1.347A1.7,1.7,0,0,0,150.469,326.4Zm-8.336-.506-.02-.018h.03C142.142,325.88,142.133,325.88,142.133,325.889Zm1.252,1.437a3.5,3.5,0,0,0-.52.145,1.535,1.535,0,0,0,.02-.207v-.027a1.409,1.409,0,0,0,.481.082C143.375,327.326,143.375,327.326,143.385,327.326Z" transform="translate(-42.123 -126.22)" fill="rgba(90,88,77,0.14)"/>
    <path id="Path_62164" data-name="Path 62164" d="M360.764,323.713a2.088,2.088,0,0,0-2.034,1.392,4.565,4.565,0,0,0-.491-.027,4.4,4.4,0,0,0-2.435.723c-.01-.009-.02-.027-.031-.036a1.477,1.477,0,0,0,.18-.7,1.8,1.8,0,0,0-2.1-1.6v-.027a1.433,1.433,0,0,0-1.5-1.356,1.516,1.516,0,0,0-.361.045,1.026,1.026,0,0,0,.04-.3,1.42,1.42,0,0,0-2.825,0,1.182,1.182,0,0,0,.351.831c-.02,0-.04-.008-.06-.008a2.19,2.19,0,0,0-2.294,2.069h-.04a3.225,3.225,0,0,0-2.836,1.572,5.869,5.869,0,0,0-2.534-.56c-2.445,0-4.429,1.4-4.589,3.181h25.107c0-.045.01-.1.01-.154a3.381,3.381,0,0,0-.381-1.545,1.867,1.867,0,0,0,.942-1.591A2.013,2.013,0,0,0,360.764,323.713Zm-9.859-.6c-.009-.009-.02-.009-.02-.018h.03C350.9,323.1,350.9,323.107,350.9,323.116Zm1.473,1.7a3.666,3.666,0,0,0-.621.172,1.811,1.811,0,0,0,.031-.244v-.027a1.609,1.609,0,0,0,.561.1Z" transform="translate(-108.557 -124.984)" fill="rgba(90,88,77,0.14)"/>
    <path id="Path_62165" data-name="Path 62165" d="M522.854,329.523a4.084,4.084,0,0,0-1.263.2,1.172,1.172,0,0,0,.031-.2c0-.741-.912-1.337-2.034-1.337a2.16,2.16,0,0,0-1.893.876c-.231.045-.461.109-.672.172-.05-.027-.1-.063-.16-.09a.942.942,0,0,0,.05-.3,1.335,1.335,0,0,0-.9-1.13V327.7c0-1.048-1.293-1.907-2.886-1.907s-2.885.859-2.885,1.907a1.417,1.417,0,0,0,.311.85c-1.783.126-3.186,1.058-3.416,2.223H525.59A3.159,3.159,0,0,0,522.854,329.523Z" transform="translate(-163.187 -127.024)" fill="rgba(90,88,77,0.14)"/>
    <path id="Path_62166" data-name="Path 62166" d="M435.017,329.582a3.154,3.154,0,0,0,.06-.624,4.079,4.079,0,0,0-4.268-3.85,4.26,4.26,0,0,0-4.047,2.631c-.13.036-.261.072-.391.117a3.347,3.347,0,0,0-3.186-2.088,3.392,3.392,0,0,0-3.1,1.853,3.154,3.154,0,0,0-1.493.036c0-.036.01-.072.01-.108a2.065,2.065,0,0,0-4.108,0,1.238,1.238,0,0,0,.04.335,2.433,2.433,0,0,0-1.262-.343,2.264,2.264,0,0,0-2.054,1.2,1.7,1.7,0,0,0-1.232-.524,1.549,1.549,0,0,0-1.623,1.464,1.369,1.369,0,0,0,.18.659,1.756,1.756,0,0,0-.932.859h28.674A2.039,2.039,0,0,0,435.017,329.582Zm-19.487-.226a1.869,1.869,0,0,0-.04-.226c.08.036.15.081.24.117C415.66,329.284,415.59,329.32,415.53,329.356Z" transform="translate(-131.194 -126.758)" fill="rgba(90,88,77,0.14)"/>
    <path id="Path_62167" data-name="Path 62167" d="M964.329,329.582a3.163,3.163,0,0,0,.06-.624,4.079,4.079,0,0,0-4.268-3.85,4.259,4.259,0,0,0-4.047,2.631c-.13.036-.261.072-.391.117a3.347,3.347,0,0,0-3.186-2.088,3.391,3.391,0,0,0-3.1,1.853,3.153,3.153,0,0,0-1.493.036c0-.036.009-.072.009-.108a2.065,2.065,0,0,0-4.107,0,1.213,1.213,0,0,0,.04.335,2.438,2.438,0,0,0-1.263-.343,2.265,2.265,0,0,0-2.054,1.2,1.7,1.7,0,0,0-1.232-.524,1.549,1.549,0,0,0-1.623,1.464,1.367,1.367,0,0,0,.181.659,1.755,1.755,0,0,0-.932.859H965.6A2.041,2.041,0,0,0,964.329,329.582Zm-19.487-.226a1.656,1.656,0,0,0-.04-.226c.081.036.151.081.241.117C944.973,329.284,944.9,329.32,944.842,329.356Z" transform="translate(-301.353 -126.758)" fill="rgba(90,88,77,0.14)"/>
    <path id="Path_62168" data-name="Path 62168" d="M792.386,330.447a2.638,2.638,0,0,0-.28.027.914.914,0,0,0-.5-.145.859.859,0,0,0-.351.072,1.213,1.213,0,0,0,.02-.19,1.6,1.6,0,0,0-1.683-1.519,1.737,1.737,0,0,0-.721.154,3.047,3.047,0,0,0-.962-.154,2.834,2.834,0,0,0-2.825,2.079,1.576,1.576,0,0,0-.961-.326,1.46,1.46,0,0,0-1.463,1.1H794.58A2.655,2.655,0,0,0,792.386,330.447Z" transform="translate(-251.76 -128.157)" fill="rgba(90,88,77,0.14)"/>
    <path id="Path_62169" data-name="Path 62169" d="M1019.564,329.532c-.129,0-.251.027-.373.037a1.226,1.226,0,0,0-.658-.19,1.343,1.343,0,0,0-.475.091,1.518,1.518,0,0,0,.034-.245,2.115,2.115,0,0,0-2.219-2,2.257,2.257,0,0,0-.936.2,4.159,4.159,0,0,0-1.262-.2,3.74,3.74,0,0,0-3.732,2.738,2.076,2.076,0,0,0-1.269-.434,1.924,1.924,0,0,0-1.934,1.446h15.708A3.518,3.518,0,0,0,1019.564,329.532Z" transform="translate(-323.795 -127.585)" fill="rgba(90,88,77,0.14)"/>
    <path id="Path_62170" data-name="Path 62170" d="M541.518,332.668c0-.027-.01-.055-.01-.091.031.018.061.027.091.046A.6.6,0,0,0,541.518,332.668Z" transform="translate(-174.237 -129.672)" fill="rgba(90,88,77,0.14)"/>
    <path id="Path_62171" data-name="Path 62171" d="M505.409,317.992s-.551-1.844-4.589-2.358h-.009c1.863-1.555,1.573-2.775,1.573-2.775a6.9,6.9,0,0,0-4.208,1.329,7.44,7.44,0,0,0,.261-1.419c.281-3.254-.932-3.931-.932-3.931a8.975,8.975,0,0,0-1.643,3.642c-1.523-1.545-2.765-1.374-2.765-1.374a5.464,5.464,0,0,0,.411,2.576c-.161-.045-.331-.082-.521-.118-3.086-.6-4.088.515-4.088.515a7.046,7.046,0,0,0,3.887,2.151,6.672,6.672,0,0,0-1.573,1.7s.942,2.2,3.847,1.13c.2-.073.371-.154.551-.226-.03,1.925.191,4.167,1.152,5.387l2.355-.081a20.625,20.625,0,0,1-2.395-5.305,5.3,5.3,0,0,0,2.825,2.685s1.443-1.157-.03-3.489A9.689,9.689,0,0,0,505.409,317.992Z" transform="translate(-157.324 -120.411)" fill="rgba(90,88,77,0.14)"/>
    <path id="Path_62172" data-name="Path 62172" d="M751.65,313.387c.982-2.105.17-3.109.17-3.109a6.282,6.282,0,0,0-3.246,2.765,6.584,6.584,0,0,0-.41-1.392c-1.213-3.073-2.635-3.245-2.635-3.245a8.59,8.59,0,0,0,.15,3.931c-2.084-.85-3.146-.235-3.146-.235a5.935,5.935,0,0,0,1.543,2.205c-.17.018-.341.045-.521.081-3.1.587-3.5,1.98-3.5,1.98a7.62,7.62,0,0,0,4.529.533,5.892,5.892,0,0,0-.662,2.133,2.9,2.9,0,0,0,4.028-.379q.21-.2.391-.407c-.06,2.007.1,4.5,1.142,5.82l2.354-.081a19.54,19.54,0,0,1-2.6-6.272,5.855,5.855,0,0,0,3.938,1.527s.791-1.591-1.614-3.172a9.425,9.425,0,0,0,5.36-2.224S755.578,312.366,751.65,313.387Z" transform="translate(-238.065 -120.243)" fill="rgba(90,88,77,0.14)"/>
    <path id="Path_62173" data-name="Path 62173" d="M811.838,314.39c-.181-.036-.361-.063-.521-.081a5.8,5.8,0,0,0,1.543-2.205s-1.062-.615-3.146.235a8.592,8.592,0,0,0,.151-3.931s-1.423.172-2.635,3.245a8.015,8.015,0,0,0-.411,1.392,6.282,6.282,0,0,0-3.246-2.765s-.812,1,.18,3.109h-.01c-3.917-1.021-5.26.461-5.26.461a9.452,9.452,0,0,0,5.36,2.224c-1.573,1.039-1.774,2.069-1.724,2.666a4.438,4.438,0,0,0-2.765-.949,4.154,4.154,0,0,0-3.957,2.567c-.13.036-.26.072-.381.117a3.27,3.27,0,0,0-3.116-2.043,3.316,3.316,0,0,0-3.026,1.808,3.029,3.029,0,0,0-.641-.073,2.982,2.982,0,0,0-.811.109c0-.036.01-.072.01-.109a2.025,2.025,0,0,0-4.028,0,1.217,1.217,0,0,0,.04.326,2.32,2.32,0,0,0-1.232-.334,2.235,2.235,0,0,0-2.014,1.175,1.667,1.667,0,0,0-1.212-.515,1.519,1.519,0,0,0-1.593,1.437,1.273,1.273,0,0,0,.18.642,1.713,1.713,0,0,0-.912.84h27.061l-.161.262,2.354.081c1.042-1.32,1.2-3.814,1.142-5.82q.181.2.391.406a2.9,2.9,0,0,0,4.028.38,5.9,5.9,0,0,0-.661-2.133,7.619,7.619,0,0,0,4.528-.534S814.934,314.977,811.838,314.39ZM784.4,321.937c-.01-.082-.02-.154-.03-.226a1.307,1.307,0,0,0,.23.109C784.527,321.864,784.457,321.9,784.4,321.937Zm19.888.822a2.223,2.223,0,0,0-.822-.605,3.042,3.042,0,0,0,.06-.606,3.506,3.506,0,0,0-.911-2.341,5.771,5.771,0,0,0,3.547-1.5A17.628,17.628,0,0,1,804.284,322.759Z" transform="translate(-249.832 -120.243)" fill="rgba(90,88,77,0.14)"/>
    <path id="Path_62174" data-name="Path 62174" d="M1044.052,312.835a4.548,4.548,0,0,0-.529.073,5.459,5.459,0,0,0,.712-2.522s-1.221-.289-2.918,1.1a8.8,8.8,0,0,0-1.2-3.778s-1.289.561-1.391,3.823a7.158,7.158,0,0,0,.088,1.437,6.752,6.752,0,0,0-4.024-1.726s-.434,1.175,1.228,2.91h-.007c-4.078.126-4.852,1.907-4.852,1.907a9.832,9.832,0,0,0,5.863.615c-1.744,2.178-.441,3.47-.441,3.47a5.4,5.4,0,0,0,3.216-2.557,18.691,18.691,0,0,1-.333,6.7l2.266-.587c.529-1.545-.163-3.958-.916-5.856.163.09.333.19.516.28,2.755,1.338,3.956-.759,3.956-.759a6.51,6.51,0,0,0-1.364-1.844,7.254,7.254,0,0,0,4.126-1.771S1047.2,312.537,1044.052,312.835Z" transform="translate(-331.646 -119.971)" fill="rgba(90,88,77,0.14)"/>
    <path id="Path_62175" data-name="Path 62175" d="M303.113,314.39c-.18-.036-.36-.063-.521-.081a5.79,5.79,0,0,0,1.543-2.205s-1.062-.615-3.146.235a8.6,8.6,0,0,0,.15-3.931s-1.422.172-2.635,3.245a8.056,8.056,0,0,0-.411,1.392,6.282,6.282,0,0,0-3.246-2.765s-.812,1,.18,3.109h-.01c-3.918-1.021-5.26.461-5.26.461a9.451,9.451,0,0,0,5.36,2.224c-2.4,1.582-1.613,3.172-1.613,3.172a5.855,5.855,0,0,0,3.938-1.527,19.455,19.455,0,0,1-2.6,6.272l2.354.081c1.042-1.319,1.2-3.814,1.142-5.82q.18.2.391.407a2.9,2.9,0,0,0,4.028.379,5.906,5.906,0,0,0-.662-2.133,7.621,7.621,0,0,0,4.529-.533S306.2,314.977,303.113,314.39Z" transform="translate(-93.307 -120.243)" fill="rgba(90,88,77,0.14)"/>
    <path id="Path_62176" data-name="Path 62176" d="M749.734,335.722H2.074a1.8,1.8,0,1,1,0-3.561H749.748a1.8,1.8,0,1,1-.014,3.561Z" transform="translate(-0.158 -129.51)" fill="rgba(90,88,77,0.14)"/>
  </g>
</svg>
