<svg xmlns="http://www.w3.org/2000/svg" width="28.185" height="26" viewBox="0 0 28.185 26">
  <g id="Group_22" data-name="Group 22" transform="translate(0 -19.846)">
    <path id="Path_14" data-name="Path 14" d="M6.275,35.062a.55.55,0,0,0,.458-.855,5.5,5.5,0,1,1,9.961-4.255.551.551,0,1,0,1.074-.243A6.606,6.606,0,1,0,5.816,34.815.55.55,0,0,0,6.275,35.062Zm5.051-12.043a.55.55,0,0,0,.55-.55V20.4a.55.55,0,0,0-1.1,0v2.072A.55.55,0,0,0,11.326,23.019ZM6.5,23.909a.551.551,0,0,0,.954-.55L6.415,21.565a.55.55,0,1,0-.953.55ZM1.719,26.261,3.513,27.3a.55.55,0,1,0,.55-.953L2.269,25.308a.55.55,0,1,0-.55.953Zm1.454,4.911a.55.55,0,0,0-.55-.55H.55a.55.55,0,0,0,0,1.1H2.622A.55.55,0,0,0,3.173,31.172Zm1.092,4.077a.55.55,0,0,0-.752-.2L1.719,36.083a.55.55,0,1,0,.55.953L4.063,36a.55.55,0,0,0,.2-.752Zm14.6-7.878a.548.548,0,0,0,.275-.074l1.794-1.036a.55.55,0,1,0-.55-.953l-1.794,1.036a.55.55,0,0,0,.276,1.027ZM15.4,24.111a.55.55,0,0,0,.752-.2l1.036-1.794a.55.55,0,1,0-.953-.55L15.2,23.359A.55.55,0,0,0,15.4,24.111Zm9.446,12.856a5.262,5.262,0,0,0-9.624-3.853,4.163,4.163,0,0,0-5.378,2.242,5.284,5.284,0,1,0-.9,10.49h14.72a4.518,4.518,0,0,0,1.181-8.879Zm-1.182,7.778H8.947a4.183,4.183,0,1,1,1.11-8.216.55.55,0,0,0,.676-.381,3.062,3.062,0,0,1,4.453-1.834.55.55,0,0,0,.767-.239,4.162,4.162,0,0,1,7.69,3.142.55.55,0,0,0,.453.722,3.417,3.417,0,0,1-.428,6.807Z" fill="#fff"/>
  </g>
</svg>
