<svg xmlns="http://www.w3.org/2000/svg" width="32.526" height="37.344" viewBox="0 0 32.526 37.344">
  <g id="Group_102" data-name="Group 102" transform="translate(-1.936 -0.262)">
    <path id="Path_36" data-name="Path 36" d="M-114.74,197.262l-3.576,13.332h-7.648a.389.389,0,0,0-.3.138L-129,214a.389.389,0,0,0-.089.32v4.3a.389.389,0,0,0,.389.389h2.347v14.91a.387.387,0,0,0,.389.389H-99.7a.387.387,0,0,0,.389-.389V219.013h2.347a.389.389,0,0,0,.389-.389v-4.3a.389.389,0,0,0-.091-.32h0l-2.733-3.269a.389.389,0,0,0-.3-.138h-7.617l2.841-10.584a.389.389,0,0,0-.275-.475l-9.515-2.548a.358.358,0,0,0-.478.274Zm.652.576,8.763,2.344-3.234,12.049h-9.391Zm2.3,3.014,2.952.789a.389.389,0,1,0,.2-.752l-2.952-.789A.389.389,0,1,0-111.783,200.852Zm-1.061,1.411,4.228,1.13a.389.389,0,1,0,.2-.75l-4.229-1.132a.389.389,0,1,0-.2.752Zm-1.224,3.059-1.133,4.222a.389.389,0,0,0,.275.475l4.228,1.132a.389.389,0,0,0,.475-.275l1.133-4.222a.389.389,0,0,0,0-.2l.55-.54a.389.389,0,1,0-.544-.554l-.717.706-3.79-1.015A.366.366,0,0,0-114.068,205.322Zm.651.576,2.971.793-1.62,1.593-.685-.684a.389.389,0,1,0-.549.55l.958.958a.389.389,0,0,0,.547,0l1.688-1.659-.763,2.848-3.478-.93Zm-12.363,5.472h7.258l-.23.861h-1.074a.389.389,0,1,0,0,.778c4.66.013,9.337,0,13.995,0a.389.389,0,1,0,0-.778h-1.92l.23-.86h7.642l2.085,2.493h-30.071Zm-2.529,3.272h30.959v3.594h-30.959Zm2.736,4.372h25.486v14.522h-25.488Zm1.8,3.593a.389.389,0,0,0-.276.113.389.389,0,0,0-.114.275v3.279a.387.387,0,0,0,.389.389h3.283a.387.387,0,0,0,.389-.389V223a.389.389,0,0,0-.389-.389Zm.389.778h2.5v2.5h-2.506Zm-.389,4.687a.389.389,0,0,0-.276.113.389.389,0,0,0-.114.275v3.279a.387.387,0,0,0,.389.389h3.283a.387.387,0,0,0,.389-.389v-3.279a.389.389,0,0,0-.389-.389Zm.389.778h2.5v2.5h-2.506Zm18.214.314a.389.389,0,0,0,0,.778h3.283a.389.389,0,1,0,0-.778Zm-2.189,2.185a.389.389,0,1,0,0,.778h5.472a.389.389,0,1,0,0-.778Z" transform="translate(131.03 -196.708)" fill="#020202"/>
  </g>
</svg>
