<svg xmlns="http://www.w3.org/2000/svg" width="50.019" height="65.953" viewBox="0 0 50.019 65.953">
  <g id="Group_24887" data-name="Group 24887" transform="translate(1.5 1.5)">
    <path id="Path_62418" data-name="Path 62418" d="M100.44,53.706a19.456,19.456,0,0,0,6.873-2.863l3.061,3.061,5.541-5.541L112.855,45.3a19.455,19.455,0,0,0,2.863-6.873h4.313V30.591h-4.313a19.458,19.458,0,0,0-2.863-6.873l3.061-3.061-5.541-5.541-3.061,3.061a19.456,19.456,0,0,0-6.873-2.863V11H92.6v4.313a19.456,19.456,0,0,0-6.873,2.863l-3.061-3.061-5.541,5.541,3.061,3.061a19.456,19.456,0,0,0-2.863,6.873H73.012v7.837h4.313A19.456,19.456,0,0,0,80.188,45.3l-3.061,3.061L82.669,53.9l3.061-3.061A19.455,19.455,0,0,0,92.6,53.706" transform="translate(-73.012 -11)" fill="none" stroke="#b88230" stroke-linecap="round" stroke-linejoin="round" stroke-miterlimit="10" stroke-width="3"/>
    <path id="Path_62419" data-name="Path 62419" d="M180.179,108.114v11.033h-7.837V108.114a11.684,11.684,0,0,0,0,22.065v28.411h7.837V130.18a11.685,11.685,0,0,0,0-22.066Z" transform="translate(-152.751 -95.637)" fill="none" stroke="#088a51" stroke-linecap="round" stroke-linejoin="round" stroke-miterlimit="10" stroke-width="3"/>
  </g>
</svg>
