<svg id="Group_24889" data-name="Group 24889" xmlns="http://www.w3.org/2000/svg" width="38.54" height="38.54" viewBox="0 0 38.54 38.54">
  <g id="Group_63" data-name="Group 63" transform="translate(0 0)" style="isolation: isolate">
    <path id="Path_92" data-name="Path 92" d="M21.27,40.54A19.27,19.27,0,1,0,2,21.27,19.27,19.27,0,0,0,21.27,40.54Zm-7.708-21.2h5.781V13.562a1.927,1.927,0,0,1,3.854,0v5.781h5.781a1.927,1.927,0,0,1,0,3.854H23.2v5.781a1.927,1.927,0,0,1-3.854,0V23.2H13.562a1.927,1.927,0,0,1,0-3.854Z" transform="translate(-2 -2)" fill="#b88230"/>
    <path id="Path_93" data-name="Path 93" d="M8.927,14.708h5.781V8.927a1.927,1.927,0,1,1,3.854,0v5.781h5.781a1.927,1.927,0,1,1,0,3.854H18.562v5.781a1.927,1.927,0,1,1-3.854,0V18.562H8.927a1.927,1.927,0,1,1,0-3.854Z" transform="translate(2.635 2.635)" fill="#fff"/>
  </g>
</svg>
