<svg xmlns="http://www.w3.org/2000/svg" width="64.711" height="58.715" viewBox="0 0 64.711 58.715">
  <g id="Group_24873" data-name="Group 24873" transform="translate(0 0)">
    <path id="Path_97" data-name="Path 97" d="M49.208,16.911V7.961A3.065,3.065,0,0,0,46.143,4.9H3.559A3.065,3.065,0,0,0,.494,7.961V39.737A3.065,3.065,0,0,0,3.559,42.8H31.33a1.022,1.022,0,1,0,0-2.043H3.559a1.022,1.022,0,0,1-1.022-1.022V7.961A1.022,1.022,0,0,1,3.559,6.939H46.143a1.022,1.022,0,0,1,1.022,1.022v8.95a1.022,1.022,0,0,0,2.043,0Z" transform="translate(-0.494 -4.896)" fill="#b88230" fill-rule="evenodd"/>
    <path id="Path_98" data-name="Path 98" d="M24.851,17.142A5.449,5.449,0,1,0,30.3,22.591,5.452,5.452,0,0,0,24.851,17.142Zm0,2.043a3.406,3.406,0,1,1-3.406,3.406A3.407,3.407,0,0,1,24.851,19.185ZM17.1,37.477A1.022,1.022,0,0,0,18.124,38.5H31.578A1.022,1.022,0,0,0,32.6,37.477a7.749,7.749,0,1,0-15.5,0Zm2.135-1.022a5.707,5.707,0,0,1,11.228,0ZM1.516,15.5h46.67a1.022,1.022,0,0,0,0-2.043H1.516a1.022,1.022,0,0,0,0,2.043Zm40.97-5.511H40.664a1.022,1.022,0,0,0,0,2.043h1.821a1.022,1.022,0,0,0,0-2.043Zm-5.91,0H34.754a1.022,1.022,0,0,0,0,2.043h1.821a1.022,1.022,0,0,0,0-2.043Zm9.794,38.081a13.751,13.751,0,0,0,18.713-14.63,3.064,3.064,0,0,0-5.208-1.774L55.07,36.469,51.032,35.7l-1.055-4.366q2.25-2.252,4.5-4.507a3.058,3.058,0,0,0-1.949-5.21A13.736,13.736,0,0,0,38.515,39.9L22.961,55.457a5.549,5.549,0,0,0-.041,7.807l.3.3a5.549,5.549,0,0,0,7.924.005Zm.188-2.142a1.022,1.022,0,0,0-1.156.212l-15.717,16a3.507,3.507,0,0,1-5.006,0l-.3-.3a3.506,3.506,0,0,1,.025-4.932L40.428,40.88a1.02,1.02,0,0,0,.222-1.111A11.694,11.694,0,0,1,52.368,23.651h.01a1.015,1.015,0,0,1,.648,1.729l0,0q-2.446,2.457-4.9,4.909a1.022,1.022,0,0,0-.27.962L49.2,36.816a1.021,1.021,0,0,0,.8.763l5.216,1a1.021,1.021,0,0,0,.914-.281l5.188-5.188a1.023,1.023,0,0,1,1.737.594v.006a11.707,11.707,0,0,1-16.5,12.218Z" transform="translate(-0.494 -6.519)" fill="#b88230" fill-rule="evenodd"/>
  </g>
</svg>
