<svg id="Group_89" data-name="Group 89" xmlns="http://www.w3.org/2000/svg" width="33.938" height="38.083" viewBox="0 0 33.938 38.083">
  <path id="Path_116" data-name="Path 116" d="M2.785,242.13a6.076,6.076,0,0,1-.91-3.434,5.921,5.921,0,0,1,1.458-3.754l2.218-2.489a17.242,17.242,0,0,1-.4-5.776.514.514,0,0,1,.549-.493.546.546,0,0,1,.439.616,16.018,16.018,0,0,0,.231,4.731l.712-.8a1.789,1.789,0,0,1,2.734,0,2.364,2.364,0,0,1,0,3.067L7.95,235.9a14.327,14.327,0,0,0,1.857,2.637,11.888,11.888,0,0,0,11.828,3.857l-.713-.8a2.361,2.361,0,0,1,0-3.067,1.791,1.791,0,0,1,2.734,0l1.87,2.1a13.156,13.156,0,0,0,2.357-2.089,14.341,14.341,0,0,0,1.942-2.793c.005-.012.009-.025.015-.036q.312-.593.572-1.218a15.266,15.266,0,0,0,.629-1.82.611.611,0,0,1,.029-.08,15.989,15.989,0,0,0,.5-5.5.543.543,0,0,1,.45-.606.517.517,0,0,1,.54.505,17.231,17.231,0,0,1-.482,5.688l2.141,2.4a5.923,5.923,0,0,1,1.458,3.733,6.077,6.077,0,0,1-.888,3.42l.05.056a2.416,2.416,0,0,1,0,3.141l-.922,1.034a1.832,1.832,0,0,1-2.8,0l-.045-.05a4.6,4.6,0,0,1-2.87,1.025,4.521,4.521,0,0,1-.92-.1.557.557,0,0,1-.4-.65.5.5,0,0,1,.579-.447,3.628,3.628,0,0,0,2.892-.638l-1.047-1.175a2.286,2.286,0,0,1-.52-1.027,1.737,1.737,0,0,1-2.407-.242L25.1,241.722l0,0-2.144-2.406a.87.87,0,0,0-1.328,0,1.146,1.146,0,0,0,0,1.489l1.326,1.488.005.006,2.419,2.715a4.235,4.235,0,0,0,.42.411.6.6,0,0,1,.1.781.48.48,0,0,1-.4.221.461.461,0,0,1-.3-.113,5.224,5.224,0,0,1-.523-.511l-2.217-2.488a12.328,12.328,0,0,1-7.421-.064l-2.15,2.414A4.738,4.738,0,0,1,9.559,247.3q-.1,0-.2,0a4.6,4.6,0,0,1-2.846-1l-.05.056a1.832,1.832,0,0,1-2.8,0l-.922-1.034a2.416,2.416,0,0,1,0-3.14Zm31.9-3.271a4.742,4.742,0,0,0-1.167-2.989l-1.788-2.007a16.3,16.3,0,0,1-.841,2.035l.987,1.107a2.236,2.236,0,0,1,.552,1.5,2.284,2.284,0,0,1-.317,1.176,1.925,1.925,0,0,1,.922.584l1.042,1.169A4.888,4.888,0,0,0,34.69,238.859Zm-4.671,4.788,1.445,1.621h0l.363.407a.912.912,0,0,0,1.392,0l.922-1.034a1.2,1.2,0,0,0,0-1.562l-.355-.4,0,0-1.449-1.626a.911.911,0,0,0-1.389,0l-.881.988-.044.05a1.2,1.2,0,0,0,0,1.562Zm-2.927-1.269a.823.823,0,0,0,1.259,0l.96-1.077,0-.006.429-.482.493-.552,0,0,.936-1.05a1.086,1.086,0,0,0,0-1.413l-.816-.916a15.4,15.4,0,0,1-1.539,2.171l.256.287a.608.608,0,0,1,.108.608.5.5,0,0,1-.459.344.47.47,0,0,1-.352-.163l-.264-.3a14.107,14.107,0,0,1-1.863,1.6ZM9.114,231.522a.869.869,0,0,0-1.327,0l-3.75,4.209a4.928,4.928,0,0,0-.535,5.595l1.047-1.175a1.926,1.926,0,0,1,.915-.582,2.282,2.282,0,0,1-.337-1.207,2.237,2.237,0,0,1,.552-1.5l3.435-3.854A1.148,1.148,0,0,0,9.114,231.522Zm.237,8.071-.259.291a.46.46,0,0,1-.7,0,.607.607,0,0,1,0-.789l.268-.3A15.469,15.469,0,0,1,7.23,236.7l-.847.951a1.087,1.087,0,0,0,0,1.413l.962,1.08,0,0,.922,1.034,0,0,.936,1.051a.825.825,0,0,0,1.259,0l.822-.922A14.163,14.163,0,0,1,9.352,239.593Zm.167,6.588a3.8,3.8,0,0,0,2.664-1.309l1.794-2.013q-.5-.211-.983-.465-.424-.222-.833-.477l-.99,1.111a1.737,1.737,0,0,1-2.379.263,2.291,2.291,0,0,1-.522,1.034l-1.041,1.168a3.663,3.663,0,0,0,2.291.687Zm-6.076-1.65.922,1.034a.911.911,0,0,0,1.392,0l1.808-2.029a1.2,1.2,0,0,0,0-1.561l-.924-1.037a.911.911,0,0,0-1.391,0L3.8,242.571h0l-.355.4a1.2,1.2,0,0,0,0,1.562Zm0,0" transform="translate(-1.872 -209.357)" fill="#ae7b35"/>
  <path id="Path_117" data-name="Path 117" d="M28.606,16.7a1.788,1.788,0,0,1-2.733,0,2.364,2.364,0,0,1,0-3.067l1.876-2.105a14.3,14.3,0,0,0-1.713-2.471A.565.565,0,0,1,26,9.016a.547.547,0,0,1-.045-.058l-.059-.067a13.165,13.165,0,0,0-2.458-2.157.482.482,0,0,1-.074-.04,12.217,12.217,0,0,0-1.084-.642,11.919,11.919,0,0,0-1.623-.705.456.456,0,0,1-.083-.04,11.436,11.436,0,0,0-6.526-.268l.721.809a2.358,2.358,0,0,1,0,3.067,1.789,1.789,0,0,1-2.733,0l-1.874-2.1A13.155,13.155,0,0,0,7.815,8.891a14.364,14.364,0,0,0-2.047,2.992,22.282,22.282,0,0,0-1.109,2.828.6.6,0,0,1-.034.12v0c-.1.37-.3.331-.454.331h0A.471.471,0,0,1,3.82,15L1.463,12.357A5.922,5.922,0,0,1,.005,8.623,6.077,6.077,0,0,1,.893,5.2l-.05-.056a2.35,2.35,0,0,1-.579-1.57,2.349,2.349,0,0,1,.579-1.57L1.765.973a1.832,1.832,0,0,1,2.8,0l.045.05A4.594,4.594,0,0,1,7.669,0a4.736,4.736,0,0,1,3.346,1.636l2.209,2.479a12.325,12.325,0,0,1,7.443.057l2.139-2.4A4.738,4.738,0,0,1,26.132.139a4.59,4.59,0,0,1,3.048,1l.05-.056a1.832,1.832,0,0,1,2.8,0l.922,1.034a2.348,2.348,0,0,1,.58,1.57,2.349,2.349,0,0,1-.58,1.57l-.045.05a6.079,6.079,0,0,1,.91,3.434,5.922,5.922,0,0,1-1.458,3.754ZM6.393,6.119l-.02.023L4.511,8.23a1.087,1.087,0,0,0,0,1.413l.817.917A15.411,15.411,0,0,1,6.866,8.387L6.61,8.1a.607.607,0,0,1,0-.789.46.46,0,0,1,.7,0l.263.295A14.1,14.1,0,0,1,9.437,6L8.6,5.06a.825.825,0,0,0-1.26,0ZM1,8.579a4.741,4.741,0,0,0,1.167,2.989l1.8,2.021A21.247,21.247,0,0,1,4.8,11.545l-.992-1.113a2.235,2.235,0,0,1-.552-1.5,2.285,2.285,0,0,1,.318-1.176,1.923,1.923,0,0,1-.922-.584L1.61,6.008A4.887,4.887,0,0,0,1,8.579Zm2.166-7.14a.93.93,0,0,0-.7.323L1.546,2.8a1.2,1.2,0,0,0,0,1.562l.362.406,0,0,1.444,1.62a.911.911,0,0,0,1.392,0l.922-1.034a1.2,1.2,0,0,0,0-1.562L3.86,1.762a.929.929,0,0,0-.7-.323Zm7.147.989a3.694,3.694,0,0,0-4.986-.6L6.372,3A2.286,2.286,0,0,1,6.891,4.03,1.737,1.737,0,0,1,9.3,4.271l3.435,3.854a.869.869,0,0,0,1.328,0,1.145,1.145,0,0,0,0-1.489Zm19,7.352a1.087,1.087,0,0,0,0-1.413L26.482,5.2a.824.824,0,0,0-1.259,0l-.812.911a14.261,14.261,0,0,1,1.936,1.726l.251-.282a.46.46,0,0,1,.7,0,.608.608,0,0,1,0,.789l-.258.29a15.4,15.4,0,0,1,1.427,2.09ZM26.172,1.254a3.793,3.793,0,0,0-2.664,1.31l-1.786,2a13.1,13.1,0,0,1,1.814.943l.984-1.1a1.736,1.736,0,0,1,2.38-.263,2.287,2.287,0,0,1,.522-1.035L28.463,1.94a3.658,3.658,0,0,0-2.291-.687ZM32.247,2.9l-.922-1.034a.912.912,0,0,0-1.392,0l-.36.4-.005.006L28.124,3.9a1.2,1.2,0,0,0,0,1.562l.922,1.034a.911.911,0,0,0,1.392,0l1.808-2.029a1.2,1.2,0,0,0,0-1.562Zm-.059,3.206L31.142,7.284a1.926,1.926,0,0,1-.916.582,2.28,2.28,0,0,1,.337,1.207,2.238,2.238,0,0,1-.552,1.5l-3.435,3.854a1.148,1.148,0,0,0,0,1.49.869.869,0,0,0,1.327,0L31.654,11.7A4.926,4.926,0,0,0,32.188,6.109Zm-8.642,14.9,2.44,2.427a1.14,1.14,0,0,1,.079,1.478l-1.344,1.7,0,.006,0,0-1.289,1.632a.889.889,0,0,1-.7.352.873.873,0,0,1-.618-.263l-2.44-2.427a1.14,1.14,0,0,1-.079-1.478l2.641-3.344a.865.865,0,0,1,1.317-.089Zm-.614.88L21.975,23.1l2.333,2.355.974-1.233Zm-.212,5.577.927-1.174-2.333-2.355-.942,1.192Zm0,0" transform="translate(0.12 0.002)" fill="#ae7b35"/>
  <path id="Path_118" data-name="Path 118" d="M284.479,129.992l3.5,3.481a1.183,1.183,0,0,1,.338.78,1.213,1.213,0,0,1-.252.819l-2.541,3.216a.959.959,0,0,1-.756.381.942.942,0,0,1-.668-.285l-3.5-3.481a1.182,1.182,0,0,1-.338-.779,1.212,1.212,0,0,1,.252-.819l2.54-3.216a.936.936,0,0,1,1.425-.1Zm-3.225,4.064a.014.014,0,0,0,0,.011h0l3.5,3.481a.011.011,0,0,0,.011,0,.013.013,0,0,0,.01-.006l2.54-3.216a.016.016,0,0,0,0-.012.017.017,0,0,0,0-.012l-3.5-3.481a.014.014,0,0,0-.011,0,.014.014,0,0,0-.01.005l-2.541,3.216A.014.014,0,0,0,281.254,134.056Zm0,0" transform="translate(-272.957 -120.059)" fill="#ae7b35"/>
</svg>
