<svg xmlns="http://www.w3.org/2000/svg" width="32.827" height="32.827" viewBox="0 0 32.827 32.827">
  <g id="Group_96" data-name="Group 96" transform="translate(-2 -2)">
    <g id="_08-Birthday" data-name="08-Birthday" transform="translate(2 2)">
      <path id="Path_112" data-name="Path 112" d="M23.848,28.378a1.641,1.641,0,0,0,1.641-1.641,6.413,6.413,0,0,0-1.193-2.5.547.547,0,0,0-.9,0,6.413,6.413,0,0,0-1.193,2.5A1.641,1.641,0,0,0,23.848,28.378Zm0-2.818a4.092,4.092,0,0,1,.547,1.176.547.547,0,1,1-1.094,0A4.158,4.158,0,0,1,23.848,25.56Zm-5.471,2.818a1.641,1.641,0,0,0,1.641-1.641,6.413,6.413,0,0,0-1.193-2.5.547.547,0,0,0-.9,0,6.413,6.413,0,0,0-1.193,2.5A1.641,1.641,0,0,0,18.377,28.378Zm0-2.818a4.092,4.092,0,0,1,.547,1.176.547.547,0,1,1-1.094,0,4.158,4.158,0,0,1,.547-1.176Zm-1.641,6.647H15.641A1.641,1.641,0,0,0,14,33.849v7.112a.547.547,0,0,0,.547.547h18.6a.547.547,0,0,0,.547-.547V33.849a1.641,1.641,0,0,0-1.641-1.641H30.96V29.472a.547.547,0,0,0-.547-.547H28.225a.547.547,0,0,0-.547.547v2.736H25.489V29.472a.547.547,0,0,0-.547-.547H22.754a.547.547,0,0,0-.547.547v2.736H20.018V29.472a.547.547,0,0,0-.547-.547H17.283a.547.547,0,0,0-.547.547ZM32.6,40.414H15.094v-3.83c.306,0,.438.12.706.388a1.909,1.909,0,0,0,2.965,0c.268-.268.4-.388.706-.388s.438.12.706.388a1.909,1.909,0,0,0,2.965,0c.268-.268.4-.388.706-.388s.438.12.706.388a1.909,1.909,0,0,0,2.965,0c.268-.268.4-.388.706-.388s.438.12.706.388a1.909,1.909,0,0,0,2.965,0c.268-.268.4-.388.706-.388Zm0-6.565V35.49a1.97,1.97,0,0,0-1.483.706c-.268.268-.4.388-.706.388s-.438-.12-.706-.388a1.909,1.909,0,0,0-2.965,0c-.268.268-.4.388-.706.388s-.438-.12-.706-.388a1.909,1.909,0,0,0-2.965,0c-.268.268-.4.388-.706.388s-.438-.12-.706-.388a1.909,1.909,0,0,0-2.965,0c-.268.268-.4.388-.706.388s-.438-.12-.706-.388a1.97,1.97,0,0,0-1.483-.706V33.849a.547.547,0,0,1,.547-.547H32.055A.547.547,0,0,1,32.6,33.849Zm-3.83-3.83h1.094v2.188H28.772Zm-5.471,0H24.4v2.188H23.3Zm-4.377,0v2.188H17.83V30.019Zm10.4-1.641a1.641,1.641,0,0,0,1.641-1.641,6.413,6.413,0,0,0-1.193-2.5.547.547,0,0,0-.9,0,6.413,6.413,0,0,0-1.193,2.5A1.641,1.641,0,0,0,29.319,28.378Zm0-2.818a4.092,4.092,0,0,1,.547,1.176.547.547,0,0,1-1.094,0,4.158,4.158,0,0,1,.547-1.176Z" transform="translate(-7.435 -11.965)" fill="#0f0f0f"/>
      <path id="Path_113" data-name="Path 113" d="M33.185,4.736H29.9V3.641a1.641,1.641,0,1,0-3.283,0V4.736H23.337V3.641a1.641,1.641,0,0,0-3.283,0V4.736H16.772V3.641a1.641,1.641,0,0,0-3.283,0V4.736H10.207V3.641a1.641,1.641,0,1,0-3.283,0V4.736H3.641A1.641,1.641,0,0,0,2,6.377v8.207a.547.547,0,0,0,1.094,0V11.848H33.732v16.96a.547.547,0,1,0,1.094,0V6.377a1.641,1.641,0,0,0-1.641-1.641ZM27.714,3.641a.547.547,0,1,1,1.094,0V6.924a.547.547,0,1,1-1.094,0Zm-6.565,0a.547.547,0,1,1,1.094,0V6.924a.547.547,0,1,1-1.094,0Zm-6.565,0a.547.547,0,1,1,1.094,0V6.924a.547.547,0,1,1-1.094,0Zm-6.565,0a.547.547,0,1,1,1.094,0V6.924a.547.547,0,1,1-1.094,0ZM3.094,10.754V6.377a.547.547,0,0,1,.547-.547H6.924V6.924a1.641,1.641,0,1,0,3.283,0V5.83h3.283V6.924a1.641,1.641,0,0,0,3.283,0V5.83h3.283V6.924a1.641,1.641,0,0,0,3.283,0V5.83H26.62V6.924a1.641,1.641,0,0,0,3.283,0V5.83h3.283a.547.547,0,0,1,.547.547v4.377ZM34.28,30.45a.547.547,0,0,0-.547.547v2.188a.547.547,0,0,1-.547.547H3.641a.547.547,0,0,1-.547-.547V16.772a.547.547,0,0,0-1.094,0V33.185a1.641,1.641,0,0,0,1.641,1.641H33.185a1.641,1.641,0,0,0,1.641-1.641V31A.547.547,0,0,0,34.28,30.45Z" transform="translate(-2 -2)" fill="#0f0f0f"/>
    </g>
  </g>
</svg>
