<svg id="Group_90" data-name="Group 90" xmlns="http://www.w3.org/2000/svg" width="32.379" height="32.061" viewBox="0 0 32.379 32.061">
  <path id="Path_119" data-name="Path 119" d="M68.131,106.552h-7.4a.828.828,0,0,0,0,1.644h7.4a.828.828,0,0,0,0-1.644Zm11.062,0h-7.4a.828.828,0,0,0,0,1.644h7.4a.828.828,0,0,0,0-1.644Zm0-20.552H60.733a.828.828,0,0,0,0,1.644H79.193a.828.828,0,0,0,0-1.644Zm0,4.11h-7.4a.828.828,0,0,0,0,1.644h7.4a.828.828,0,0,0,0-1.644Zm0,4.11h-7.4a.828.828,0,0,0,0,1.644h7.4a.828.828,0,0,0,0-1.644Zm0,4.11h-7.4a.828.828,0,0,0,0,1.644h7.4a.828.828,0,0,0,0-1.644Zm0,4.11h-7.4a.828.828,0,0,0,0,1.644h7.4a.828.828,0,0,0,0-1.644Zm-11.062,0h-7.4a.828.828,0,0,0,0,1.644h7.4a.828.828,0,0,0,0-1.644Zm0-12.331h-7.4a.781.781,0,0,0-.733.822v8.3a.781.781,0,0,0,.733.822h7.4a.781.781,0,0,0,.733-.822v-8.3A.781.781,0,0,0,68.131,90.11Zm-.733,8.3H61.465V91.754H67.4Z" transform="translate(-55.605 -81.068)" fill="#ae7b35"/>
  <path id="Path_120" data-name="Path 120" d="M30.914,30.11h-2.2V27.644A1.564,1.564,0,0,0,27.251,26H1.465A1.564,1.564,0,0,0,0,27.644V53.95a3.91,3.91,0,0,0,3.663,4.11H28.716a3.91,3.91,0,0,0,3.663-4.11v-22.2A1.564,1.564,0,0,0,30.914,30.11Zm0,23.84a2.346,2.346,0,0,1-2.2,2.466H3.663a2.346,2.346,0,0,1-2.2-2.466V27.644H27.251V52.717a1.955,1.955,0,0,0,1.831,2.055.828.828,0,0,0,0-1.644.391.391,0,0,1-.366-.411V31.754h2.2Z" transform="translate(0 -26)" fill="#ae7b35"/>
</svg>
