<svg id="Group_24888" data-name="Group 24888" xmlns="http://www.w3.org/2000/svg" width="58.698" height="58.699" viewBox="0 0 58.698 58.699">
  <path id="Path_62411" data-name="Path 62411" d="M33.892,49.957H29.978a.978.978,0,1,1,0-1.957h3.913a.978.978,0,0,1,0,1.957Z" transform="translate(-2.586 -2.998)" fill="#6b71f2"/>
  <g id="Group_24881" data-name="Group 24881" transform="translate(0 0)">
    <path id="Path_62412" data-name="Path 62412" d="M55.807,53H6.892A4.893,4.893,0,0,1,2,48.111V12.892A4.893,4.893,0,0,1,6.892,8h18.47a.978.978,0,0,1,0,1.957H6.892a2.944,2.944,0,0,0-2.935,2.935V48.111a2.944,2.944,0,0,0,2.935,2.935H55.807a2.944,2.944,0,0,0,2.935-2.935V12.892a2.93,2.93,0,0,0-2.045-2.8.975.975,0,1,1,.587-1.859A4.861,4.861,0,0,1,60.7,12.892V48.111A4.893,4.893,0,0,1,55.807,53Z" transform="translate(-2 -2.13)" fill="#b88230"/>
    <path id="Path_62413" data-name="Path 62413" d="M55.807,52.872H6.892A4.893,4.893,0,0,1,2,47.981V44.067a.981.981,0,0,1,.978-.978H59.72a.981.981,0,0,1,.978.978v3.913A4.893,4.893,0,0,1,55.807,52.872ZM3.957,45.046v2.935a2.944,2.944,0,0,0,2.935,2.935H55.807a2.944,2.944,0,0,0,2.935-2.935V45.046Zm37.176-13.7A14.675,14.675,0,0,1,41.132,2a.981.981,0,0,1,.978.978v5.87a.981.981,0,0,1-.978.978,6.848,6.848,0,1,0,4.852,11.691.974.974,0,0,1,1.379,0l4.148,4.148a.968.968,0,0,1,.284.695,1.01,1.01,0,0,1-.284.695,14.619,14.619,0,0,1-10.38,4.295ZM40.154,4a12.717,12.717,0,1,0,9.255,22.335L46.63,23.552A8.8,8.8,0,1,1,40.154,7.929Z" transform="translate(-2 -2)" fill="#b88230"/>
    <path id="Path_62414" data-name="Path 62414" d="M51.786,27.642a1.01,1.01,0,0,1-.695-.284L46.944,23.21a.974.974,0,0,1,0-1.379,6.848,6.848,0,0,0,2.006-4.852A.981.981,0,0,1,49.927,16H55.8a.981.981,0,0,1,.978.978,14.635,14.635,0,0,1-4.295,10.38.969.969,0,0,1-.695.284Zm-2.808-5.165,2.778,2.778a12.629,12.629,0,0,0,3.023-7.3H50.847a8.78,8.78,0,0,1-1.869,4.52Z" transform="translate(-2.969 -2.304)" fill="#b88230"/>
  </g>
  <path id="Path_62415" data-name="Path 62415" d="M49.631,35.957H33.978a.978.978,0,1,1,0-1.957H49.631a.978.978,0,1,1,0,1.957Zm0,3.913H33.978a.978.978,0,0,1,0-1.957H49.631a.978.978,0,1,1,0,1.957Z" transform="translate(-2.672 -2.694)" fill="#088a51"/>
  <path id="Path_62416" data-name="Path 62416" d="M23.631,39.61H7.978A.981.981,0,0,1,7,38.631V22.978a.978.978,0,1,1,1.957,0V37.653H23.631a.978.978,0,1,1,0,1.957Z" transform="translate(-2.108 -2.434)" fill="#b88230"/>
  <path id="Path_62417" data-name="Path 62417" d="M11.978,32.328a1,1,0,0,1-.695-.284.974.974,0,0,1,0-1.379L15.2,26.751a.974.974,0,0,1,1.379,0l2.24,2.24,4.2-4.2a.975.975,0,0,1,1.379,1.379L19.5,31.066a.974.974,0,0,1-1.379,0l-2.24-2.24-3.219,3.219a.961.961,0,0,1-.695.284ZM41.22,60.7H21.654a.977.977,0,0,1-.832-.46.965.965,0,0,1-.039-.949l1.957-3.913a.978.978,0,1,1,1.751.871l-1.252,2.495h16.4l-1.252-2.495a.978.978,0,1,1,1.751-.871l1.957,3.913a.965.965,0,0,1-.039.949.977.977,0,0,1-.832.46Zm13.8-43.046h-5.87a.981.981,0,0,1-.978-.978,6.856,6.856,0,0,0-6.848-6.848.981.981,0,0,1-.978-.978V2.978A.981.981,0,0,1,41.328,2,14.693,14.693,0,0,1,56,16.675.981.981,0,0,1,55.024,17.653ZM50.074,15.7h3.933A12.744,12.744,0,0,0,42.306,4V7.929A8.808,8.808,0,0,1,50.074,15.7Z" transform="translate(-2.195 -2)" fill="#088a51"/>
</svg>
