<svg xmlns="http://www.w3.org/2000/svg" xmlns:xlink="http://www.w3.org/1999/xlink" width="44.59" height="44.59" viewBox="0 0 44.59 44.59">
  <defs>
    <clipPath id="clip-path">
      <path id="Path_69" data-name="Path 69" d="M0-682.665H44.59v44.59H0Z" transform="translate(0 682.665)" fill="#2e2e2e"/>
    </clipPath>
  </defs>
  <g id="Group_40" data-name="Group 40" transform="translate(0 0)" clip-path="url(#clip-path)">
    <path id="Path_57" data-name="Path 57" d="M-583.98,0h-38.336a2.474,2.474,0,0,0-2.474,2.474v5.75a2.474,2.474,0,0,0,2.474,2.474h38.336a2.474,2.474,0,0,0,2.474-2.474V2.474A2.474,2.474,0,0,0-583.98,0Z" transform="translate(625.442 16.946)" fill="none" stroke="#0f0f0f" stroke-linecap="round" stroke-linejoin="round" stroke-miterlimit="10" stroke-width="1"/>
    <path id="Path_58" data-name="Path 58" d="M-101.19,0a19.641,19.641,0,0,0-7.071,10.317" transform="translate(111.679 6.629)" fill="none" stroke="#0f0f0f" stroke-linecap="round" stroke-linejoin="round" stroke-miterlimit="10" stroke-width="1"/>
    <path id="Path_59" data-name="Path 59" d="M-400.8-204.149a19.623,19.623,0,0,0-18.877-14.266,19.529,19.529,0,0,0-9.132,2.251" transform="translate(441.971 221.095)" fill="none" stroke="#0f0f0f" stroke-linecap="round" stroke-linejoin="round" stroke-miterlimit="10" stroke-width="1"/>
    <path id="Path_60" data-name="Path 60" d="M0-139.9a19.63,19.63,0,0,0,6.387-9.777" transform="translate(34.785 177.322)" fill="none" stroke="#0f0f0f" stroke-linecap="round" stroke-linejoin="round" stroke-miterlimit="10" stroke-width="1"/>
    <path id="Path_61" data-name="Path 61" d="M0,0A19.624,19.624,0,0,0,18.877,14.266,19.525,19.525,0,0,0,28.79,11.58" transform="translate(3.418 27.644)" fill="none" stroke="#0f0f0f" stroke-linecap="round" stroke-linejoin="round" stroke-miterlimit="10" stroke-width="1"/>
    <path id="Path_62" data-name="Path 62" d="M-103.111,0l-1.8,4.949L-106.714,0l-1.8,4.949L-110.317,0" transform="translate(129.009 19.82)" fill="none" stroke="#0f0f0f" stroke-linecap="round" stroke-linejoin="round" stroke-miterlimit="10" stroke-width="1"/>
    <path id="Path_63" data-name="Path 63" d="M-103.11,0l-1.8,4.949L-106.713,0l-1.8,4.949L-110.316,0" transform="translate(119.319 19.82)" fill="none" stroke="#0f0f0f" stroke-linecap="round" stroke-linejoin="round" stroke-miterlimit="10" stroke-width="1"/>
    <path id="Path_64" data-name="Path 64" d="M0,0,1.8,4.949,3.6,0,5.4,4.949,7.206,0" transform="translate(28.381 19.82)" fill="none" stroke="#0f0f0f" stroke-linecap="round" stroke-linejoin="round" stroke-miterlimit="10" stroke-width="1"/>
    <path id="Path_65" data-name="Path 65" d="M-256.622-204.149a31.462,31.462,0,0,0-8.967-14.266,31.462,31.462,0,0,0-8.967,14.266" transform="translate(287.884 221.095)" fill="none" stroke="#0f0f0f" stroke-linecap="round" stroke-linejoin="round" stroke-miterlimit="10" stroke-width="1"/>
    <path id="Path_66" data-name="Path 66" d="M0,0A31.462,31.462,0,0,0,8.967,14.266,31.462,31.462,0,0,0,17.933,0" transform="translate(13.328 27.644)" fill="none" stroke="#0f0f0f" stroke-linecap="round" stroke-linejoin="round" stroke-miterlimit="10" stroke-width="1"/>
    <path id="Path_67" data-name="Path 67" d="M0,0H31.288" transform="translate(6.65 34.128)" fill="none" stroke="#0f0f0f" stroke-linecap="round" stroke-linejoin="round" stroke-miterlimit="10" stroke-width="1"/>
    <path id="Path_68" data-name="Path 68" d="M0,0H31.288" transform="translate(6.651 10.462)" fill="none" stroke="#0f0f0f" stroke-linecap="round" stroke-linejoin="round" stroke-miterlimit="10" stroke-width="1"/>
  </g>
</svg>
