<svg xmlns="http://www.w3.org/2000/svg" xmlns:xlink="http://www.w3.org/1999/xlink" width="28.35" height="28.35" viewBox="0 0 28.35 28.35">
  <defs>
    <clipPath id="clip-path">
      <path id="Path_56" data-name="Path 56" d="M0-682.665H28.35v28.35H0Z" transform="translate(0 682.665)"/>
    </clipPath>
  </defs>
  <g id="Group_24893" data-name="Group 24893" transform="translate(0 0)">
    <g id="Group_38" data-name="Group 38" transform="translate(0 0)">
      <g id="Group_37" data-name="Group 37" transform="translate(0 0)" clip-path="url(#clip-path)">
        <path id="Path_45" data-name="Path 45" d="M-302.551-.741A6.615,6.615,0,0,1-299.689.947a6.645,6.645,0,0,1,0,9.4l-4.628,4.627a6.644,6.644,0,0,1-9.4,0,6.644,6.644,0,0,1,0-9.4l4.628-4.628a6.614,6.614,0,0,1,2.978-1.721A6.614,6.614,0,0,0-309.086.947l-4.628,4.628a6.644,6.644,0,0,0,0,9.4,6.644,6.644,0,0,0,9.4,0l4.628-4.627a6.645,6.645,0,0,0,0-9.4A6.615,6.615,0,0,0-302.551-.741Z" transform="translate(316.213 10.878)" fill="none" stroke="#b88230" stroke-linecap="round" stroke-linejoin="round" stroke-miterlimit="10" stroke-width="1.5"/>
        <path id="Path_46" data-name="Path 46" d="M0-249.493a3.321,3.321,0,0,0,.661-.512l4.628-4.627a3.326,3.326,0,0,0,0-4.7,3.328,3.328,0,0,0-4.28-.354" transform="translate(18.212 264.18)" fill="none" stroke="#b88230" stroke-linecap="round" stroke-linejoin="round" stroke-miterlimit="10" stroke-width="1.5"/>
        <path id="Path_47" data-name="Path 47" d="M-281.213,0-283.1,1.887a3.326,3.326,0,0,0,0,4.7,3.326,3.326,0,0,1,0,4.7l-4.627,4.628a3.326,3.326,0,0,1-4.7,0,3.326,3.326,0,0,1,0-4.7l4.628-4.627a3.317,3.317,0,0,1,.661-.512" transform="translate(297.275 7.59)" fill="none" stroke="#b88230" stroke-linecap="round" stroke-linejoin="round" stroke-miterlimit="10" stroke-width="1.5"/>
        <path id="Path_48" data-name="Path 48" d="M-110.963-407.568a6.616,6.616,0,0,1-2.862-1.689,6.645,6.645,0,0,1,0-9.4l4.628-4.627a6.644,6.644,0,0,1,9.4,0,6.644,6.644,0,0,1,0,9.4l-4.628,4.628a6.614,6.614,0,0,1-2.978,1.721,6.614,6.614,0,0,0,2.978-1.721l4.628-4.628a6.644,6.644,0,0,0,0-9.4,6.644,6.644,0,0,0-9.4,0l-4.628,4.627a6.645,6.645,0,0,0,0,9.4A6.616,6.616,0,0,0-110.963-407.568Z" transform="translate(125.651 425.781)" fill="none" stroke="#b88230" stroke-linecap="round" stroke-linejoin="round" stroke-miterlimit="10" stroke-width="1.5"/>
        <path id="Path_49" data-name="Path 49" d="M-21.817-21.817a.554.554,0,0,1-.783,0,.554.554,0,0,1,0-.783.554.554,0,0,1,.783,0,.554.554,0,0,1,0,.783" transform="translate(39.836 28.232)"/>
        <path id="Path_50" data-name="Path 50" d="M0,0,2.349,2.349" transform="translate(4.778 4.778)" fill="none" stroke="#b88230" stroke-linecap="round" stroke-linejoin="round" stroke-miterlimit="10" stroke-width="1.5"/>
        <path id="Path_51" data-name="Path 51" d="M0,0H3.322" transform="translate(2.104 9.856)" fill="none" stroke="#b88230" stroke-linecap="round" stroke-linejoin="round" stroke-miterlimit="10" stroke-width="1.5"/>
        <path id="Path_52" data-name="Path 52" d="M0,0V3.322" transform="translate(9.856 1.938)" fill="none" stroke="#b88230" stroke-linecap="round" stroke-linejoin="round" stroke-miterlimit="10" stroke-width="1.5"/>
        <path id="Path_53" data-name="Path 53" d="M0,0,2.349,2.349" transform="translate(21.222 21.222)" fill="none" stroke="#b88230" stroke-linecap="round" stroke-linejoin="round" stroke-miterlimit="10" stroke-width="1.5"/>
        <path id="Path_54" data-name="Path 54" d="M0,0V3.322" transform="translate(18.438 23.089)" fill="none" stroke="#b88230" stroke-linecap="round" stroke-linejoin="round" stroke-miterlimit="10" stroke-width="1.5"/>
        <path id="Path_55" data-name="Path 55" d="M0,0H3.322" transform="translate(23.089 18.438)" fill="none" stroke="#b88230" stroke-linecap="round" stroke-linejoin="round" stroke-miterlimit="10" stroke-width="1.5"/>
      </g>
    </g>
  </g>
</svg>
