<svg id="Group_24876" data-name="Group 24876" xmlns="http://www.w3.org/2000/svg" width="59.857" height="56" viewBox="0 0 59.857 56">
  <g id="Group_24859" data-name="Group 24859" transform="translate(14.839 20.334)">
    <path id="Path_62373" data-name="Path 62373" d="M18.9,24.351a.931.931,0,0,0-1.787.056,39.313,39.313,0,0,0-1.228,12.528A.93.93,0,0,0,17,37.779l3.849-.787a8.894,8.894,0,0,0,.9-.261.93.93,0,0,0,.619-1,35.283,35.283,0,0,0-2.384-8.4c-.391-1.025-.76-1.992-1.082-2.981Zm25.752.056a.931.931,0,0,0-.873-.7.922.922,0,0,0-.913.642c-.322.989-.691,1.955-1.081,2.98a35.382,35.382,0,0,0-2.384,8.4.929.929,0,0,0,.619,1,8.615,8.615,0,0,0,.917.264l3.83.783a.93.93,0,0,0,1.114-.844,39.31,39.31,0,0,0-1.228-12.527Z" transform="translate(-15.794 -23.709)" fill="#e1e1e3"/>
  </g>
  <path id="Path_62374" data-name="Path 62374" d="M38.615,31.005a.931.931,0,0,0-1.534-.863,9.527,9.527,0,0,1-5.611,2.642,9.525,9.525,0,0,1-5.58-2.651.931.931,0,0,0-1.575.824,38.687,38.687,0,0,1,.592,4.911.937.937,0,0,0,.408.721A10.764,10.764,0,0,0,31.47,38.37a10.772,10.772,0,0,0,6.155-1.78.931.931,0,0,0,.408-.726,36.962,36.962,0,0,1,.583-4.859Z" transform="translate(-1.542 -4.012)" fill="#c8c6cc"/>
  <g id="Group_24860" data-name="Group 24860" transform="translate(0 31.661)">
    <path id="Path_62375" data-name="Path 62375" d="M13.981,38.219a1.044,1.044,0,0,0-1.165-.29c-5.516,2.11-7.351,7.1-10.8,23.156a.887.887,0,0,0,.207.772A1.028,1.028,0,0,0,3,62.2H31.929a1.006,1.006,0,0,0,.9-.522.881.881,0,0,0-.11-.981Zm37.062-.289a1.042,1.042,0,0,0-1.165.29L34.135,57.1a.883.883,0,0,0,0,1.143l2.993,3.594a1.027,1.027,0,0,0,.788.359H60.861a1.028,1.028,0,0,0,.771-.341.887.887,0,0,0,.207-.772C58.394,45.028,56.559,40.04,51.043,37.931Z" transform="translate(-2.001 -37.861)" fill="#57555c"/>
  </g>
  <g id="Group_24861" data-name="Group 24861" transform="translate(15.961 50.413)">
    <path id="Path_62376" data-name="Path 62376" d="M17.931,58a.931.931,0,0,0-.931.931v4.656h1.862V58.931A.931.931,0,0,0,17.931,58ZM44,58a.931.931,0,0,0-.931.931v4.656h1.862V58.931A.931.931,0,0,0,44,58Z" transform="translate(-17 -58)" fill="#3c3b41"/>
  </g>
  <g id="Group_24862" data-name="Group 24862" transform="translate(16.166 29.238)">
    <path id="Path_62377" data-name="Path 62377" d="M37.545,36.239a.931.931,0,0,0-1.453-.82,8.932,8.932,0,0,1-5.111,1.461,8.939,8.939,0,0,1-5.111-1.46.934.934,0,0,0-1.453.82c.027.514.046,1.038.046,1.571,0,4.181,0,6.943,1.344,10.879a.955.955,0,0,0,.146.271l4.292,5.522a.931.931,0,0,0,1.47,0l4.292-5.522a.955.955,0,0,0,.146-.271c1.345-3.936,1.345-6.7,1.345-10.878C37.5,37.279,37.518,36.754,37.545,36.239Zm-15.081.287a.934.934,0,0,0-.433-.671.925.925,0,0,0-.794-.088,6.841,6.841,0,0,1-.684.2l-2.589.531a.93.93,0,0,0-.547,1.484L20.9,42.461a.931.931,0,0,0,1.654-.426c.023-.147.035-.283.047-.429v0a24.732,24.732,0,0,0-.135-5.077Zm22.083,1.457A.93.93,0,0,0,44,36.5l-2.57-.527a6.786,6.786,0,0,1-.7-.2.932.932,0,0,0-1.227.76,24.812,24.812,0,0,0-.136,5.079c.011.146.022.282.047.429a.929.929,0,0,0,1.654.426Z" transform="translate(-17.219 -35.259)" fill="#eee"/>
  </g>
  <path id="Path_62378" data-name="Path 62378" d="M42.249,5.171C39.971.615,35.372,0,31.173,0S22.376.615,20.1,5.171a.929.929,0,0,0,.833,1.347H41.416a.932.932,0,0,0,.833-1.347Z" transform="translate(-1.245 0)" fill="#f5f5f5"/>
  <path id="Path_62379" data-name="Path 62379" d="M31.931,54.682A.931.931,0,0,1,31,53.751V33.931a.931.931,0,1,1,1.862,0v19.82A.931.931,0,0,1,31.931,54.682Z" transform="translate(-2.003 -5.865)" fill="#c8c6cc"/>
  <g id="Group_24863" data-name="Group 24863" transform="translate(3.491 34.314)">
    <path id="Path_62380" data-name="Path 62380" d="M58.625,62.4H56.55l-.171-.726c-.02-.084-2.024-8.4-4-13.874A9.252,9.252,0,0,0,48.13,42.7a6.747,6.747,0,0,0-1.027-.475l1.279-1.518q.393.182.786.391a11.247,11.247,0,0,1,5.126,6.1c2,5.568,4.039,13.976,4.059,14.06ZM17.272,42.218A9.111,9.111,0,0,0,11.994,47.8C10.02,53.271,8.016,61.586,8,61.67l-.171.726H5.75l.272-1.136c.02-.084,2.055-8.492,4.059-14.06a11.217,11.217,0,0,1,5.136-6.1q.378-.21.786-.391Z" transform="translate(-5.75 -40.71)" fill="#ffc473"/>
  </g>
  <path id="Path_62381" data-name="Path 62381" d="M31.311,12C23.616,12,22,15.545,22,18.518a29.6,29.6,0,0,0,1.06,6.122c.363,1.533.774,3.271,1.1,5.085a.963.963,0,0,0,.3.539c2.138,1.915,4.828,3.152,6.85,3.152A11.265,11.265,0,0,0,38.16,30.3a.93.93,0,0,0,.3-.533c.325-1.829.739-3.579,1.105-5.125a29.588,29.588,0,0,0,1.061-6.128C40.622,15.545,39.007,12,31.311,12Z" transform="translate(-1.383 -1.878)" fill="#f5e0cd"/>
  <path id="Path_62382" data-name="Path 62382" d="M47.6,9.564A1.068,1.068,0,0,0,46.632,9H19.165a1.067,1.067,0,0,0-.971.564c-3.1,6.371-2.262,10.662-.9,14.352.381,1.03.81,2.019,1.262,3.065a30.868,30.868,0,0,1,2.583,7.977,20.2,20.2,0,0,1,.142,4.7c-.008.1-.016.183-.032.278a.849.849,0,0,0,.209.718l5.736,6.5a1.152,1.152,0,0,0,1.336.248.887.887,0,0,0,.5-1.121C27.616,42.636,27.616,40.139,27.616,36c0-.565-.022-1.122-.054-1.67a36.258,36.258,0,0,0-.7-5.141c-.376-1.865-.85-3.629-1.268-5.186a25.661,25.661,0,0,1-1.145-5.694c0-2,.876-4.656,8.451-4.656s8.451,2.657,8.451,4.656a25.711,25.711,0,0,1-1.146,5.7c-.422,1.569-.9,3.347-1.276,5.223a34.26,34.26,0,0,0-.693,5.1c-.032.548-.054,1.1-.054,1.67,0,4.136,0,6.633-1.411,10.277a.839.839,0,0,0,.139.843,1.147,1.147,0,0,0,1.695.029l5.736-6.5a.848.848,0,0,0,.209-.718c-.017-.095-.023-.183-.032-.276a20.225,20.225,0,0,1,.142-4.7,30.861,30.861,0,0,1,2.583-7.976c.453-1.047.881-2.035,1.262-3.065h0c1.361-3.688,2.194-7.981-.9-14.351Z" transform="translate(-2.97 -0.62)" fill="#f5f5f5"/>
  <g id="Group_24864" data-name="Group 24864" transform="translate(10.236 30.368)">
    <path id="Path_62383" data-name="Path 62383" d="M18.153,36.472l-.569.11-2.5.511a12.382,12.382,0,0,0-3.4,1.28L30.145,62.1h7.943Z" transform="translate(-11.682 -36.472)" fill="#ffc473"/>
    <path id="Path_62384" data-name="Path 62384" d="M19.04,37c.028.037.056.065.074.093a.405.405,0,0,0-.056-.065Zm.41.531c-.009-.019-.019-.028-.028-.047C19.459,37.54,19.45,37.531,19.45,37.531Z" transform="translate(-12.189 -36.508)" fill="#ffc473"/>
  </g>
  <path id="Path_62385" data-name="Path 62385" d="M46.619,5H19.168A3,3,0,0,0,16,7.793a3,3,0,0,0,3.168,2.793H46.619a3,3,0,0,0,3.168-2.793A3,3,0,0,0,46.619,5Z" transform="translate(-2.965 -0.344)" fill="#57555c"/>
  <path id="Path_62386" data-name="Path 62386" d="M50.851,38.372a12.493,12.493,0,0,0-3.434-1.286l-2.469-.5-.569-.11L31.2,53.422a.932.932,0,0,0,0,1.144l2.793,3.585a.933.933,0,0,0,1.469,0Z" transform="translate(-1.006 -6.104)" fill="#ffc473"/>
  <path id="Path_62387" data-name="Path 62387" d="M33.183,52.03,32,53.548c1.2,1.555,2.523,3.25,3.967,5.1l1.183-1.518Z" transform="translate(-1.869 -7.175)" fill="#ffa91f"/>
</svg>
