<svg xmlns="http://www.w3.org/2000/svg" width="53.946" height="54.596" viewBox="0 0 53.946 54.596">
  <g id="Group_24878" data-name="Group 24878" transform="translate(0)">
    <g id="Group_24869" data-name="Group 24869" transform="translate(0 0)">
      <path id="Path_62401" data-name="Path 62401" d="M21.127,41.55H57.235a2.2,2.2,0,0,1,2.2,2.2V89.782a2.2,2.2,0,0,1-2.2,2.2H21.127a2.2,2.2,0,0,1-2.2-2.2V43.746A2.2,2.2,0,0,1,21.127,41.55Z" transform="translate(-18.264 -38.049)" fill="#fbf3f3" fill-rule="evenodd"/>
      <path id="Path_62402" data-name="Path 62402" d="M129.194,16h14.78a.705.705,0,0,1,.7.7v4.263a.705.705,0,0,1-.7.7h-14.78a.705.705,0,0,1-.7-.7V16.7A.705.705,0,0,1,129.194,16Z" transform="translate(-115.667 -15.334)" fill="#ffc66c" fill-rule="evenodd"/>
      <path id="Path_62403" data-name="Path 62403" d="M75.825,237.43h7.611a.576.576,0,0,1,.575.575v7.611a.576.576,0,0,1-.575.575H75.825a.576.576,0,0,1-.575-.575V238A.576.576,0,0,1,75.825,237.43Z" transform="translate(-68.334 -212.193)" fill="#2fb1d4" fill-rule="evenodd"/>
      <path id="Path_62404" data-name="Path 62404" d="M75.825,352.66h7.611a.576.576,0,0,1,.575.575v7.611a.576.576,0,0,1-.575.575H75.825a.576.576,0,0,1-.575-.575v-7.611A.576.576,0,0,1,75.825,352.66Z" transform="translate(-68.334 -314.636)" fill="#05e39c" fill-rule="evenodd"/>
      <path id="Path_62405" data-name="Path 62405" d="M289.473,258.887a9.482,9.482,0,0,1,2,.83.64.64,0,0,0,.755-.088l1.275-1.162a.651.651,0,0,1,.9.021l2.015,2.016a.651.651,0,0,1,.021.9l-1.162,1.275a.64.64,0,0,0-.088.755,9.455,9.455,0,0,1,.83,2,.643.643,0,0,0,.6.472l1.722.08a.651.651,0,0,1,.62.65v2.852a.651.651,0,0,1-.62.65l-1.722.08a.642.642,0,0,0-.6.472,9.482,9.482,0,0,1-.83,2,.64.64,0,0,0,.088.755l1.162,1.275a.651.651,0,0,1-.021.9l-2.016,2.016a.651.651,0,0,1-.9.021l-1.275-1.162a.64.64,0,0,0-.755-.088,9.459,9.459,0,0,1-2,.83.642.642,0,0,0-.472.6l-.08,1.722a.651.651,0,0,1-.65.62h-2.852a.651.651,0,0,1-.65-.62l-.08-1.722a.642.642,0,0,0-.472-.6,9.48,9.48,0,0,1-2-.83.64.64,0,0,0-.755.088l-1.275,1.162a.651.651,0,0,1-.9-.021l-2.016-2.016a.651.651,0,0,1-.021-.9l1.162-1.275a.64.64,0,0,0,.088-.755,9.459,9.459,0,0,1-.83-2,.642.642,0,0,0-.6-.472l-1.722-.08a.651.651,0,0,1-.62-.65v-2.852a.651.651,0,0,1,.62-.65l1.722-.08a.643.643,0,0,0,.6-.471,9.48,9.48,0,0,1,.83-2,.64.64,0,0,0-.088-.755l-1.162-1.275a.651.651,0,0,1,.021-.9l2.016-2.016a.651.651,0,0,1,.9-.021l1.275,1.162a.64.64,0,0,0,.755.088,9.48,9.48,0,0,1,2-.83.64.64,0,0,0,.471-.6l.08-1.722a.65.65,0,0,1,.65-.62h2.852a.651.651,0,0,1,.65.62l.08,1.722A.646.646,0,0,0,289.473,258.887Z" transform="translate(-245.679 -228.657)" fill="#fedf30" fill-rule="evenodd"/>
      <ellipse id="Ellipse_1127" data-name="Ellipse 1127" cx="4.504" cy="4.504" rx="4.504" ry="4.504" transform="translate(35.987 35.688) rotate(-9.25)" fill="#edf2fa"/>
      <path id="Path_62406" data-name="Path 62406" d="M140.65,153.97h6.745v5.255H140.65Z" transform="translate(-126.477 -137.994)" fill="#ffe177" fill-rule="evenodd"/>
      <path id="Path_62407" data-name="Path 62407" d="M201.42,125.62h6.745v8.4H201.42Z" transform="translate(-180.504 -112.79)" fill="#05e39c" fill-rule="evenodd"/>
      <path id="Path_62408" data-name="Path 62408" d="M262.2,95.99h6.745v11.689H262.2Z" transform="translate(-234.539 -86.448)" fill="#2fb1d4" fill-rule="evenodd"/>
      <path id="Path_62409" data-name="Path 62409" d="M79.87,173.01h6.745v3.143H79.87Z" transform="translate(-72.442 -154.921)" fill="#ff5a5a" fill-rule="evenodd"/>
      <path id="Path_62410" data-name="Path 62410" d="M21.024,28.755h5.413v1.811H21.024Zm6.745-2.113H33.18v3.924H27.769ZM34.512,23.5h5.413v7.07H34.512Zm6.745-3.288H46.67V30.566H41.257ZM20.358,31.9H47.335A.666.666,0,0,0,48,31.231V19.542a.666.666,0,0,0-.666-.666H40.591a.666.666,0,0,0-.666.666v2.622H33.846a.666.666,0,0,0-.666.666v2.48H27.1a.666.666,0,0,0-.666.666v1.447H20.358a.666.666,0,0,0-.666.666v3.143A.666.666,0,0,0,20.358,31.9ZM54.1,53.243A3.839,3.839,0,1,1,57.936,49.4,3.843,3.843,0,0,1,54.1,53.243Zm0-9.009a5.171,5.171,0,1,0,5.17,5.171A5.177,5.177,0,0,0,54.1,44.234Zm11.446,6.583V47.993l-1.708-.08a1.313,1.313,0,0,1-1.205-.953,8.788,8.788,0,0,0-.772-1.861,1.317,1.317,0,0,1,.178-1.526l1.153-1.265-2-2-1.264,1.153a1.319,1.319,0,0,1-1.527.178,8.763,8.763,0,0,0-1.861-.772,1.3,1.3,0,0,1-.953-1.2l-.08-1.709H52.686l-.08,1.709a1.3,1.3,0,0,1-.953,1.2,8.88,8.88,0,0,0-1.861.772,1.317,1.317,0,0,1-1.527-.178L47,40.312l-2,2,1.153,1.265a1.315,1.315,0,0,1,.178,1.526,8.763,8.763,0,0,0-.772,1.861,1.3,1.3,0,0,1-1.2.953l-1.709.08v2.823l1.708.079a1.316,1.316,0,0,1,1.205.953,8.763,8.763,0,0,0,.772,1.861,1.319,1.319,0,0,1-.178,1.527L45.005,56.5l2,2,1.264-1.152a1.315,1.315,0,0,1,1.527-.178,8.793,8.793,0,0,0,1.861.771,1.3,1.3,0,0,1,.953,1.205l.08,1.708h2.822l.08-1.708a1.317,1.317,0,0,1,.953-1.205,8.817,8.817,0,0,0,1.861-.771,1.313,1.313,0,0,1,1.526.178L61.193,58.5l2-2-1.152-1.264a1.315,1.315,0,0,1-.178-1.527,8.77,8.77,0,0,0,.771-1.861,1.317,1.317,0,0,1,1.205-.953ZM51.9,63.265a1.534,1.534,0,0,0,1.464-1.082h-.692a1.314,1.314,0,0,1-1.315-1.255l-.08-1.711a10.261,10.261,0,0,1-2.123-.88l-1.267,1.154a1.313,1.313,0,0,1-1.817-.042l-2.017-2.016a1.316,1.316,0,0,1-.042-1.818l1.155-1.267a10.2,10.2,0,0,1-.88-2.122l-1.712-.08a1.315,1.315,0,0,1-1.255-1.315v-.588h-8.64a.666.666,0,0,1,0-1.332h8.64v-.932a1.314,1.314,0,0,1,1.255-1.315l1.712-.08a10.168,10.168,0,0,1,.88-2.122l-1.155-1.267a1.314,1.314,0,0,1,.043-1.818l2.015-2.016a1.315,1.315,0,0,1,1.819-.042l1.267,1.154a10.207,10.207,0,0,1,2.122-.88l.08-1.711a1.314,1.314,0,0,1,1.315-1.256h.76V15.7A1.533,1.533,0,0,0,51.9,14.167H42.606v1.466A1.372,1.372,0,0,1,41.237,17H26.457a1.371,1.371,0,0,1-1.369-1.369V14.167H15.793A1.533,1.533,0,0,0,14.262,15.7V61.733a1.533,1.533,0,0,0,1.531,1.531Zm-25.481-51.9a.039.039,0,0,1,.038-.038h14.78a.04.04,0,0,1,.038.038v4.263a.041.041,0,0,1-.038.038H26.457a.04.04,0,0,1-.038-.038ZM56.905,39.59h0l-.183.639Zm8.715,7.074-1.712-.08a10.171,10.171,0,0,0-.88-2.122l1.155-1.267a1.314,1.314,0,0,0-.042-1.818L62.124,39.36a1.314,1.314,0,0,0-1.817-.041L59.04,40.473a10.13,10.13,0,0,0-2.123-.88l-.079-1.711a1.315,1.315,0,0,0-1.316-1.256h-.759V15.7A2.866,2.866,0,0,0,51.9,12.835H42.606V11.369A1.371,1.371,0,0,0,41.237,10H26.457a1.37,1.37,0,0,0-1.369,1.369v1.466H15.793A2.866,2.866,0,0,0,12.93,15.7V61.733A2.866,2.866,0,0,0,15.793,64.6H51.9a2.867,2.867,0,0,0,2.827-2.414h.795a1.315,1.315,0,0,0,1.316-1.255l.079-1.712a10.18,10.18,0,0,0,2.123-.88l1.267,1.155a1.315,1.315,0,0,0,1.818-.042l2.016-2.016a1.314,1.314,0,0,0,.042-1.818l-1.155-1.267a10.116,10.116,0,0,0,.88-2.123l1.711-.079a1.315,1.315,0,0,0,1.256-1.315V47.979A1.314,1.314,0,0,0,65.621,46.664ZM41.207,54.48a.666.666,0,0,1-.666.666H32.679a.666.666,0,0,1,0-1.332h7.862a.666.666,0,0,1,.666.666Zm-20.7,1.64V48.69h7.281L24.08,52.4l-1.023-1.022a.665.665,0,0,0-.941.941l1.493,1.493a.666.666,0,0,0,.942,0l3.39-3.39v5.7Zm7.52-8.762A1.242,1.242,0,0,1,29.272,48.6V56.21a1.242,1.242,0,0,1-1.241,1.242H20.42A1.243,1.243,0,0,1,19.18,56.21V48.6a1.243,1.243,0,0,1,1.241-1.241Zm13.175-5.665a.666.666,0,0,1-.666.666H32.679a.666.666,0,0,1,0-1.332h7.862a.666.666,0,0,1,.666.666Zm6.765-4.9a.665.665,0,0,1-.666.666H32.679a.666.666,0,0,1,0-1.332H47.305a.666.666,0,0,1,.666.666Zm-27.46,6.544V35.9h7.281L24.08,39.616l-1.023-1.022a.665.665,0,0,0-.941.941l1.493,1.493a.665.665,0,0,0,.942,0l3.39-3.39v5.695Zm7.52-8.761a1.242,1.242,0,0,1,1.241,1.241v7.611a1.241,1.241,0,0,1-1.241,1.241H20.42a1.242,1.242,0,0,1-1.241-1.241V35.812a1.243,1.243,0,0,1,1.241-1.241Z" transform="translate(-12.93 -10)" fill="#222124" fill-rule="evenodd"/>
    </g>
  </g>
</svg>
