<svg id="Group_24879" data-name="Group 24879" xmlns="http://www.w3.org/2000/svg" width="56.657" height="56.236" viewBox="0 0 56.657 56.236">
  <path id="Path_62396" data-name="Path 62396" d="M71.551,9.824V26.152a5.5,5.5,0,0,1-5.5,5.5H63.049v6.927a1.56,1.56,0,0,1-2.627,1.138L51.816,31.65H40.083a5.5,5.5,0,0,1-5.5-5.5V9.824a5.5,5.5,0,0,1,5.5-5.5H66.054a5.5,5.5,0,0,1,5.5,5.5Z" transform="translate(-14.894 -4.327)" fill="#9abbfe"/>
  <path id="Path_62397" data-name="Path 62397" d="M40.964,42.969V57.851a5.481,5.481,0,0,1-5.494,5.493H23.744l-8.611,8.09a1.568,1.568,0,0,1-2.635-1.15V63.344H9.493A5.48,5.48,0,0,1,4,57.851V41.523A5.48,5.48,0,0,1,9.493,36.03H23.706v1.41A5.48,5.48,0,0,0,29.2,42.933H40.926Z" transform="translate(-4 -15.618)" fill="#ffbc45"/>
  <path id="Path_62398" data-name="Path 62398" d="M65.583,20.432H50.739a1.856,1.856,0,0,1,0-3.711H65.583a1.856,1.856,0,0,1,0,3.711Zm0,7.422H50.739a1.856,1.856,0,0,1,0-3.711H65.583a1.856,1.856,0,0,1,0,3.711Z" transform="translate(-19.986 -8.741)" fill="#587fb7"/>
  <path id="Path_62399" data-name="Path 62399" d="M21.306,57.92a2.12,2.12,0,0,1-.7-.149,2.514,2.514,0,0,1-.594-.406,1.591,1.591,0,0,1-.408-.594,1.667,1.667,0,0,1-.149-.743,1.752,1.752,0,0,1,.556-1.3,1.863,1.863,0,0,1,2.6,0,1.838,1.838,0,0,1,.558,1.3,1.667,1.667,0,0,1-.149.743,1.587,1.587,0,0,1-.409.594A1.891,1.891,0,0,1,21.306,57.92Zm7.422,0a2.12,2.12,0,0,1-.7-.149,2.514,2.514,0,0,1-.594-.406,1.774,1.774,0,0,1-.556-1.337,1.616,1.616,0,0,1,.149-.707,1.591,1.591,0,0,1,.408-.594,1.713,1.713,0,0,1,.594-.406,1.89,1.89,0,0,1,2,.406,1.749,1.749,0,0,1,.557,1.3,1.772,1.772,0,0,1-.557,1.337,2.483,2.483,0,0,1-.594.406,2.116,2.116,0,0,1-.7.149Zm7.422,0a1.89,1.89,0,0,1-1.3-.554,1.774,1.774,0,0,1-.556-1.337,1.752,1.752,0,0,1,.556-1.3,1.864,1.864,0,0,1,2.6,0,1.838,1.838,0,0,1,.558,1.3,1.772,1.772,0,0,1-.557,1.337,1.894,1.894,0,0,1-1.3.554Z" transform="translate(-9.503 -22.088)" fill="#9b7b15"/>
  <path id="Path_62400" data-name="Path 62400" d="M19.252,23.314H15.541a1.856,1.856,0,0,1,0-3.711h3.711a1.856,1.856,0,0,1,0,3.711Zm37.111,33.4H52.651a1.856,1.856,0,0,1,0-3.711h3.711a1.856,1.856,0,0,1,0,3.711Z" transform="translate(-7.449 -9.768)" fill="#e07b2f"/>
</svg>
