<svg xmlns="http://www.w3.org/2000/svg" width="62.518" height="62.514" viewBox="0 0 62.518 62.514">
  <g id="Group_24877" data-name="Group 24877" transform="translate(0 0)">
    <path id="Path_62388" data-name="Path 62388" d="M130.213,16H155.19l6.094,6.617V56.1a.855.855,0,0,1-.853.852H130.213a.855.855,0,0,1-.853-.852V16.852A.855.855,0,0,1,130.213,16Z" transform="translate(-114.064 -14.999)" fill="#f4f4f4" fill-rule="evenodd"/>
    <path id="Path_62389" data-name="Path 62389" d="M334.264,16l6.094,6.617h-5.672a.427.427,0,0,1-.426-.427Z" transform="translate(-293.138 -14.999)" fill="#e7e7e7" fill-rule="evenodd"/>
    <rect id="Rectangle_8018" data-name="Rectangle 8018" width="6.758" height="6.758" rx="3.379" transform="translate(18.628 10.964)" fill="#8ac9fe"/>
    <g id="Group_24866" data-name="Group 24866" transform="translate(0 0)">
      <path id="Path_62390" data-name="Path 62390" d="M25.054,157.97l-9,15.589a.415.415,0,0,0,.151.566l7.437,4.3,9.414-16.306-7.437-4.3a.416.416,0,0,0-.566.151Zm34.384,2.073,9.414,16.306,7.437-4.3a.415.415,0,0,0,.151-.566l-9-15.589a.416.416,0,0,0-.566-.151Z" transform="translate(-14.992 -137.085)" fill="#737373" fill-rule="evenodd"/>
      <path id="Path_62391" data-name="Path 62391" d="M109.815,229.883h-.008ZM94.167,213.308l1.386-5.2a3.277,3.277,0,0,1,.716-1.331l-.589-.34a20.452,20.452,0,0,0-9.6-1.134L76.67,221.615a17.071,17.071,0,0,1,3.558,4.317l.866-1.5a2.826,2.826,0,1,1,4.894,2.826,2.826,2.826,0,1,1,4.894,2.826,2.826,2.826,0,1,1,4.894,2.826,2.826,2.826,0,1,1,4.894,2.826l-1.8,3.111,4.314,2.492a3.31,3.31,0,0,0,3.309-5.734,3.31,3.31,0,1,0,3.318-5.728,3.309,3.309,0,1,0,3.3-5.736,3.319,3.319,0,0,0,4.52-1.211,3.253,3.253,0,0,0,.347-.862,3.323,3.323,0,0,0-1.558-3.655l-2-1.153-3.593-2.073-7.815-4.509-1.539.368c-1.436.343-2.353,3.225-4.826,6.645-.606.838-1.022,1.651-1.921.326a6.1,6.1,0,0,1-.867-2.327,4.851,4.851,0,0,1,.3-2.383Z" transform="translate(-68.015 -180.281)" fill="#ffecc6" fill-rule="evenodd"/>
      <path id="Path_62392" data-name="Path 62392" d="M112.417,317.092a1.154,1.154,0,0,1,.523.647,3.319,3.319,0,0,1-3.644.221l-3.731-2.155a1.156,1.156,0,1,1,1.152-2Zm6.8-11.359a1.155,1.155,0,0,1,.444.461,3.32,3.32,0,0,1-3.75.306l-8.641-4.99a1.159,1.159,0,0,1,1.162-2.005ZM80.25,313.1l3.641-6.3a2.826,2.826,0,1,1,4.894,2.826,2.826,2.826,0,1,1,4.894,2.826,2.826,2.826,0,1,1,4.894,2.826,2.826,2.826,0,1,1,4.894,2.826l-2.226,3.856a2.826,2.826,0,1,1-4.894-2.826l-.706,1.22a2.826,2.826,0,1,1-4.895-2.825l-.353.613a2.826,2.826,0,1,1-4.9-2.822l-.354.613A2.826,2.826,0,1,1,80.25,313.1Z" transform="translate(-70.813 -262.634)" fill="#fbe1bd" fill-rule="evenodd"/>
      <path id="Path_62393" data-name="Path 62393" d="M119.634,360.98a2.837,2.837,0,0,1,.614,3.563l-2.226,3.856a2.837,2.837,0,0,1-3.393,1.25Zm-4.894-2.826a2.837,2.837,0,0,1,.614,3.563l-2.227,3.858-.7,1.223a2.837,2.837,0,0,1-3.293,1.283,1.135,1.135,0,0,1,.147-.459Zm-4.894-2.826a2.837,2.837,0,0,1,.614,3.563l-2.936,5.085-.353.613a2.84,2.84,0,0,1-3.242,1.3,1.152,1.152,0,0,1,.154-.577Zm-4.9-2.828a2.836,2.836,0,0,1,.618,3.566l-3.29,5.7-.354.613a2.836,2.836,0,0,1-2.54,1.4,1.161,1.161,0,0,1-.155-1.373Z" transform="translate(-87.592 -309.086)" fill="#ecd4b4" fill-rule="evenodd"/>
      <path id="Path_62394" data-name="Path 62394" d="M231.372,189.961c-3.481-.184-9.476.311-13.468,2.15a7.816,7.816,0,0,1-1.229.423,3.345,3.345,0,0,0-1.491.968,3.277,3.277,0,0,0-.716,1.331l-1.386,5.2a4.844,4.844,0,0,0-.3,2.381,6.1,6.1,0,0,0,.865,2.328c.9,1.325,1.315.512,1.921-.326,2.473-3.42,3.391-6.3,4.826-6.645l1.539-.368,7.815,4.509,3.593,2.076,2,1.153a3.323,3.323,0,0,1,1.558,3.655c1.276-.294,2.773-2.576,3.893-2.527Zm.65,25.87a1.155,1.155,0,0,1,.444.461,3.32,3.32,0,0,1-3.75.306l-6.762-3.907a1.159,1.159,0,0,1,1.162-2.005Z" transform="translate(-186.925 -167.002)" fill="#fbe1bd" fill-rule="evenodd"/>
      <path id="Path_62395" data-name="Path 62395" d="M37.334,22.6a1.008,1.008,0,0,1,1.008-1.008h8.949a1.008,1.008,0,0,1,0,2.017H38.343A1.008,1.008,0,0,1,37.334,22.6Zm0-3.578a1.008,1.008,0,0,1,1.008-1.008h6.292a1.008,1.008,0,0,1,0,2.017H38.343A1.008,1.008,0,0,1,37.334,19.023Zm0,7.157a1.008,1.008,0,0,1,1.008-1.008h13.55a1.008,1.008,0,0,1,0,2.017H38.343a1.008,1.008,0,0,1-1.008-1.008Zm-5.4-3.994L30.4,23.95a1.008,1.008,0,0,1-.726.345h-.034A1.008,1.008,0,0,1,28.93,24l-.8-.8a1.01,1.01,0,0,1,1.424-1.433l.035.035.823-.944a1.008,1.008,0,1,1,1.52,1.325Zm-4.3-2.154v4.742h4.742V20.032Zm5.75,6.758A1.008,1.008,0,0,0,34.4,25.782V19.023a1.008,1.008,0,0,0-1.008-1.008H26.631a1.008,1.008,0,0,0-1.008,1.008v6.758a1.008,1.008,0,0,0,1.008,1.008ZM62.234,45.949,53.828,31.387l6.05-3.494,8.406,14.559-6.05,3.494Zm-3.283,2.077L59.2,47.8a11.126,11.126,0,0,1,1.21-.984L51.854,32c-3.2-.091-8.746.378-12.45,2.081a5.915,5.915,0,0,1-.991.363c-.1.029-.214.062-.354.106a2.32,2.32,0,0,0-1.008.643c-.019.021-.037.043-.057.063a2.289,2.289,0,0,0-.468.892l-1.386,5.2c-.035.126-.071.252-.1.378a3.171,3.171,0,0,0-.174,1.591,5.063,5.063,0,0,0,.7,1.922l.01.014.112-.158c.048-.068.1-.139.147-.208a40.759,40.759,0,0,0,2.22-3.5c1.094-1.873,1.884-3.225,3.189-3.537l1.539-.368a1.008,1.008,0,0,1,.739.107l13.4,7.738a4.306,4.306,0,0,1,2.031,2.706Zm-2.2,2.183a2.3,2.3,0,0,0-.842-3.142L42.859,39.529,41.71,39.8c-.466.111-1.2,1.373-1.916,2.593-.6,1.03-1.351,2.313-2.327,3.663q-.07.095-.136.189c-.395.56-.882,1.26-1.746,1.26h-.015a2.179,2.179,0,0,1-1.676-1.143,7.036,7.036,0,0,1-1.034-2.739,5.049,5.049,0,0,1,.226-2.445l.1-.353,1.386-5.194A4.412,4.412,0,0,1,34.8,35a19.4,19.4,0,0,0-8.1-.976L17.94,49.192a18.005,18.005,0,0,1,2.226,2.6l.043-.073a3.833,3.833,0,0,1,7.058,1.09c.053-.018.107-.033.161-.047a3.822,3.822,0,0,1,4.691,2.709c.015.054.028.108.04.164l.163-.048a3.824,3.824,0,0,1,4.691,2.709c.015.055.028.11.04.165.054-.018.108-.033.163-.048A3.824,3.824,0,0,1,41.5,60.152a1.008,1.008,0,0,1,1.173-.12l4.309,2.488a2.3,2.3,0,1,0,2.3-3.986l-6.412-3.7a1.009,1.009,0,0,1,1.008-1.747L50.3,56.795a2.306,2.306,0,0,0,2.3-4l-8.367-4.827a1.009,1.009,0,0,1,1.008-1.747l8.36,4.827a2.3,2.3,0,0,0,3.142-.842ZM46.824,67.4a2.3,2.3,0,0,1-3.142.842l-3.441-1.986,1.289-2.239a3.823,3.823,0,0,0,.51-2.034l3.939,2.269a2.309,2.309,0,0,1,.844,3.149Zm-11.747.126a1.826,1.826,0,0,1-.666-2.482l2.226-3.856a1.819,1.819,0,1,1,3.151,1.818l-1.795,3.109-.429.742a1.819,1.819,0,0,1-2.483.666Zm-3.118-2.269a1.819,1.819,0,1,1-3.151-1.818l2.934-5.081a1.818,1.818,0,1,1,3.151,1.814l-2.226,3.856-.707,1.225Zm-4.9-2.822-.352.61a1.819,1.819,0,1,1-3.151-1.818l3.288-5.695A1.819,1.819,0,1,1,30,57.354l-2.933,5.081Zm-5.248-2.206-.352.609a1.819,1.819,0,1,1-3.151-1.818l3.641-6.3A1.819,1.819,0,1,1,25.1,54.54l-3.287,5.693ZM16.289,48.017l-6.05-3.494,8.4-14.559,6.05,3.494ZM24.3,10.067V30.905l1.961,1.134A21.828,21.828,0,0,1,36,33.266a1.025,1.025,0,0,1,.126.052,4.352,4.352,0,0,1,1.326-.688c.161-.052.29-.088.406-.126a3.943,3.943,0,0,0,.7-.252C42.445,30.462,48.278,29.834,52.2,30l2.017-1.162V16.684h-5.09a1.008,1.008,0,0,1-1.008-1.008V10.068Zm25.83,1.576,2.786,3.025H50.134Zm20.2,30.315-9-15.588a1.423,1.423,0,0,0-1.942-.521L56.236,27.67V15.577c0-.033,0-.03-.006-.044l-.008-.052a.269.269,0,0,0-.013-.053c0-.018-.006-.026-.01-.039l-.019-.054a.14.14,0,0,0-.013-.037l-.023-.05c-.006-.013-.011-.025-.018-.037l-.026-.047c-.008-.013-.014-.024-.023-.037l-.028-.042-.028-.037a.438.438,0,0,0-.032-.037.145.145,0,0,0-.018-.021L49.879,8.375l-.014-.013c-.013-.014-.026-.028-.04-.04l-.033-.029c-.015-.014-.03-.025-.047-.038l-.033-.024c-.018-.013-.037-.024-.055-.035l-.037-.019-.068-.034-.023-.01a.6.6,0,0,0-.083-.032h-.011l-.095-.025a.883.883,0,0,0-.1-.016.952.952,0,0,0-.1,0H24.153a1.864,1.864,0,0,0-1.862,1.862V29.741L19.14,27.919a1.426,1.426,0,0,0-1.944.521l-9,15.589a1.426,1.426,0,0,0,.521,1.944l7.356,4.249a15.844,15.844,0,0,1,2.971,3.5l-2.467,4.291A3.833,3.833,0,0,0,21.522,63.4a3.839,3.839,0,0,0,5.247,2.212,3.842,3.842,0,0,0,5.739,1.94A3.829,3.829,0,0,0,39.232,68l3.446,1.99A4.313,4.313,0,0,0,49,65.136c-.033-.126-.072-.246-.115-.366q.188-.032.378-.083A4.3,4.3,0,0,0,52.316,59.4c-.033-.126-.071-.245-.113-.364a4.311,4.311,0,0,0,3.31-5.731,4.311,4.311,0,0,0,2.995-2.092,4.373,4.373,0,0,0,.286-.6,8.21,8.21,0,0,0,1.758-1.315,5.3,5.3,0,0,1,1.3-.976,1.008,1.008,0,0,0,.526-.134l7.437-4.3a1.426,1.426,0,0,0,.516-1.945Z" transform="translate(-8.003 -8.059)" fill="#242222" fill-rule="evenodd"/>
    </g>
  </g>
</svg>
