<svg xmlns="http://www.w3.org/2000/svg" width="39.69" height="39.655" viewBox="0 0 39.69 39.655">
  <g id="Group_24891" data-name="Group 24891" transform="translate(0)">
    <path id="Path_39" data-name="Path 39" d="M26.6,39.725a13.113,13.113,0,0,0,13.1-13.1c-.719-17.377-25.481-17.373-26.2,0a13.113,13.113,0,0,0,13.1,13.1Zm0-24.781A11.7,11.7,0,0,1,38.281,26.627c-.642,15.5-22.726,15.494-23.365,0A11.7,11.7,0,0,1,26.6,14.944Z" transform="translate(-6.773 -6.801)" fill="#b88230"/>
    <path id="Path_40" data-name="Path 40" d="M30.352,34.188a2.584,2.584,0,0,1-2.582-2.582.708.708,0,0,0-1.416,0,4,4,0,0,0,3.29,3.931v1a.708.708,0,1,0,1.416,0v-1a4,4,0,0,0-.708-7.929,2.582,2.582,0,1,1,2.582-2.582.708.708,0,0,0,1.416,0,4,4,0,0,0-3.29-3.932v-1a.708.708,0,0,0-.708-.708c-.929.037-.678,1.1-.708,1.712a4,4,0,0,0,.708,7.93,2.582,2.582,0,1,1,0,5.164Z" transform="translate(-10.526 -8.49)" fill="#b88230"/>
    <path id="Path_41" data-name="Path 41" d="M6,31.436a.712.712,0,0,0,.66-.966c-4.776-11.7,4.493-25.3,17.169-25.055a18.349,18.349,0,0,1,13.157,5.545l-3.678-.48a.708.708,0,1,0-.183,1.4l5.758.75a.712.712,0,0,0,.793-.793l-.751-5.758a.708.708,0,1,0-1.4.184L38,9.977A19.817,19.817,0,0,0,4,23.825a19.591,19.591,0,0,0,1.337,7.161.709.709,0,0,0,.659.45ZM23.825,43.65c13.65.268,23.637-14.39,18.488-26.987a.708.708,0,0,0-1.319.517c4.776,11.7-4.493,25.3-17.169,25.054a18.376,18.376,0,0,1-13.158-5.547l3.68.482a.708.708,0,1,0,.183-1.4l-5.758-.75a.714.714,0,0,0-.793.793l.751,5.758a.708.708,0,1,0,1.4-.184L9.65,37.673A19.794,19.794,0,0,0,23.825,43.65Z" transform="translate(-3.999 -3.999)" fill="#b88230"/>
  </g>
</svg>
