<svg xmlns="http://www.w3.org/2000/svg" width="44.59" height="44.59" viewBox="0 0 44.59 44.59">
  <g id="Group_24890" data-name="Group 24890" transform="translate(0)">
    <path id="Path_37" data-name="Path 37" d="M5.662,11.324a5.669,5.669,0,0,0,5.662-5.662.708.708,0,0,0-1.348-.3,3.072,3.072,0,0,1-.6.846A3.012,3.012,0,1,1,5.964,1.348.708.708,0,0,0,5.662,0a5.662,5.662,0,0,0,0,11.324ZM3.252,2.167a4.429,4.429,0,0,0,5.907,5.9,4.245,4.245,0,1,1-5.907-5.9ZM43.781,16.8c-.05-5.671-6.113-9.172-10.985-11.984-2.361-1.363-4.591-2.651-5.3-3.777a.735.735,0,0,0-1.2,0c-.711,1.125-2.94,2.414-5.3,3.777-4.872,2.812-10.937,6.313-10.985,11.99a9.033,9.033,0,0,0,2.072,5.612A10.656,10.656,0,0,0,9.2,29.727v12.74a.708.708,0,0,0,.708.708h7.235a5.061,5.061,0,0,0,3.509,1.416h18.5a1.9,1.9,0,0,0,1.83-1.416h2.9a.708.708,0,0,0,.708-.708V29.727a10.656,10.656,0,0,0-2.881-7.309A9.038,9.038,0,0,0,43.781,16.8ZM16.987,39.508a3.645,3.645,0,0,1,2.027-3.279l3.806-1.9a3,3,0,0,0,3.109-.737l3.336-3.336a2.477,2.477,0,1,0-3.5-3.5l-1.485,1.485a7.492,7.492,0,0,1,2.276-3.894l2.971-.891.545.545a8.438,8.438,0,0,1,2.488,6v4.682a3.543,3.543,0,0,1-3.539,3.539H23.357a.708.708,0,0,0,0,1.416h9.2v3.539h-11.9A3.671,3.671,0,0,1,16.987,39.508ZM18.006,28a1.062,1.062,0,1,1,1.5-1.5l.333.333-1.5,1.5Zm2.835-.167,2.42,2.421a.708.708,0,0,0,1,0l2.5-2.5a1.062,1.062,0,0,1,1.5,1.5l-3.336,3.336a1.651,1.651,0,0,1-2.336,0l-3.254-3.254Zm3.223-11.554h7.078v1.416c0,1.811-.369,2.482-1.72,3.124a.708.708,0,0,0-.4.639v.665l-2.123.637v-.89a.707.707,0,0,0-.566-.694A2.838,2.838,0,0,1,24.064,18.4Zm.071-1.416a3.539,3.539,0,0,1,6.935,0ZM39.151,43.174H33.973V39.636h.642a2.055,2.055,0,0,1,1.714.918A3.473,3.473,0,0,0,38.379,42l.889.222a.485.485,0,0,1-.117.955Zm4.024-13.448V41.759H40.806a1.9,1.9,0,0,0-1.195-.913l-.889-.222a2.061,2.061,0,0,1-1.215-.856,3.468,3.468,0,0,0-2.893-1.548H32.483a4.94,4.94,0,0,0,1.49-3.539V30a9.844,9.844,0,0,0-2.9-7.007l-.637-.637v-.467c1.756-.987,2.123-2.351,2.123-4.194V15.571a4.954,4.954,0,0,0-9.909,0V18.4a4.262,4.262,0,0,0,2.831,4V23.4a8.9,8.9,0,0,0-2.576,4.5l-2.4-2.4a2.537,2.537,0,0,0-3.5,0A2.477,2.477,0,0,0,17,29l4.434,4.432L18.38,34.962a5.066,5.066,0,0,0-2.276,6.8H10.617V29.727a9.205,9.205,0,0,1,2.923-6.759.7.7,0,0,0,.163-.779.692.692,0,0,0-.205-.281,7.8,7.8,0,0,1-2.072-5.1C11.467,11.949,17.143,8.672,21.7,6.04a25.746,25.746,0,0,0,5.193-3.5,25.75,25.75,0,0,0,5.192,3.5c4.56,2.633,10.236,5.91,10.277,10.765a7.78,7.78,0,0,1-2.031,5.056.708.708,0,0,0-.082,1.106A9.205,9.205,0,0,1,43.174,29.727Z" transform="translate(0)" fill="#b88230"/>
    <ellipse id="Ellipse_9" data-name="Ellipse 9" cx="0.969" cy="0.485" rx="0.969" ry="0.485" transform="translate(5.332 23.749)" fill="#b88230"/>
    <circle id="Ellipse_10" data-name="Ellipse 10" cx="0.969" cy="0.969" r="0.969" transform="translate(34.412 11.147)" fill="#b88230"/>
    <circle id="Ellipse_11" data-name="Ellipse 11" cx="0.485" cy="0.485" r="0.485" transform="translate(38.29 27.626)" fill="#b88230"/>
    <path id="Path_38" data-name="Path 38" d="M17.279,16.571a.708.708,0,0,0,.708-.708v-.708a.708.708,0,1,0-1.416,0v.708A.708.708,0,0,0,17.279,16.571Zm0,1.416a.708.708,0,0,0-.708.708V19.4a.708.708,0,0,0,1.416,0v-.708A.708.708,0,0,0,17.279,17.987Zm-1.416-1.416h-.708a.708.708,0,1,0,0,1.416h.708a.708.708,0,1,0,0-1.416Zm3.539,0h-.708a.708.708,0,0,0,0,1.416H19.4a.708.708,0,0,0,0-1.416ZM42.759,1.708a.708.708,0,1,0-1.416,0v.708a.708.708,0,1,0,1.416,0Zm-.708,4.954a.708.708,0,0,0,.708-.708V5.247a.708.708,0,1,0-1.416,0v.708A.708.708,0,0,0,42.051,6.662ZM40.636,3.123h-.708a.708.708,0,1,0,0,1.416h.708a.708.708,0,1,0,0-1.416Zm3.539,0h-.708a.708.708,0,1,0,0,1.416h.708a.708.708,0,0,0,0-1.416ZM3.123,37.1V37.8a.708.708,0,1,0,1.416,0V37.1a.708.708,0,1,0-1.416,0Zm.708,2.831a.708.708,0,0,0-.708.708v.708a.708.708,0,0,0,1.416,0v-.708A.708.708,0,0,0,3.831,39.928ZM2.416,38.512H1.708a.708.708,0,1,0,0,1.416h.708a.708.708,0,1,0,0-1.416Zm3.539,0H5.247a.708.708,0,1,0,0,1.416h.708a.708.708,0,1,0,0-1.416Z" transform="translate(-0.292 -0.292)" fill="#b88230"/>
  </g>
</svg>
