<svg xmlns="http://www.w3.org/2000/svg" width="33.472" height="33.472" viewBox="0 0 33.472 33.472">
  <g id="Group_24892" data-name="Group 24892" transform="translate(1 1.011)">
    <path id="Path_42" data-name="Path 42" d="M33.09,81l-1.963,1.963a1.118,1.118,0,0,0,0,1.582l.182.182a1.118,1.118,0,0,0,1.582,0l1.62-1.62M30.55,76.268,28.716,78.1a1.118,1.118,0,0,0,0,1.582l.182.182a1.118,1.118,0,0,0,1.582,0l1.436-1.436M16.9,82.666,18.5,86.9a.951.951,0,0,1-.218,1.008l-.735.735a.378.378,0,0,1-.575-.048l-2.8-3.928m21.14-13.6,3.618,13.871a.889.889,0,0,1-.232.853l-.9.9a.889.889,0,0,1-1.406-.2L28.83,72.873M15.258,63.167l-1.963,1.963a1.118,1.118,0,0,1-1.582,0l-.182-.182a1.118,1.118,0,0,1,0-1.582l1.62-1.62m6.837,3.963-1.834,1.834a1.118,1.118,0,0,1-1.582,0l-.182-.182a1.118,1.118,0,0,1,0-1.582l1.436-1.436M13.591,79.353l-4.237-1.6a.951.951,0,0,0-1.008.218l-.735.735a.378.378,0,0,0,.048.575l3.928,2.8M33.035,60.661a3.407,3.407,0,0,1,2.056.5,3.408,3.408,0,0,1,.508,2.059" transform="translate(-7.5 -57.296)" fill="none" stroke="#b88230" stroke-linecap="round" stroke-linejoin="round" stroke-miterlimit="10" stroke-width="2"/>
    <path id="Path_43" data-name="Path 43" d="M69,29.182c-3.137,4.04-5.281,7.486-4.36,8.407C67,39.94,85.8,22.321,88.928,19.192c4.313-4.313,3.178-8.085,2.688-8.575S87.345,9,83.042,13.306c-1.665,1.665-7.434,7.77-12.113,13.472m13.886-9.887.529.529M82.51,19.195l.529.529M80.206,21.5l.529.529M77.9,23.8l.529.529M75.6,26.107l.529.529m-2.833,1.775.529.529" transform="translate(-60.826 -9.947)" fill="none" stroke="#b88230" stroke-linecap="round" stroke-linejoin="round" stroke-miterlimit="10" stroke-width="2"/>
    <path id="Path_44" data-name="Path 44" d="M55.021,11.974,37.982,7.529a.889.889,0,0,0-.853.232l-.9.9a.889.889,0,0,0,.2,1.406l13.624,7.566" transform="translate(-34.167 -7.5)" fill="none" stroke="#b88230" stroke-linecap="round" stroke-linejoin="round" stroke-miterlimit="10" stroke-width="2"/>
  </g>
</svg>
