<svg xmlns="http://www.w3.org/2000/svg" width="223.299" height="98.122" viewBox="0 0 223.299 98.122">
	<path id="Path_489" data-name="Path 489" d="M13.421,96.958a.3.3,0,0,0-.247.1h-.22l-.229-1.587H13a1.591,1.591,0,0,0,1.587,1.319,1.011,1.011,0,0,0,1.136-.944c0-.43-.312-.806-1-1.273a6.326,6.326,0,0,1-1.585-1.264,1.355,1.355,0,0,1-.3-.842c0-.77.669-1.338,1.686-1.339.531,0,.926.147,1.174.147a.3.3,0,0,0,.266-.11h.23l.2,1.421h-.275a1.631,1.631,0,0,0-1.493-1.164c-.587,0-.9.348-.9.752,0,.549.559.925,1.439,1.474,1.008.632,1.458,1.172,1.458,1.886,0,.944-.8,1.587-1.97,1.587h-.005A8.527,8.527,0,0,1,13.421,96.958Zm43.935-2.691A3.14,3.14,0,0,1,60.7,91.114c2.015,0,3.344,1.218,3.345,2.9a3.168,3.168,0,0,1-3.379,3.1C58.8,97.107,57.356,95.945,57.356,94.267Zm1.108-.247a3.014,3.014,0,0,0,.688,2.034,2.215,2.215,0,0,0,1.66.76c1.246,0,2.126-1.009,2.125-2.576,0-1.649-.954-2.831-2.319-2.831C59.353,91.409,58.464,92.372,58.464,94.02Zm39.6,2.91a.308.308,0,0,0-.247.1H97.6l-.23-1.584h.275a1.591,1.591,0,0,0,1.586,1.32,1.01,1.01,0,0,0,1.135-.945c0-.43-.311-.806-1-1.273a6.361,6.361,0,0,1-1.585-1.264,1.358,1.358,0,0,1-.3-.843c0-.769.669-1.337,1.686-1.337.531,0,.925.146,1.173.146a.3.3,0,0,0,.266-.11h.229l.2,1.42h-.275A1.632,1.632,0,0,0,99.262,91.4c-.587,0-.9.348-.9.751,0,.55.559.926,1.439,1.475,1.008.632,1.457,1.172,1.457,1.886,0,.944-.8,1.587-1.969,1.588A8.494,8.494,0,0,1,98.063,96.93Zm7.162-2.705a3.186,3.186,0,0,1,1.071-2.437,3.266,3.266,0,0,1,2.153-.688,11.781,11.781,0,0,1,1.75.248.258.258,0,0,0,.239-.1h.266V92.93h-.275a1.761,1.761,0,0,0-1.815-1.54c-1.4,0-2.281,1.12-2.281,2.731a2.889,2.889,0,0,0,.569,1.841,2.133,2.133,0,0,0,1.687.788,2.535,2.535,0,0,0,1.173-.3V95.323c0-.633-.266-.679-1.092-.679V94.4h2.741v.248c-.458.009-.632.175-.632.651v1.237a6.347,6.347,0,0,1-2.455.561A2.822,2.822,0,0,1,105.225,94.225Zm54.013.55V92.136c0-.54-.183-.66-.779-.66v-.247h2.6v.247c-.652,0-.807.139-.807.752l0,2.538c0,1.072.706,1.741,1.96,1.741s1.971-.643,1.97-1.769v-2.52c0-.67-.155-.743-.879-.743v-.247h2.217v.248c-.641,0-.833.11-.833.751l0,2.612c0,1.31-1,2.236-2.776,2.237S159.238,96.2,159.238,94.775Zm20.6-.547a3.14,3.14,0,0,1,3.343-3.153c2.016,0,3.345,1.217,3.346,2.894a3.167,3.167,0,0,1-3.38,3.1C181.274,97.068,179.835,95.9,179.834,94.227Zm1.109-.248a3.006,3.006,0,0,0,.688,2.034,2.211,2.211,0,0,0,1.66.76c1.246,0,2.125-1.008,2.125-2.575,0-1.651-.954-2.832-2.319-2.831C181.831,91.368,180.943,92.33,180.943,93.979ZM53.786,95.818A10.784,10.784,0,0,0,52.457,94.6a4.847,4.847,0,0,1-.816,0v1.265c0,.714.12.852.789.852h.146v.247h-2.8v-.247h.111c.6,0,.742-.147.742-.743V92.218c0-.6-.165-.7-.853-.706v-.247c.212,0,1.256-.082,2.291-.083a3.637,3.637,0,0,1,1.8.328,1.42,1.42,0,0,1,.825,1.311,1.582,1.582,0,0,1-1.154,1.493,17.21,17.21,0,0,1,1.292,1.237,3.62,3.62,0,0,0,2.191,1.256v.256h-.43A3.125,3.125,0,0,1,53.786,95.818Zm-2.145-4.343v2.869a2.508,2.508,0,0,0,.3.027,1.953,1.953,0,0,0,1.319-.45,1.409,1.409,0,0,0,.311-1.008,1.333,1.333,0,0,0-1.5-1.474A2.83,2.83,0,0,0,51.641,91.474Zm30.3,5.58a3.122,3.122,0,0,1-2.8-1.245,10.648,10.648,0,0,0-1.329-1.219,4.945,4.945,0,0,1-.816,0v1.265c0,.714.121.852.789.851h.146v.247h-2.8V96.71h.11c.6,0,.742-.148.742-.743V92.21c0-.6-.165-.7-.853-.706v-.247c.212,0,1.256-.083,2.291-.083a3.639,3.639,0,0,1,1.8.329,1.418,1.418,0,0,1,.824,1.31,1.585,1.585,0,0,1-1.154,1.495,16.764,16.764,0,0,1,1.293,1.236,3.623,3.623,0,0,0,2.19,1.255v.256ZM77,91.467v2.868a2.547,2.547,0,0,0,.3.026,1.947,1.947,0,0,0,1.318-.449,1.407,1.407,0,0,0,.311-1.007,1.334,1.334,0,0,0-1.5-1.476A2.71,2.71,0,0,0,77,91.467Zm59.623,5.569a3.125,3.125,0,0,1-2.8-1.245,10.522,10.522,0,0,0-1.328-1.219,4.933,4.933,0,0,1-.815,0v1.265c0,.715.12.853.789.853h.146v.247h-2.8v-.247h.111c.6,0,.742-.147.742-.743V92.192c0-.6-.165-.7-.852-.707v-.247c.211,0,1.255-.083,2.29-.083a3.612,3.612,0,0,1,1.8.328,1.415,1.415,0,0,1,.825,1.31,1.584,1.584,0,0,1-1.154,1.494,16.993,16.993,0,0,1,1.292,1.237,3.667,3.667,0,0,0,2.132,1.248v-.085c.67-.009.743-.147,1.035-.952l1.612-4.418-.074-.229h1.027l1.706,4.553c.338.917.386,1.045,1.018,1.045v.247h-2.721v-.247c.733,0,.924-.074.923-.339a1.313,1.313,0,0,0-.1-.412l-.468-1.21h-2.1c-.109.312-.266.7-.375,1.017a1.788,1.788,0,0,0-.165.6c0,.293.276.347.7.347h.221v.248H137.05v.1Zm-4.941-5.588v2.868a2.454,2.454,0,0,0,.3.028,1.954,1.954,0,0,0,1.318-.45,1.408,1.408,0,0,0,.311-1.008,1.332,1.332,0,0,0-1.5-1.474A2.843,2.843,0,0,0,131.679,91.448Zm7.346,2.821,1.751,0L139.9,91.95Zm54.992,2.749a3.126,3.126,0,0,1-2.794-1.245,10.65,10.65,0,0,0-1.329-1.219,4.934,4.934,0,0,1-.815,0v1.265c0,.715.119.853.787.853l.148,0v.248l-2.8,0v-.248h.11c.606,0,.743-.147.743-.743l0-3.757c0-.606-.166-.7-.852-.706V91.22c.211,0,1.256-.083,2.291-.083a3.611,3.611,0,0,1,1.8.328,1.418,1.418,0,0,1,.825,1.31,1.585,1.585,0,0,1-1.155,1.494,16.822,16.822,0,0,1,1.292,1.237,3.612,3.612,0,0,0,2.191,1.254v.257Zm-4.941-5.588,0,2.868a2.3,2.3,0,0,0,.3.028,1.961,1.961,0,0,0,1.32-.45,1.413,1.413,0,0,0,.311-1.008,1.333,1.333,0,0,0-1.5-1.474A2.876,2.876,0,0,0,189.076,91.429ZM122.81,97l-4.484-4.719,0,3.482c0,.733.092.944.752.944.064,0,.119-.009.166-.009v.248h-2.191v-.248h.082c.513,0,.688-.146.688-.751l0-4.161a1.151,1.151,0,0,0-.769-.293v-.248h1.658l4.088,4.315V92.23c0-.669-.156-.742-.906-.742V91.24h2.217v.247c-.614,0-.806.129-.806.77l0,4.738ZM18.63,96.728c.889,0,1.062-.11,1.062-.688V91.688H18.28c-.587,0-.642.3-.76,1.009h-.266l.165-1.576h.248c.055.146.22.155.54.155l4,0c.412,0,.485-.036.522-.155h.247l.166,1.576H22.88c-.11-.7-.165-1.008-.752-1.008h-1.42v4.352c0,.615.166.688,1.064.688v.247H18.63Zm4.806,0c.669-.01.742-.148,1.035-.954l1.611-4.417-.073-.229h1.026l1.705,4.553c.339.916.386,1.044,1.019,1.044v.248H27.037v-.248c.733,0,.926-.074.925-.338a1.3,1.3,0,0,0-.1-.413l-.468-1.209H25.3c-.11.311-.265.7-.375,1.017a1.785,1.785,0,0,0-.165.6c0,.292.275.348.7.346h.22v.248H23.436Zm2.033-2.421h1.75l-.879-2.318Zm5.953,2.417c.889,0,1.063-.11,1.063-.688l0-4.352H31.072c-.586,0-.641.3-.76,1.008h-.266l.166-1.576h.247c.055.148.221.157.541.155h4c.413,0,.486-.036.523-.156h.248l.165,1.576h-.265c-.111-.7-.166-1.007-.751-1.007H33.5l0,4.353c0,.614.166.687,1.064.687v.248H31.422Zm4.807,0c.743,0,.925-.129.925-.614l0-3.95c0-.586-.229-.641-.925-.64v-.248l4.682,0,.084,1.375h-.248c-.2-.907-.319-.962-.907-.962H38.169v2.135h1.466c.55,0,.587-.156.642-.7h.247V94.96h-.248c-.055-.6-.165-.732-.651-.732H38.17v1.715c0,.5.082.614.5.613h1.118c.8,0,1.053-.111,1.292-1.027h.247l-.137,1.438-4.966,0Zm8.519,0c.651-.018.77-.193.77-.953l0-3.335c0-.751-.146-.915-.76-.915h-.119v-.248c.8-.009,1.631-.074,2.217-.074,1.833,0,2.612.5,2.612,1.648,0,1.082-.9,1.815-2.181,1.816a4.3,4.3,0,0,1-.752-.064v1.291c0,.7.229.815,1.037.834v.247H44.747Zm1.785-5.243v2.841a2.057,2.057,0,0,0,.394.046,1.427,1.427,0,0,0,1.429-1.54,1.254,1.254,0,0,0-1.375-1.374A3.78,3.78,0,0,0,46.532,91.476Zm18.29,5.236c.651-.019.77-.193.77-.953V92.424c0-.752-.148-.916-.761-.916H64.71v-.248c.8-.009,1.631-.074,2.217-.074,1.833,0,2.613.5,2.613,1.649,0,1.082-.9,1.815-2.181,1.815a4.3,4.3,0,0,1-.752-.064v1.291c0,.707.229.816,1.036.834v.247l-2.822,0Zm2.235-5.27a3.561,3.561,0,0,0-.449.028v2.84a1.972,1.972,0,0,0,.394.046,1.426,1.426,0,0,0,1.428-1.54,1.251,1.251,0,0,0-1.369-1.373Zm2.7,5.268c.743,0,.924-.129.924-.614v-3.95c0-.586-.229-.641-.926-.64v-.248l4.684,0,.082,1.375h-.248c-.2-.907-.32-.962-.906-.962H71.7V93.8h1.466c.55,0,.586-.156.641-.7h.248v1.841h-.247c-.057-.6-.167-.733-.652-.732H71.7V95.93c0,.5.084.614.5.614h1.119c.8,0,1.054-.11,1.291-1.027h.248l-.138,1.439-4.966,0Zm14.02-.005c.889,0,1.062-.11,1.062-.687V91.665h-1.41c-.588,0-.643.3-.761,1.008H82.4l.166-1.576h.247c.055.147.221.156.54.156l4.005,0c.412,0,.485-.037.522-.156h.248l.165,1.576h-.265c-.111-.7-.166-1.008-.752-1.008h-1.42v4.353c0,.614.167.687,1.065.686v.248H83.776Zm5.008,0c.641,0,.751-.156.751-.743l0-3.812c0-.522-.192-.65-.751-.65v-.248h2.556V91.5c-.624,0-.788.156-.788.76l0,3.639c0,.632.148.805.7.805h.091v.247H88.784Zm2.944,0c.742,0,.924-.129.924-.615V92.139c0-.586-.229-.641-.925-.641v-.248l4.682,0,.083,1.375h-.247c-.2-.908-.32-.963-.907-.962H93.668V93.8h1.466c.55,0,.587-.156.642-.7h.247v1.841h-.248c-.055-.6-.165-.733-.651-.733H93.669v1.715c0,.5.082.613.5.613h1.118c.8,0,1.053-.112,1.292-1.027h.247l-.137,1.438-4.966,0Zm19.908-.007c.743,0,.925-.129.925-.614v-3.95c0-.586-.229-.641-.925-.64v-.247l4.682,0,.082,1.375h-.247c-.2-.907-.321-.962-.907-.962h-1.668v2.136l1.466,0c.55,0,.586-.155.641-.7h.247v1.842h-.247c-.056-.6-.166-.733-.651-.733h-1.457v1.715c0,.5.083.614.5.614H115.2c.8,0,1.054-.11,1.292-1.027h.248l-.137,1.439-4.967,0Zm12.8,0c.742,0,.925-.129.925-.615V92.129c0-.586-.229-.641-.926-.641V91.24l4.684,0,.082,1.375h-.248c-.2-.907-.32-.962-.907-.962h-1.668v2.135h1.467c.549,0,.586-.156.641-.7h.247v1.84h-.247c-.056-.6-.166-.733-.652-.733h-1.457v1.714c0,.5.083.613.5.613H128c.8,0,1.055-.111,1.292-1.027h.247l-.136,1.439h-4.967Zm19.166-.006c.742,0,.889-.083.888-.76v-3.7c0-.623-.148-.742-.77-.742H143.6v-.247h3.006v.247c-.926,0-1.1.019-1.1.679V96.1c0,.339.092.421.459.421h1.163c.623,0,.733-.166,1.338-.972h.274l-.7,1.382-4.435,0Zm8.254.244v-.247c.669-.009.741-.147,1.035-.953l1.611-4.417-.073-.229h1.026l1.706,4.553c.338.916.384,1.045,1.017,1.045v.247h-2.722v-.247c.734,0,.925-.074.925-.339a1.329,1.329,0,0,0-.1-.413l-.468-1.209h-2.1c-.111.312-.266.7-.375,1.017a1.785,1.785,0,0,0-.165.6c0,.293.274.348.7.348h.221v.247Zm2.033-2.667h1.75l-.879-2.318ZM167.2,96.678c.888,0,1.063-.111,1.063-.688l0-4.352h-1.41c-.586,0-.642.3-.76,1.008h-.265l.165-1.577h.247c.056.148.221.157.542.157l4,0c.413,0,.486-.037.524-.156h.247l.165,1.576h-.265c-.11-.7-.166-1.008-.752-1.008h-1.421l0,4.352c0,.614.165.687,1.063.687v.247H167.2Zm4.935,0c.687-.046.814-.2.814-.814v-3.51c0-.733-.193-.861-.815-.88v-.248h2.648v.248c-.678.027-.815.183-.815.916v1.419h3.308V92.377c0-.715-.129-.879-.843-.906v-.248h2.695v.248c-.67.037-.834.147-.834.852v3.546c0,.615.129.76.835.806v.247h-2.695v-.247c.651-.028.842-.166.842-.835V94.219h-3.308v1.7c0,.6.194.733.816.76v.248h-2.648Zm22.458.24v-.248c.642,0,.751-.156.751-.742V92.115c0-.523-.193-.651-.752-.651v-.247l2.557,0v.247c-.623,0-.788.156-.788.76v3.639c0,.632.147.806.7.806h.092v.248Zm4.41-.248c.889,0,1.062-.111,1.062-.688V91.627h-1.411c-.587,0-.642.3-.761,1.008h-.265l.166-1.576h.247c.055.146.22.155.541.155h4c.412,0,.486-.037.522-.156h.248l.165,1.576h-.266c-.11-.7-.165-1.008-.752-1.007h-1.42V95.98c0,.614.167.687,1.064.687v.248H199Zm6.813,0c.706,0,.88-.083.879-.8V94.676L204.969,92.2c-.429-.614-.531-.715-1.145-.742v-.247h2.758v.247c-.5,0-.642.1-.642.266,0,.119.027.2.384.715l1.128,1.612c.412-.661.888-1.393,1.228-1.971a.713.713,0,0,0,.12-.339c0-.192-.156-.284-.587-.283v-.248h2.153v.247c-.714.074-.861.229-1.475,1.229l-1.181,1.907v1.318c0,.661.157.752.871.752v.247l-2.767,0ZM79.677,88.586a3.159,3.159,0,0,1-.843-.221c.032-.261.062-.491.094-.686s.065-.414.1-.657a3.226,3.226,0,0,0,.5.135c.176.034.348.063.517.088q2.813.308,2.812-2.478l0-7.2H82.22V76.228h2.011l0,8.782a4.52,4.52,0,0,1-.251,1.583,2.959,2.959,0,0,1-.725,1.136,3.015,3.015,0,0,1-1.16.685,4.888,4.888,0,0,1-1.55.229A7.172,7.172,0,0,1,79.677,88.586ZM31,88.6a7.48,7.48,0,0,1-.788-.125,7.082,7.082,0,0,1-.759-.209l.149-1.4a3.314,3.314,0,0,0,.4.107q.274.059.581.115c.205.039.4.069.587.1a3.1,3.1,0,0,0,.419.041,2.454,2.454,0,0,0,1.681-.517,2.037,2.037,0,0,0,.58-1.606V84.057H29.885q-2.133-.045-2.264-1.955c-.012-.217-.019-.476-.019-.777s0-.61.014-.927.023-.625.041-.923.044-.556.075-.773a2.972,2.972,0,0,1,.661-1.513,2.8,2.8,0,0,1,1.424-.862,4.562,4.562,0,0,1,2.1-.1,4.275,4.275,0,0,1,1.92.954v-.94h1.984v1.332h-.633l0,7.673a3.492,3.492,0,0,1-.316,1.524A3.082,3.082,0,0,1,34,87.881a3.446,3.446,0,0,1-1.327.634,4.382,4.382,0,0,1-1.057.124A5.439,5.439,0,0,1,31,88.6ZM29.6,77.991a2.61,2.61,0,0,0-.614,1.747v1.75a3.459,3.459,0,0,0,.047.625.725.725,0,0,0,.177.376.694.694,0,0,0,.363.185,2.966,2.966,0,0,0,.616.052l3.659,0,0-3.613a.713.713,0,0,0-.241-.443,3.377,3.377,0,0,0-.616-.5,4.769,4.769,0,0,0-.829-.423,3.156,3.156,0,0,0-.885-.219q-.125-.007-.242-.007A1.978,1.978,0,0,0,29.6,77.991Zm157.11,8.763V85.366h1.379v1.389Zm-2.105,0V85.368h1.379v1.387ZM13.14,82.108c-.013-.217-.019-.475-.019-.777s0-.611.014-.927.023-.624.041-.922.043-.556.074-.773a2.968,2.968,0,0,1,.661-1.513,2.788,2.788,0,0,1,1.425-.862,4.55,4.55,0,0,1,2.1-.1,4.263,4.263,0,0,1,1.919.954v-.94h1.984V77.58h-.634l0,5.151,1.77,0h.772a2.812,2.812,0,0,0,.536-.042.651.651,0,0,0,.335-.162A.661.661,0,0,0,24.3,82.2a2.559,2.559,0,0,0,.06-.531l0-8.539h-.634V71.767h2l0,10.206a2.14,2.14,0,0,1-.55,1.543,2.1,2.1,0,0,1-1.508.545h-1.1l-7.169,0Q13.269,84.018,13.14,82.108ZM15.121,78a2.6,2.6,0,0,0-.614,1.746v1.751a3.441,3.441,0,0,0,.047.624.728.728,0,0,0,.177.377.7.7,0,0,0,.364.186,2.965,2.965,0,0,0,.615.051H19.37V79.117a.714.714,0,0,0-.242-.442,3.432,3.432,0,0,0-.615-.5,4.8,4.8,0,0,0-.829-.423,3.127,3.127,0,0,0-.886-.22q-.124-.007-.241-.007A1.981,1.981,0,0,0,15.121,78Zm22.568,4.728,6.818,0,0-3.866a3.612,3.612,0,0,0-.06-.624.743.743,0,0,0-.187-.377.692.692,0,0,0-.367-.182,3.315,3.315,0,0,0-.616-.046h-3.8v.41H38.087v-1.8l5.393,0a2.5,2.5,0,0,1,1.821.567,2.456,2.456,0,0,1,.573,1.805l0,4.108,1.769,0h.773a2.8,2.8,0,0,0,.535-.041.651.651,0,0,0,.336-.162.667.667,0,0,0,.177-.328,2.544,2.544,0,0,0,.06-.531l0-8.538h-.633V71.76h2l0,10.206a2.143,2.143,0,0,1-.549,1.542,2.113,2.113,0,0,1-1.508.545h-1.1l-10.049,0ZM53.381,84.05l0-10.961h-.624V71.749h1.956l0,12.3Zm9.58-.22a3.121,3.121,0,0,1-1.022-.6,3.073,3.073,0,0,1-.717-.945,4.194,4.194,0,0,1-.383-1.256,6.867,6.867,0,0,1-.065-1.071,6.041,6.041,0,0,1,.112-1.072,6.112,6.112,0,0,1,.432-1.407,6.4,6.4,0,0,1,.74-1.238l1.165.818a5.437,5.437,0,0,0-.716,1.253,5.644,5.644,0,0,0-.363,1.486,2.777,2.777,0,0,0,.49,2.129,2.52,2.52,0,0,0,2,.786l8.837,0A2.822,2.822,0,0,0,74,82.67a.652.652,0,0,0,.335-.163.661.661,0,0,0,.177-.326,2.567,2.567,0,0,0,.059-.531V77.59h-.633V76.23h2l0,5.728a1.9,1.9,0,0,1-2.057,2.087l-9.648,0A3.941,3.941,0,0,1,62.96,83.83Zm15.472.212,0-10.961H77.8V71.74H79.76l0,12.3Zm10.076-.548a2.142,2.142,0,0,1-.55-1.541l0-10.216h2V73.1h-.634l0,8.549a2.536,2.536,0,0,0,.062.531.607.607,0,0,0,.511.489,2.822,2.822,0,0,0,.535.041H92.7a1.913,1.913,0,0,1-.112-.624c-.013-.218-.021-.476-.021-.779s.005-.61.014-.926.022-.625.042-.922.042-.556.074-.773a2.974,2.974,0,0,1,.661-1.514,2.805,2.805,0,0,1,1.424-.862,4.553,4.553,0,0,1,2.105-.1,4.266,4.266,0,0,1,1.92.954l0-.941h1.984v1.332h-.633l0,5.15h1.777l2.786,0a12.249,12.249,0,0,1-1.976-3.343,4.4,4.4,0,0,1-.068-.8,2.762,2.762,0,0,1,.073-.628,1.743,1.743,0,0,1,.209-.5,2.418,2.418,0,0,1,.336-.419,3.69,3.69,0,0,1,2.663-.792h1.22a3.686,3.686,0,0,1,2.664.791,3.014,3.014,0,0,1,.354.433,1.912,1.912,0,0,1,.242.527,2.053,2.053,0,0,1,.075.633,2.967,2.967,0,0,1-.13.755,8.123,8.123,0,0,1-.577,1.2,23.86,23.86,0,0,1-1.4,2.146h3.762a2.785,2.785,0,0,0,.535-.043.652.652,0,0,0,.336-.163.661.661,0,0,0,.177-.326,2.552,2.552,0,0,0,.06-.531l0-8.539h-.633v-1.36h2l0,10.207a2.145,2.145,0,0,1-.549,1.543,2.107,2.107,0,0,1-1.508.545h-1.1l-9.462,0h0l-10.114,0h-1.9A2.116,2.116,0,0,1,88.508,83.494Zm6.062-5.523a2.594,2.594,0,0,0-.613,1.746v1.75a3.717,3.717,0,0,0,.041.62.736.736,0,0,0,.163.372.649.649,0,0,0,.346.187,3.017,3.017,0,0,0,.577.06h3.735l0-3.614a.711.711,0,0,0-.242-.443,3.405,3.405,0,0,0-.615-.5,4.685,4.685,0,0,0-.83-.423,3.123,3.123,0,0,0-.884-.22q-.122-.007-.238-.007A1.984,1.984,0,0,0,94.569,77.971Zm10.584-.223a1.972,1.972,0,0,0-.842.494.64.64,0,0,0-.192.349,1.228,1.228,0,0,0,.014.433,5.387,5.387,0,0,0,.635,1.146q.586.913,1.759,2.533h.067A20.816,20.816,0,0,0,109,79.023a.9.9,0,0,0-.21-.788,1.761,1.761,0,0,0-.815-.47q-.122-.036-.257-.07a2.607,2.607,0,0,0-.335-.051c-.134-.012-.3-.023-.5-.032s-.447-.014-.745-.014A3.453,3.453,0,0,0,105.153,77.747Zm15.578,4.326c-.013-.219-.02-.477-.02-.778s0-.61.014-.926.022-.625.041-.922.042-.556.074-.774a2.974,2.974,0,0,1,.661-1.513,2.807,2.807,0,0,1,1.426-.862,4.532,4.532,0,0,1,2.1-.1,4.26,4.26,0,0,1,1.92.953l0-.941h1.985v1.332H128.3l0,5.151h1.769l.848,0a2.7,2.7,0,0,0,.522-.041.69.69,0,0,0,.325-.149.613.613,0,0,0,.176-.3,2.205,2.205,0,0,0,.075-.489c-.006-.224-.009-.473-.009-.751s.005-.552.019-.829.027-.543.045-.8.044-.48.075-.666a2.977,2.977,0,0,1,.661-1.514,2.8,2.8,0,0,1,1.425-.86,4.51,4.51,0,0,1,2.1-.1,4.27,4.27,0,0,1,1.921.952v-.94h1.984V77.54h-.633l0,6.481-5.308,0a2.6,2.6,0,0,1-1.556-.455,2.139,2.139,0,0,1-1.4.456h-1.174l-7.17,0Q120.861,83.981,120.731,82.074Zm1.981-4.113a2.607,2.607,0,0,0-.615,1.746l0,1.75a3.355,3.355,0,0,0,.047.624.721.721,0,0,0,.176.377.7.7,0,0,0,.365.187,2.949,2.949,0,0,0,.614.051h3.66V79.081a.714.714,0,0,0-.242-.442,3.445,3.445,0,0,0-.616-.5,4.679,4.679,0,0,0-.829-.424,3.148,3.148,0,0,0-.885-.219q-.126-.007-.244-.007A1.981,1.981,0,0,0,122.712,77.961Zm11.306,0A2.6,2.6,0,0,0,133.4,79.7v1.751a3.453,3.453,0,0,0,.047.625.721.721,0,0,0,.177.377.7.7,0,0,0,.363.186,3.032,3.032,0,0,0,.615.05h3.66l0-3.614a.712.712,0,0,0-.241-.442,3.447,3.447,0,0,0-.616-.5,4.778,4.778,0,0,0-.83-.423,3.141,3.141,0,0,0-.885-.219q-.124-.007-.242-.007A1.978,1.978,0,0,0,134.018,77.957Zm11.951,6.063h-1.807a2.107,2.107,0,0,1-1.509-.545,2.141,2.141,0,0,1-.55-1.541l0-10.216h2v1.36h-.633l0,8.55a2.6,2.6,0,0,0,.062.53.661.661,0,0,0,.177.327.651.651,0,0,0,.335.162,2.816,2.816,0,0,0,.536.042h4.171a12.209,12.209,0,0,1-1.975-3.343,4.26,4.26,0,0,1-.07-.8,2.77,2.77,0,0,1,.073-.629,1.761,1.761,0,0,1,.21-.5,2.37,2.37,0,0,1,.336-.418,3.68,3.68,0,0,1,2.662-.793h1.22a3.689,3.689,0,0,1,2.664.789,2.79,2.79,0,0,1,.354.433,1.9,1.9,0,0,1,.242.527,2.084,2.084,0,0,1,.076.633,2.985,2.985,0,0,1-.13.754,7.894,7.894,0,0,1-.577,1.2,23.079,23.079,0,0,1-1.4,2.147H156.2a2.715,2.715,0,0,0,.535-.043.651.651,0,0,0,.336-.162.677.677,0,0,0,.177-.326,2.522,2.522,0,0,0,.059-.531l0-8.54h-.634v-1.36h2l0,10.206a2.137,2.137,0,0,1-.549,1.542,2.115,2.115,0,0,1-1.508.546h-1.1l-9.462,0h0Zm3.215-6.287a1.963,1.963,0,0,0-.842.494.65.65,0,0,0-.191.349,1.209,1.209,0,0,0,.014.433,5.3,5.3,0,0,0,.634,1.145q.587.914,1.761,2.534h.065a20.683,20.683,0,0,0,2.41-3.68.893.893,0,0,0-.209-.786,1.754,1.754,0,0,0-.816-.472c-.08-.023-.166-.047-.256-.068a2.288,2.288,0,0,0-.336-.052c-.132-.013-.3-.023-.5-.032s-.447-.013-.745-.013A3.429,3.429,0,0,0,149.184,77.733Zm11.98-4.679h-.624V71.713H162.5l0,12.3h-1.33Zm7.415,9q-.018-.325-.018-.779c0-.3,0-.609.014-.926s.022-.625.04-.922.044-.556.075-.774a2.975,2.975,0,0,1,.662-1.513,2.806,2.806,0,0,1,1.425-.862,4.533,4.533,0,0,1,2.1-.1,4.262,4.262,0,0,1,1.92.954V76.2h1.984V77.53h-.633l0,5.149h2.617a2.878,2.878,0,0,0,.536-.043.607.607,0,0,0,.511-.489,2.38,2.38,0,0,0,.06-.531v-4.6l1.369,0v4.6a2.63,2.63,0,0,0,.061.531.663.663,0,0,0,.178.326.645.645,0,0,0,.334.162,2.812,2.812,0,0,0,.535.042h.773l1.285,0a2.832,2.832,0,0,0,.536-.041.648.648,0,0,0,.335-.162.667.667,0,0,0,.177-.328,2.549,2.549,0,0,0,.059-.529l0-4.6h1.369l0,4.6a2.543,2.543,0,0,0,.061.531.657.657,0,0,0,.177.327.641.641,0,0,0,.335.162,2.75,2.75,0,0,0,.536.042h2.169a1.952,1.952,0,0,1-.112-.623q-.028-.652,0-1.319a11.986,11.986,0,0,1,.114-1.307,2.979,2.979,0,0,1,.661-1.514,2.81,2.81,0,0,1,1.425-.862,4.685,4.685,0,0,1,1.714-.158l-.309-.717a9.823,9.823,0,0,1,1.733-.815,9.251,9.251,0,0,1,1.9-.471,4.779,4.779,0,0,1,1.69.055,3.464,3.464,0,0,1,1.35.614,3.1,3.1,0,0,1,.9,1.113,3.643,3.643,0,0,1,.35,1.541V82.67h2.5a2.8,2.8,0,0,0,.535-.042.645.645,0,0,0,.335-.163.666.666,0,0,0,.178-.326,2.514,2.514,0,0,0,.059-.531l0-8.54h-.634v-1.36h2l0,10.207a2.143,2.143,0,0,1-.549,1.541A2.117,2.117,0,0,1,204.5,84h-1.1l-14.277,0h-1.545a2.206,2.206,0,0,1-1.38-.427,2.1,2.1,0,0,1-1.368.428l-1.611,0h-1.285a2.208,2.208,0,0,1-1.379-.428,2.111,2.111,0,0,1-1.369.428h-1.174l-7.17,0Q168.71,83.966,168.579,82.058Zm1.982-4.112a2.6,2.6,0,0,0-.614,1.745v1.751a3.464,3.464,0,0,0,.047.626.728.728,0,0,0,.177.377.693.693,0,0,0,.364.185,2.959,2.959,0,0,0,.615.051h3.659V79.066a.718.718,0,0,0-.242-.443,3.437,3.437,0,0,0-.615-.5,4.649,4.649,0,0,0-.829-.423,3.107,3.107,0,0,0-.887-.219q-.126-.007-.245-.007A1.975,1.975,0,0,0,170.561,77.945Zm21.476.765a2.6,2.6,0,0,0-.614,1.747c-.005.143-.009.3-.009.484s0,.345.009.494a3.666,3.666,0,0,0,.043.618.738.738,0,0,0,.163.373.635.635,0,0,0,.344.185,2.889,2.889,0,0,0,.579.061h3.733V79.831a.716.716,0,0,0-.242-.442,3.36,3.36,0,0,0-.615-.5,4.679,4.679,0,0,0-.829-.424,3.124,3.124,0,0,0-.884-.218q-.125-.007-.243-.007A1.979,1.979,0,0,0,192.037,78.71Zm5.308-2.381q-.27.058-.572.149c-.2.063-.4.129-.61.2s-.407.148-.6.229-.385.158-.56.234a4.724,4.724,0,0,1,1.276.762q.242.186.485.392a3.416,3.416,0,0,1,.433.437,2.378,2.378,0,0,1,.312.493,1.319,1.319,0,0,1,.121.559v2.887h2.515V78.405a2.552,2.552,0,0,0-.225-1.062,1.825,1.825,0,0,0-.587-.712,2.043,2.043,0,0,0-.879-.344,2.754,2.754,0,0,0-.419-.031A3.425,3.425,0,0,0,197.345,76.329Zm11.7-3.29h-.625V71.7l1.957,0,0,12.3-1.332,0ZM66.919,74.845H68.3v1.389H66.919Zm2.105,1.388V74.844H70.4v1.389Zm-53.848-2.9h1.378l0,1.388H15.177Zm2.105,1.387V73.335h1.378v1.388Zm79.736-1.414H98.4V74.7H97.018Zm-2.1,1.388V73.31h1.378V74.7Zm29.959-1.4h1.378v1.388h-1.379Zm-2.1,1.388V73.3h1.378v1.388Zm49.953-1.4H174.1V74.67h-1.378Zm-2.1,1.388V73.283h1.378l0,1.388Zm8.5,0V74.1h.55a1.434,1.434,0,0,1-.242-.849v-.261a1.531,1.531,0,0,1,.116-.6,1.293,1.293,0,0,1,.321-.456,1.452,1.452,0,0,1,.489-.29,1.832,1.832,0,0,1,.619-.1,2.659,2.659,0,0,1,.489.047,5.078,5.078,0,0,1,.5.122v.829h-.615v-.317a1.279,1.279,0,0,0-.215-.051,1.383,1.383,0,0,0-.176-.014.906.906,0,0,0-.656.239.95.95,0,0,0-.256.694v.177a.874.874,0,0,0,.257.6.917.917,0,0,0,.572.242h1.183v.568ZM88.51,36.3a.162.162,0,0,1,.08-.06c.09-.08.2-.159.32-.249q.375-.286.9-.661c.18-.13.37-.27.57-.41,1.16-.82,2.75-1.9,4.721-3.171.36-.229.72-.45,1.1-.689s.76-.481,1.15-.72c.429-.27.859-.53,1.319-.8,2.651-1.6,5.76-3.38,9.291-5.22.28-.15.56-.29.84-.44q.72-.375,1.47-.75c.391-.2.79-.4,1.19-.6.011,0,.011,0,.011-.01h.02v.01h.01c.39.2.78.39,1.17.59q1.2.6,2.34,1.2c.72.38,1.44.76,2.13,1.14.03.01.049.03.079.04.7.37,1.371.74,2.03,1.12.01,0,.02,0,.02.011.68.37,1.33.74,1.96,1.1.41.25.82.48,1.22.71.419.249.83.49,1.229.73.671.4,1.31.8,1.931,1.17.26.16.509.319.76.48h.01c.25.16.5.311.74.47h.011c2.689,1.7,4.71,3.1,6.009,4.04q.54.375.9.661c.08.059.16.11.23.169s.13.1.19.14a.01.01,0,0,0-.01.01,138.226,138.226,0,0,0-22.97,20.46A138.491,138.491,0,0,0,88.51,36.3Zm25.35,10.87a3.478,3.478,0,0,0,2.291.93c.869,0,2.11-.82,1.5-1.69a.528.528,0,0,0-.75-.069.234.234,0,0,0-.07.069,1.344,1.344,0,0,1-1.02.5,1.52,1.52,0,0,1-1.26-.6.236.236,0,0,1,.03-.229.383.383,0,0,0,.32-.09.357.357,0,0,0,.05-.481.332.332,0,0,0-.47,0h-.01a.359.359,0,0,0-.1.391.362.362,0,0,1-.08.12.109.109,0,0,0-.02-.08.093.093,0,0,0-.121,0L114.1,46c-.56-.59-1.111-1.13-1.63-1.63a37.281,37.281,0,0,1,3.26-2.5c3.64-2.42,6.37-2.18,6.37-2.18a7.75,7.75,0,0,0-5.82.62,31.641,31.641,0,0,0-4.65,3.309,31.027,31.027,0,0,0-4.639-3.309,7.769,7.769,0,0,0-5.82-.641s2.73-.229,6.36,2.181a36.478,36.478,0,0,1,3.289,2.52c-.54.5-1.09,1.04-1.64,1.62l-.049-.05a.093.093,0,0,0-.121,0,.188.188,0,0,0-.02.07.448.448,0,0,1-.08-.11.354.354,0,0,0-.1-.391.342.342,0,0,0-.47-.01.01.01,0,0,1-.01.01.345.345,0,0,0,.049.471.4.4,0,0,0,.25.1.223.223,0,0,0,.08-.01.313.313,0,0,1,.03.229,1.547,1.547,0,0,1-1.27.61,1.354,1.354,0,0,1-1.02-.51.539.539,0,0,0-.76-.059l-.059.059c-.61.88.62,1.69,1.5,1.69a3.34,3.34,0,0,0,2.281-.93c.09-.1.159-.15.239-.111s.08.1.1.17a.356.356,0,0,0,.121.32.329.329,0,0,0,.46.02.317.317,0,0,0,.02-.45.1.1,0,0,0-.06-.049.351.351,0,0,0-.259-.1.076.076,0,0,0,.01-.1l-.01-.01-.121-.12c.22-.221.841-.84,1.73-1.62.87.78,1.51,1.4,1.731,1.62l-.131.12a.109.109,0,0,0,0,.11.355.355,0,0,0-.26.1.343.343,0,0,0-.059.47l.01.01a.345.345,0,0,0,.48,0,.383.383,0,0,0,.131-.31.181.181,0,0,1,.09-.169.062.062,0,0,1,.038-.011A.285.285,0,0,1,113.86,47.174Zm-2.79-6.54H112.1l.3-8.54h.02c1.35,1.21,1.76,2.72,2.04,5.38a.26.26,0,0,0,.139.2c.01.01.031.01.05.02a.275.275,0,0,0,.27-.1c1.09-1.55,1.44-3.02,1-4.13a5.578,5.578,0,0,0-2.77-2.319,3.751,3.751,0,0,1,3.98,2.3.251.251,0,0,0,.481-.11,6.538,6.538,0,0,0-.46-2.57,2.593,2.593,0,0,0-1.13-1.29c-.01-.01-.02-.01-.03-.02-.64-.33-2.32.049-3.181.4a11.819,11.819,0,0,1,1.78-1.409,4.266,4.266,0,0,1,1.36-.43.258.258,0,0,0,.23-.18.253.253,0,0,0-.09-.27,3.345,3.345,0,0,0-2.47-.63c-.58.15-1.48,1.4-1.84,2.119a3.044,3.044,0,0,0-1.08-1.969,4.2,4.2,0,0,0-3.29-.15.25.25,0,0,0-.159.26.244.244,0,0,0,.2.229,4.112,4.112,0,0,1,2.99,2.371,4.37,4.37,0,0,0-3.41-.59,3.229,3.229,0,0,0-1.37,1.21,5.248,5.248,0,0,0-.74,2.19.264.264,0,0,0,.13.26h.02a.246.246,0,0,0,.291-.06c1.44-1.669,3.1-2.36,4.649-1.97a5.238,5.238,0,0,0-2.74,2.011,5.022,5.022,0,0,0,.71,4.819.335.335,0,0,0,.09.08.251.251,0,0,0,.17.03.283.283,0,0,0,.2-.21c.02-.12.04-.24.06-.35.319-2.06.81-3.94,2.28-5.17Zm29.06-8.47a3.158,3.158,0,0,0-.4-.28,1.908,1.908,0,0,0-.23-.16,135.129,135.129,0,0,0-17.33-9.91c-.7-.34-1.409-.68-2.149-1.03h-.011c-.73-.35-1.48-.69-2.25-1.04,1.07-.47,2.16-.94,3.28-1.41s2.28-.93,3.45-1.39c2.06-.81,4.181-1.6,6.39-2.37,3.37-1.181,6.89-2.31,10.59-3.351h.01c12.39,3.85,19.43,7.581,21.69,8.88a142.253,142.253,0,0,0-22.86,12.18ZM59.79,20.1c2.26-1.3,9.3-5.03,21.69-8.88h.01c3.76,1.05,7.34,2.2,10.76,3.4q3.164,1.125,6.14,2.29,1.918.752,3.751,1.514-1.831-.765-3.749-1.519c2.371.931,4.652,1.878,6.817,2.832l0,0q-.451-.2-.909-.4.455.2.9.4c-.39.18-.77.35-1.15.52-.59.28-1.17.55-1.73.81q-1.575.749-3.03,1.47l-1.79.91c-.29.15-.57.3-.859.45-.571.28-1.121.58-1.651.87a.036.036,0,0,1-.03.01c-.5.27-.99.54-1.46.8-.71.39-1.39.77-2.03,1.14-1.08.619-2.07,1.21-2.98,1.75-.36.22-.71.43-1.039.64-.661.41-1.27.79-1.821,1.15-.39.26-.76.5-1.09.72-.159.11-.32.21-.46.31-.229.16-.44.3-.63.43-.21.14-.4.27-.56.39-.09.06-.17.121-.24.17A142.214,142.214,0,0,0,59.79,20.1Zm87.74-10.47a170.264,170.264,0,0,1,21.94-3.84,205.62,205.62,0,0,1,23.18,6.08,119.167,119.167,0,0,0-22.611,5.58A226.611,226.611,0,0,0,147.53,9.634ZM30.31,11.874A205.578,205.578,0,0,1,53.49,5.793a170.264,170.264,0,0,1,21.94,3.84c-6.77,1.99-12.39,3.95-16.33,5.41s-6.18,2.41-6.18,2.41A119.174,119.174,0,0,0,30.31,11.874Zm81.17,5.16h-.01v-.01c-1.271-.52-2.58-1.021-3.92-1.53-.3-.11-.61-.23-.92-.34a178.212,178.212,0,0,0-18.62-5.83,227.7,227.7,0,0,1,23.47-5,227.73,227.73,0,0,1,23.469,5,178.193,178.193,0,0,0-18.619,5.83c-.311.11-.62.23-.921.34-1.34.509-2.65,1.01-3.92,1.53v.01Zm88.539-5.97c-.169-.05-.55-.17-1.12-.34-.19-.06-.39-.13-.62-.19-1.35-.41-3.41-1.011-6.07-1.72l-.074-.02-.5-.135-.022-.005-.073-.02L190.283,8.3c-.191-.045-.382-.1-.573-.15-.59-.149-1.21-.31-1.84-.47-1.28-.32-2.64-.65-4.09-1-.7-.16-1.41-.32-2.13-.49-1.5-.339-3.07-.689-4.7-1.03a161.984,161.984,0,0,1,23.95.29,212.083,212.083,0,0,1,22.06,6.22A111.156,111.156,0,0,0,200.02,11.064Zm-7.894-2.273c-.137-.037-.279-.078-.425-.115ZM22.06,5.453a161.983,161.983,0,0,1,23.95-.29c-12.95,2.73-21.86,5.52-23.07,5.9A111.192,111.192,0,0,0,0,11.673,212.167,212.167,0,0,1,22.06,5.453Zm97.52-2.3c6.07-.79,12.61-1.44,19.67-1.9h.031c4.53.429,8.83.95,12.9,1.53,3.74.529,7.27,1.11,10.57,1.71-2.01.19-3.98.419-5.93.67q-2.04.255-4.05.57c-1.329.2-2.66.41-3.97.64s-2.589.461-3.86.71-2.52.5-3.759.77C134.62,6.1,127.29,4.424,119.58,3.154ZM66.16,5.173q-2.94-.39-5.95-.68.95-.173,1.925-.343-.977.17-1.929.343l-.014,0q2.46-.446,5.087-.872,2.665-.434,5.491-.836c4.071-.58,8.38-1.1,12.91-1.53h.03c7.061.46,13.6,1.11,19.67,1.9-7.71,1.27-15.04,2.949-21.6,4.7C76.84,6.783,71.62,5.873,66.16,5.173ZM187.4,3.763c-5.78-.22-11.37-.159-16.76.131-6.35-1.2-13.42-2.33-20.93-3.17q9.8-.346,20.76-.15a214.262,214.262,0,0,1,24.61,3.62C192.48,3.993,189.92,3.843,187.4,3.763Zm-159.6.43A218.707,218.707,0,0,1,52.4.573h.05c7.3-.14,14.2-.07,20.73.16C65.67,1.573,58.6,2.7,52.26,3.9h-.01a188.823,188.823,0,0,0-24.39.29ZM111.52,2h-.08c-1.52-.19-3.05-.36-4.58-.51-4.67-.45-9.41-.73-14.12-.73-1.429,0-2.859.03-4.279.08,7.22-.55,14.93-.88,23.02-.84H112.8c7.61,0,14.871.32,21.7.84-3.34-.13-6.719-.1-10.08.06-.9.03-1.81.08-2.71.139q-2.8.181-5.59.45c-1.53.15-3.07.32-4.58.51Z" transform="translate(0.169 0.5)" fill="#fff" stroke="rgba(0,0,0,0)" stroke-width="1"/>
</svg>
