<svg xmlns="http://www.w3.org/2000/svg" width="222.331" height="97.346" viewBox="0 0 222.331 97.346">
	<path id="Path_488" data-name="Path 488" d="M-114.593,25.347a.3.3,0,0,0-.247.1h-.22l-.229-1.581h.274a1.586,1.586,0,0,0,1.581,1.315,1.008,1.008,0,0,0,1.133-.941c0-.428-.311-.8-1-1.27a6.293,6.293,0,0,1-1.579-1.26,1.356,1.356,0,0,1-.3-.841c0-.768.667-1.334,1.682-1.335.53,0,.923.147,1.169.147a.3.3,0,0,0,.265-.11h.229l.2,1.417h-.274a1.628,1.628,0,0,0-1.49-1.16c-.585,0-.9.348-.9.75,0,.548.558.923,1.436,1.471,1.005.63,1.453,1.169,1.453,1.882,0,.94-.794,1.581-1.964,1.581h-.005A8.452,8.452,0,0,1-114.593,25.347Zm43.809-2.682a3.131,3.131,0,0,1,3.334-3.145c2.01,0,3.335,1.215,3.336,2.887A3.159,3.159,0,0,1-67.486,25.5C-69.35,25.5-70.784,24.337-70.784,22.665Zm1.1-.247a3.006,3.006,0,0,0,.687,2.028,2.2,2.2,0,0,0,1.655.757c1.242,0,2.119-1,2.118-2.568,0-1.644-.951-2.822-2.312-2.822C-68.793,19.813-69.68,20.773-69.68,22.418Zm39.487,2.9a.309.309,0,0,0-.247.1h-.219l-.229-1.58h.274a1.585,1.585,0,0,0,1.581,1.316,1.009,1.009,0,0,0,1.133-.942c0-.428-.311-.8-1-1.27a6.364,6.364,0,0,1-1.581-1.26,1.358,1.358,0,0,1-.3-.84c0-.768.667-1.335,1.682-1.335.529,0,.922.146,1.168.146a.3.3,0,0,0,.266-.11h.229l.2,1.416h-.275A1.627,1.627,0,0,0-29,19.8c-.585,0-.9.348-.9.75,0,.548.558.923,1.436,1.471,1,.631,1.453,1.169,1.453,1.882,0,.941-.794,1.58-1.964,1.582A8.459,8.459,0,0,1-30.193,25.319Zm7.141-2.7a3.183,3.183,0,0,1,1.068-2.43,3.269,3.269,0,0,1,2.148-.686,11.772,11.772,0,0,1,1.744.247.253.253,0,0,0,.238-.1h.265v1.681h-.274a1.756,1.756,0,0,0-1.81-1.535c-1.4,0-2.275,1.116-2.275,2.723a2.88,2.88,0,0,0,.568,1.836,2.13,2.13,0,0,0,1.681.786,2.531,2.531,0,0,0,1.169-.3V23.716c0-.63-.266-.676-1.088-.676v-.246h2.732v.247c-.456.009-.629.173-.629.648v1.234a6.334,6.334,0,0,1-2.449.559A2.815,2.815,0,0,1-23.053,22.621Zm53.86.549,0-2.631c0-.539-.183-.658-.777-.658v-.246l2.595,0v.247c-.647,0-.8.138-.8.75l0,2.531c0,1.069.7,1.735,1.956,1.735s1.964-.64,1.964-1.764V20.619c0-.667-.156-.739-.878-.739v-.247h2.211v.247c-.639,0-.831.11-.831.749v2.6c0,1.308-1,2.23-2.768,2.231S30.807,24.586,30.807,23.17Zm20.536-.545a3.134,3.134,0,0,1,3.335-3.145c2.01,0,3.335,1.214,3.336,2.886a3.159,3.159,0,0,1-3.371,3.09C52.78,25.456,51.345,24.3,51.343,22.624Zm1.106-.247a3,3,0,0,0,.687,2.029,2.2,2.2,0,0,0,1.653.758c1.243,0,2.12-1.005,2.119-2.568,0-1.645-.951-2.823-2.312-2.823C53.336,19.773,52.448,20.732,52.449,22.377ZM-74.344,24.21A10.585,10.585,0,0,0-75.669,23a4.713,4.713,0,0,1-.813,0v1.261c0,.713.12.851.787.851h.146v.247h-2.8v-.246h.11c.6,0,.739-.148.739-.742V20.62c0-.6-.164-.694-.851-.7V19.67c.211,0,1.252-.083,2.285-.084a3.605,3.605,0,0,1,1.79.329,1.414,1.414,0,0,1,.823,1.307A1.578,1.578,0,0,1-74.6,22.711a16.95,16.95,0,0,1,1.289,1.235,3.6,3.6,0,0,0,2.184,1.249v.257h-.429A3.116,3.116,0,0,1-74.344,24.21Zm-2.14-4.33,0,2.859a2.29,2.29,0,0,0,.3.028,1.955,1.955,0,0,0,1.316-.448,1.41,1.41,0,0,0,.311-1.006,1.329,1.329,0,0,0-1.5-1.47A2.729,2.729,0,0,0-76.484,19.88Zm30.21,5.563A3.112,3.112,0,0,1-49.06,24.2a10.717,10.717,0,0,0-1.326-1.214,4.912,4.912,0,0,1-.814,0v1.261c0,.713.119.851.786.85h.148v.247h-2.8V25.1h.109c.6,0,.74-.148.74-.742V20.612c0-.6-.165-.695-.85-.7v-.247c.21,0,1.252-.084,2.284-.084a3.62,3.62,0,0,1,1.791.329,1.413,1.413,0,0,1,.822,1.307,1.579,1.579,0,0,1-1.15,1.49,17.094,17.094,0,0,1,1.289,1.233,3.62,3.62,0,0,0,2.184,1.252v.255ZM-51.2,19.872v2.86a2.512,2.512,0,0,0,.3.026,1.953,1.953,0,0,0,1.317-.447,1.416,1.416,0,0,0,.31-1.005,1.331,1.331,0,0,0-1.5-1.472A2.687,2.687,0,0,0-51.2,19.872ZM8.253,25.425a3.114,3.114,0,0,1-2.787-1.241A10.454,10.454,0,0,0,4.14,22.969a4.912,4.912,0,0,1-.814,0V24.23c0,.713.12.851.787.851H4.26v.246h-2.8V25.08h.11c.6,0,.74-.147.74-.741l0-3.746c0-.6-.164-.694-.849-.7v-.246c.211,0,1.251-.084,2.284-.084a3.612,3.612,0,0,1,1.791.329,1.412,1.412,0,0,1,.822,1.306,1.579,1.579,0,0,1-1.151,1.49A16.415,16.415,0,0,1,6.5,23.918a3.659,3.659,0,0,0,2.127,1.245v-.086c.667-.009.739-.146,1.032-.949l1.606-4.406-.073-.228h1.023l1.7,4.54c.337.914.383,1.042,1.014,1.042v.248H12.216v-.247c.731,0,.923-.073.922-.337a1.338,1.338,0,0,0-.1-.412l-.467-1.206H10.479c-.109.311-.266.694-.374,1.014a1.766,1.766,0,0,0-.165.594c0,.292.275.347.695.347h.22v.247H8.682v.1ZM3.326,19.853v2.86a2.471,2.471,0,0,0,.3.028,1.95,1.95,0,0,0,1.316-.449,1.413,1.413,0,0,0,.311-1.005,1.329,1.329,0,0,0-1.5-1.47A2.829,2.829,0,0,0,3.326,19.853Zm7.325,2.812H12.4l-.877-2.312Zm54.835,2.741A3.119,3.119,0,0,1,62.7,24.165a10.523,10.523,0,0,0-1.325-1.215,4.805,4.805,0,0,1-.813,0v1.261c0,.713.12.851.787.851l.146,0v.247H58.7v-.247h.11c.6,0,.739-.147.739-.741V20.575c0-.6-.165-.694-.851-.7v-.247c.211,0,1.252-.084,2.284-.084a3.6,3.6,0,0,1,1.791.329,1.411,1.411,0,0,1,.824,1.306,1.579,1.579,0,0,1-1.151,1.49A16.915,16.915,0,0,1,63.732,23.9a3.6,3.6,0,0,0,2.184,1.251v.257Zm-4.928-5.572,0,2.86a2.439,2.439,0,0,0,.3.028,1.951,1.951,0,0,0,1.316-.449,1.406,1.406,0,0,0,.31-1.005,1.329,1.329,0,0,0-1.5-1.47A2.852,2.852,0,0,0,60.559,19.834ZM-5.517,25.384l-4.47-4.7,0,3.472c0,.731.091.941.749.941.065,0,.12-.009.166-.009v.247h-2.184v-.247h.082c.512,0,.685-.147.685-.75V20.187a1.148,1.148,0,0,0-.768-.292v-.248H-9.6l4.076,4.3,0-3.316c0-.668-.155-.741-.9-.741v-.247h2.211v.246c-.612,0-.8.13-.8.769l0,4.723ZM-109.4,25.117c.887,0,1.059-.11,1.059-.685V20.092h-1.408c-.585,0-.64.3-.759,1.005h-.265l.165-1.571h.246c.055.146.22.155.539.154h3.993c.412,0,.485-.036.521-.156h.247l.164,1.571h-.265c-.109-.694-.164-1.005-.749-1.005h-1.417v4.341c0,.612.166.685,1.061.685v.246l-3.134,0Zm4.793,0c.667-.01.74-.148,1.031-.951l1.607-4.4-.073-.229h1.022l1.7,4.54c.338.913.384,1.04,1.015,1.04v.247h-2.713v-.248c.731,0,.922-.073.922-.337a1.3,1.3,0,0,0-.1-.411l-.467-1.206h-2.092c-.109.311-.265.694-.374,1.014a1.771,1.771,0,0,0-.165.594c0,.292.274.347.695.346h.22v.248h-2.229Zm2.027-2.415h1.746l-.878-2.31Zm5.937,2.658v-.247c.886,0,1.058-.11,1.058-.686v-4.34h-1.407c-.585,0-.64.3-.76,1.006h-.265l.165-1.572h.247c.055.147.22.156.539.155h3.992c.411,0,.485-.037.521-.155h.247l.164,1.571h-.265c-.109-.694-.164-1-.749-1h-1.416v4.34c0,.612.165.685,1.061.685v.247Zm4.792-.248c.74,0,.922-.128.922-.612V20.561c0-.585-.228-.641-.923-.639v-.248l4.669,0,.083,1.371h-.247c-.2-.9-.319-.959-.9-.958h-1.663v2.128h1.462c.548,0,.586-.156.641-.695h.246v1.836h-.247c-.055-.6-.166-.73-.649-.73h-1.454v1.708c0,.5.082.612.5.612H-88.3c.795,0,1.051-.112,1.288-1.024h.247l-.136,1.434-4.953,0Zm8.5,0c.648-.018.767-.193.767-.95l0-3.326c0-.75-.146-.913-.758-.913h-.12v-.247c.8-.009,1.627-.074,2.211-.074,1.828,0,2.6.5,2.6,1.643,0,1.078-.894,1.809-2.174,1.81a4.273,4.273,0,0,1-.749-.064v1.288c0,.7.229.814,1.033.832v.246h-2.814Zm1.78-5.227v2.833a2.023,2.023,0,0,0,.392.046,1.424,1.424,0,0,0,1.426-1.536,1.25,1.25,0,0,0-1.372-1.37A3.714,3.714,0,0,0-81.576,19.881Zm18.237,5.467V25.1c.648-.019.767-.192.767-.951l0-3.325c0-.75-.146-.914-.758-.914h-.12v-.247c.8-.009,1.627-.074,2.211-.074,1.828,0,2.6.5,2.6,1.643,0,1.079-.894,1.811-2.174,1.811a4.191,4.191,0,0,1-.749-.065v1.29c0,.7.229.813,1.033.831v.247Zm1.78-5.473v2.832a1.955,1.955,0,0,0,.392.046,1.423,1.423,0,0,0,1.426-1.536,1.25,1.25,0,0,0-1.372-1.37A3.539,3.539,0,0,0-61.559,19.875ZM-58.42,25.1c.74,0,.922-.128.922-.612V20.55c0-.585-.228-.64-.923-.639v-.247l4.669,0,.082,1.371h-.246c-.2-.905-.32-.96-.905-.959h-1.663l0,2.129h1.462c.548,0,.585-.156.639-.695h.247l0,1.836h-.247c-.055-.6-.165-.731-.649-.73h-1.453v1.709c0,.5.083.612.5.612h1.115c.8,0,1.051-.111,1.288-1.024h.247l-.137,1.434-4.952,0Zm13.98,0c.887,0,1.06-.111,1.06-.686l0-4.34h-1.407c-.584,0-.639.3-.758,1.006h-.266l.165-1.572h.247c.055.146.219.155.539.155h3.993c.41,0,.483-.037.521-.156h.247l.164,1.571-.265,0c-.109-.695-.164-1.005-.75-1.005h-1.416v4.34c0,.612.166.685,1.06.684v.247H-44.44Zm7.93,0c.74,0,.922-.128.922-.613V20.542c0-.585-.229-.639-.923-.639v-.246l4.668,0,.083,1.37h-.247c-.2-.9-.319-.958-.9-.958h-1.663V22.2h1.462c.549,0,.585-.155.641-.695h.247v1.837h-.246c-.057-.6-.167-.73-.651-.73h-1.453v1.709c0,.5.082.612.5.611h1.114c.795,0,1.051-.111,1.289-1.023h.246l-.136,1.434-4.952,0Zm-2.936.247v-.247c.64,0,.749-.156.749-.74v-3.8c0-.521-.192-.649-.75-.649v-.247h2.55V19.9c-.622,0-.786.157-.786.76v3.627c0,.631.147.8.695.8h.091v.247Zm22.787-.255c.74,0,.922-.128.922-.612l0-3.938c0-.585-.228-.64-.923-.639V19.65l4.669,0,.082,1.371h-.247c-.2-.9-.32-.958-.9-.958h-1.663v2.128h1.462c.548,0,.585-.156.64-.695h.247v1.837h-.247c-.055-.6-.165-.731-.649-.731h-1.453v1.708c0,.5.082.612.5.612H-13.1c.795,0,1.05-.11,1.288-1.024h.247l-.136,1.435-4.953,0Zm12.766,0c.74,0,.923-.128.923-.613l0-3.938c0-.584-.229-.639-.922-.639v-.246l4.669,0,.082,1.37H.608c-.2-.9-.319-.958-.9-.958H-1.958v2.129H-.5c.55,0,.586-.156.641-.695H.391v1.837H.144c-.055-.6-.166-.731-.649-.731H-1.958v1.709c0,.5.082.612.5.612l1.114,0c.795,0,1.051-.11,1.289-1.022h.246l-.136,1.434-4.952,0Zm19.112-.006c.74,0,.886-.083.885-.759V20.626c0-.622-.147-.74-.768-.74h-.119V19.64l3,0v.247c-.923,0-1.1.02-1.1.678l0,3.929c0,.338.091.419.455.419h1.161c.621,0,.732-.166,1.334-.969h.274l-.7,1.38-4.422,0Zm8.23,0c.667-.009.739-.146,1.032-.95l1.606-4.4-.074-.228,1.024,0,1.7,4.541c.338.913.384,1.041,1.014,1.041v.247H27.039v-.247c.731,0,.922-.073.922-.338a1.3,1.3,0,0,0-.1-.41l-.466-1.208-2.093,0c-.109.31-.264.695-.374,1.013a1.8,1.8,0,0,0-.164.594c0,.293.275.347.695.347h.22v.247H23.448Zm2.027-2.413H27.22l-.878-2.311Zm13.27,2.408c.886,0,1.059-.11,1.059-.686v-4.34H38.395c-.584,0-.639.3-.759,1.005h-.265l.165-1.572h.247c.055.146.219.156.539.156l3.992,0c.411,0,.484-.036.521-.155h.247l.164,1.571-.265,0c-.109-.7-.164-1.005-.749-1.005H40.817v4.34c0,.612.165.686,1.06.685v.247H38.744Zm4.92,0c.685-.045.814-.2.814-.813l0-3.5c0-.731-.191-.859-.813-.878V19.63H46.3v.247c-.677.027-.814.184-.814.914v1.416h3.3V20.779c0-.712-.129-.877-.841-.9v-.246l2.687,0v.247c-.667.037-.833.148-.833.851l0,3.536c0,.613.129.759.832.8v.247H47.949v-.247c.649-.028.841-.165.841-.832V22.616h-3.3v1.69c0,.6.193.731.814.759v.246l-2.641,0Zm22.394-.007c.639,0,.749-.155.749-.74l0-3.8c0-.521-.192-.649-.749-.649v-.247h2.55v.247c-.621,0-.787.155-.787.758l0,3.627c0,.631.147.8.7.8h.091v.247h-2.55Zm4.4,0c.887,0,1.06-.11,1.06-.686l0-4.34H70.106c-.585,0-.639.3-.758,1.006h-.265l.164-1.572h.247c.055.146.22.155.539.155h3.993c.41,0,.484-.037.521-.156h.246l.165,1.571h-.265c-.11-.695-.164-1-.749-1H72.528v4.34c0,.613.166.686,1.06.686V25.3l-3.134,0Zm6.794,0c.7,0,.877-.082.876-.795V23.072l-1.719-2.466c-.428-.612-.529-.713-1.142-.741v-.247h2.751v.247c-.5,0-.64.1-.64.265,0,.119.027.2.384.713l1.123,1.608c.411-.659.886-1.39,1.224-1.966a.708.708,0,0,0,.12-.337c0-.193-.157-.284-.585-.283v-.247h2.146v.247c-.712.073-.859.229-1.471,1.225l-1.178,1.9v1.317c0,.657.156.749.868.748V25.3H77.25ZM-48.526,17a3.163,3.163,0,0,1-.842-.222c.032-.26.062-.488.094-.683s.064-.413.1-.654a3.259,3.259,0,0,0,.5.133c.176.034.348.063.516.088q2.805.308,2.8-2.47l0-7.178h-.631V4.677h2.005l0,8.755a4.538,4.538,0,0,1-.251,1.58,2.962,2.962,0,0,1-.723,1.133,3.021,3.021,0,0,1-1.156.683,4.895,4.895,0,0,1-1.546.229A7.091,7.091,0,0,1-48.526,17Zm-48.535.015a7.867,7.867,0,0,1-.784-.124,7.332,7.332,0,0,1-.757-.209l.148-1.393a3.31,3.31,0,0,0,.394.107c.183.04.377.078.581.116s.4.068.585.1a3.056,3.056,0,0,0,.417.041,2.447,2.447,0,0,0,1.677-.516,2.035,2.035,0,0,0,.581-1.6v-1.05l-3.956,0q-2.126-.046-2.258-1.949c-.012-.218-.018-.475-.018-.776s0-.608.014-.923.022-.623.04-.919.044-.555.076-.772a2.946,2.946,0,0,1,.659-1.508,2.787,2.787,0,0,1,1.42-.859,4.534,4.534,0,0,1,2.1-.1,4.249,4.249,0,0,1,1.913.951V4.692h1.977V6.02h-.632l0,7.651A3.5,3.5,0,0,1-93.2,15.19a3.073,3.073,0,0,1-.872,1.105,3.448,3.448,0,0,1-1.324.633,4.379,4.379,0,0,1-1.053.123A5.43,5.43,0,0,1-97.061,17.015Zm-1.4-10.58a2.589,2.589,0,0,0-.613,1.741V9.922a3.423,3.423,0,0,0,.047.623.725.725,0,0,0,.177.375.69.69,0,0,0,.362.185,2.877,2.877,0,0,0,.613.052l3.649,0v-3.6a.717.717,0,0,0-.241-.441,3.458,3.458,0,0,0-.614-.5,4.771,4.771,0,0,0-.826-.421,3.152,3.152,0,0,0-.883-.219q-.124-.007-.241-.007A1.972,1.972,0,0,0-98.457,6.435ZM56.1,15.173V13.789h1.375v1.384Zm2.1,0V13.789h1.373v1.383ZM-114.874,10.54c-.012-.217-.019-.475-.019-.775s0-.609.014-.924.023-.623.041-.919.043-.554.074-.772a2.955,2.955,0,0,1,.66-1.507,2.794,2.794,0,0,1,1.42-.86,4.547,4.547,0,0,1,2.1-.1,4.242,4.242,0,0,1,1.914.951V4.7h1.978V6.025h-.633l0,5.135h2.534a2.8,2.8,0,0,0,.535-.043.641.641,0,0,0,.334-.162.65.65,0,0,0,.176-.325,2.54,2.54,0,0,0,.06-.529l0-8.515h-.632V.229h2l0,10.178a2.14,2.14,0,0,1-.547,1.537,2.1,2.1,0,0,1-1.5.543h-1.1l-7.15,0Q-114.744,12.443-114.874,10.54Zm1.976-4.1a2.6,2.6,0,0,0-.612,1.742V9.926a3.347,3.347,0,0,0,.048.623.731.731,0,0,0,.175.376.689.689,0,0,0,.364.184,2.915,2.915,0,0,0,.612.052l3.65,0v-3.6a.714.714,0,0,0-.242-.441,3.388,3.388,0,0,0-.613-.5,4.683,4.683,0,0,0-.827-.42,3.1,3.1,0,0,0-.882-.22q-.122-.007-.238-.007A1.986,1.986,0,0,0-112.9,6.439Zm22.5,4.715,6.8,0V7.3a3.6,3.6,0,0,0-.06-.622.746.746,0,0,0-.186-.376.706.706,0,0,0-.367-.182,3.455,3.455,0,0,0-.614-.045h-3.787v.409H-90V4.691l5.377,0a2.5,2.5,0,0,1,1.815.566,2.453,2.453,0,0,1,.572,1.8l0,4.095H-79.7a2.791,2.791,0,0,0,.534-.042.658.658,0,0,0,.335-.162.667.667,0,0,0,.175-.326,2.378,2.378,0,0,0,.06-.53l0-8.515h-.632V.221l2,0,0,10.178a2.136,2.136,0,0,1-.548,1.537,2.1,2.1,0,0,1-1.5.543h-1.1l-10.02,0Zm15.648,1.323,0-10.93h-.623V.21h1.949l.005,12.267Zm9.552-.22a3.138,3.138,0,0,1-1.018-.594,3.082,3.082,0,0,1-.715-.943,4.137,4.137,0,0,1-.381-1.253A6.833,6.833,0,0,1-67.377,8.4a6.283,6.283,0,0,1,.113-1.069,6.11,6.11,0,0,1,.431-1.4A6.324,6.324,0,0,1-66.1,4.692l1.162.817a5.392,5.392,0,0,0-.715,1.249,5.62,5.62,0,0,0-.361,1.48,2.772,2.772,0,0,0,.488,2.122,2.515,2.515,0,0,0,1.993.784l8.812,0a2.8,2.8,0,0,0,.535-.042.648.648,0,0,0,.334-.162.661.661,0,0,0,.176-.325,2.55,2.55,0,0,0,.06-.53V6.034h-.633V4.679h2l0,5.711a2.128,2.128,0,0,1-.546,1.537,2.106,2.106,0,0,1-1.5.544l-9.619,0A3.924,3.924,0,0,1-65.2,12.256ZM-49.771,1.539h-.624V.2h1.951l0,12.267h-1.327Zm10.049,10.383a2.139,2.139,0,0,1-.548-1.537l0-10.186h2V1.554h-.632l0,8.524a2.542,2.542,0,0,0,.061.53.667.667,0,0,0,.175.325.648.648,0,0,0,.335.162,2.811,2.811,0,0,0,.535.041h2.257a1.916,1.916,0,0,1-.112-.622q-.019-.325-.019-.775c0-.3.005-.609.014-.924s.022-.623.041-.92.043-.554.074-.77a2.961,2.961,0,0,1,.66-1.509,2.8,2.8,0,0,1,1.419-.859,4.53,4.53,0,0,1,2.1-.1,4.225,4.225,0,0,1,1.913.95V4.671h1.978V6h-.631l0,5.136h4.55A12.187,12.187,0,0,1-25.523,7.8,4.322,4.322,0,0,1-25.593,7a2.789,2.789,0,0,1,.073-.626,1.757,1.757,0,0,1,.209-.5,2.409,2.409,0,0,1,.336-.419,3.668,3.668,0,0,1,2.655-.788h1.216a3.682,3.682,0,0,1,2.657.787,2.942,2.942,0,0,1,.353.432,1.878,1.878,0,0,1,.241.526,2.045,2.045,0,0,1,.075.631,2.981,2.981,0,0,1-.13.752,7.983,7.983,0,0,1-.575,1.193,23.537,23.537,0,0,1-1.392,2.141h3.752a2.846,2.846,0,0,0,.533-.043.647.647,0,0,0,.336-.162.667.667,0,0,0,.175-.325,2.548,2.548,0,0,0,.06-.529l0-8.516h-.632V.2h2l0,10.177a2.139,2.139,0,0,1-.548,1.538,2.106,2.106,0,0,1-1.5.543h-1.1l-9.434,0h0l-10.086,0h-1.893A2.115,2.115,0,0,1-39.722,11.922Zm6.044-5.509a2.584,2.584,0,0,0-.612,1.741V9.9a3.7,3.7,0,0,0,.041.618.747.747,0,0,0,.163.371.637.637,0,0,0,.344.186,3.016,3.016,0,0,0,.576.059h3.722v-3.6a.712.712,0,0,0-.24-.441,3.35,3.35,0,0,0-.614-.5,4.718,4.718,0,0,0-.827-.422A3.141,3.141,0,0,0-32,5.953q-.122-.007-.238-.007A1.98,1.98,0,0,0-33.677,6.413Zm10.553-.221a1.94,1.94,0,0,0-.84.492.634.634,0,0,0-.191.347,1.223,1.223,0,0,0,.014.432,5.309,5.309,0,0,0,.633,1.142q.585.911,1.756,2.526h.065a20.73,20.73,0,0,0,2.4-3.67.894.894,0,0,0-.209-.784,1.759,1.759,0,0,0-.814-.469c-.08-.024-.165-.047-.255-.069a2.3,2.3,0,0,0-.334-.05c-.133-.014-.3-.024-.5-.033s-.446-.014-.743-.014A3.4,3.4,0,0,0-23.124,6.192ZM-7.591,10.5q-.019-.325-.019-.776c0-.3,0-.608.014-.924s.022-.622.041-.919.043-.554.075-.77a2.952,2.952,0,0,1,.659-1.509A2.8,2.8,0,0,1-5.4,4.747a4.505,4.505,0,0,1,2.1-.1A4.227,4.227,0,0,1-1.39,5.6V4.662H.589V5.989H-.043l0,5.135h2.61a2.665,2.665,0,0,0,.52-.042.676.676,0,0,0,.325-.148.608.608,0,0,0,.175-.3,2.2,2.2,0,0,0,.075-.488c-.007-.223-.01-.472-.01-.747s.005-.552.019-.827.028-.543.046-.8.043-.478.074-.664A2.971,2.971,0,0,1,4.451,5.6a2.8,2.8,0,0,1,1.421-.859,4.535,4.535,0,0,1,2.1-.1A4.274,4.274,0,0,1,9.885,5.6V4.658l1.978,0V5.985h-.632l0,6.463H5.94A2.589,2.589,0,0,1,4.388,12a2.133,2.133,0,0,1-1.4.455l-1.169,0h0l-7.151,0Q-7.46,12.407-7.591,10.5Zm1.976-4.1a2.589,2.589,0,0,0-.612,1.741V9.891a3.42,3.42,0,0,0,.047.622A.722.722,0,0,0-6,10.889a.691.691,0,0,0,.362.186,3.018,3.018,0,0,0,.613.05h3.65l0-3.6a.71.71,0,0,0-.24-.441,3.358,3.358,0,0,0-.615-.5,4.639,4.639,0,0,0-.825-.422,3.152,3.152,0,0,0-.883-.219q-.124-.007-.24-.007A1.977,1.977,0,0,0-5.614,6.4Zm11.273,0a2.6,2.6,0,0,0-.612,1.742V9.887a3.347,3.347,0,0,0,.048.623.732.732,0,0,0,.176.376.7.7,0,0,0,.362.184,2.894,2.894,0,0,0,.614.051H9.9l0-3.6a.71.71,0,0,0-.241-.441,3.386,3.386,0,0,0-.613-.5,4.781,4.781,0,0,0-.827-.422,3.152,3.152,0,0,0-.882-.218q-.124-.007-.241-.007A1.976,1.976,0,0,0,5.658,6.4Zm8.61,5.5a2.14,2.14,0,0,1-.548-1.537l0-10.186h2V1.535h-.632l0,8.525a2.586,2.586,0,0,0,.062.529.6.6,0,0,0,.509.487,2.828,2.828,0,0,0,.535.041h4.16a12.173,12.173,0,0,1-1.97-3.334,4.376,4.376,0,0,1-.069-.793,2.758,2.758,0,0,1,.074-.627,1.728,1.728,0,0,1,.209-.5,2.377,2.377,0,0,1,.334-.418,3.671,3.671,0,0,1,2.655-.79H22.8a3.67,3.67,0,0,1,2.656.789,2.765,2.765,0,0,1,.355.432,1.938,1.938,0,0,1,.24.525,2.048,2.048,0,0,1,.076.631A2.979,2.979,0,0,1,26,7.782a7.745,7.745,0,0,1-.576,1.193,22.793,22.793,0,0,1-1.392,2.141H27.78a2.8,2.8,0,0,0,.534-.042.6.6,0,0,0,.51-.488,2.54,2.54,0,0,0,.06-.529l0-8.515h-.631l0-1.355,2,0,0,10.178A2.135,2.135,0,0,1,29.7,11.9a2.109,2.109,0,0,1-1.5.545H27.1l-9.436,0H15.773A2.1,2.1,0,0,1,14.269,11.9Zm6.513-5.727a1.959,1.959,0,0,0-.841.492.654.654,0,0,0-.191.348,1.22,1.22,0,0,0,.014.431A5.373,5.373,0,0,0,20.4,8.592q.585.91,1.755,2.524h.065a20.547,20.547,0,0,0,2.4-3.668.894.894,0,0,0-.209-.785,1.75,1.75,0,0,0-.813-.469c-.08-.024-.167-.048-.256-.069a2.286,2.286,0,0,0-.335-.051c-.131-.012-.3-.023-.5-.032s-.445-.014-.743-.014A3.4,3.4,0,0,0,20.782,6.178ZM32.73,12.441l0-10.929H32.1V.174h1.95l0,12.267Zm7.392-1.952c-.013-.217-.02-.474-.02-.775s0-.608.014-.923.022-.624.041-.921.042-.554.074-.77a2.967,2.967,0,0,1,.659-1.509,2.792,2.792,0,0,1,1.421-.859,4.506,4.506,0,0,1,2.1-.1,4.236,4.236,0,0,1,1.914.95V4.646H48.3V5.973h-.631v5.135h2.61a2.8,2.8,0,0,0,.535-.043.645.645,0,0,0,.334-.162.664.664,0,0,0,.176-.325,2.429,2.429,0,0,0,.059-.528V5.461h1.365v4.586a2.517,2.517,0,0,0,.061.529.605.605,0,0,0,.51.488,2.73,2.73,0,0,0,.535.042h2.052a2.785,2.785,0,0,0,.534-.042.644.644,0,0,0,.335-.162.664.664,0,0,0,.176-.325,2.548,2.548,0,0,0,.059-.529l0-4.587h1.365l0,4.586a2.542,2.542,0,0,0,.061.53.671.671,0,0,0,.175.325.661.661,0,0,0,.336.162,2.785,2.785,0,0,0,.534.042h2.163a1.976,1.976,0,0,1-.112-.622c-.019-.435-.02-.872-.005-1.315a12.126,12.126,0,0,1,.116-1.3A2.968,2.968,0,0,1,62.3,6.354a2.81,2.81,0,0,1,1.42-.86,4.721,4.721,0,0,1,1.709-.158l-.307-.715a9.816,9.816,0,0,1,1.727-.813,9.185,9.185,0,0,1,1.895-.47,4.732,4.732,0,0,1,1.686.056,3.429,3.429,0,0,1,1.346.612,3.084,3.084,0,0,1,.9,1.109,3.626,3.626,0,0,1,.348,1.537l0,4.448h2.489a2.791,2.791,0,0,0,.533-.041.6.6,0,0,0,.511-.489,2.471,2.471,0,0,0,.059-.528l0-8.516-.632,0V.17h2l0,10.178a2.123,2.123,0,0,1-.548,1.535,2.105,2.105,0,0,1-1.5.545h-1.1l-14.235,0H59.067a2.2,2.2,0,0,1-1.376-.427,2.092,2.092,0,0,1-1.364.427l-1.606,0H53.438a2.2,2.2,0,0,1-1.375-.427,2.1,2.1,0,0,1-1.364.427h-1.17l-7.151,0Q40.252,12.393,40.122,10.489Zm1.975-4.1a2.6,2.6,0,0,0-.612,1.741V9.875a3.43,3.43,0,0,0,.047.623.722.722,0,0,0,.177.375.688.688,0,0,0,.362.186,2.955,2.955,0,0,0,.613.05h3.65v-3.6a.71.71,0,0,0-.241-.441,3.419,3.419,0,0,0-.614-.5,4.618,4.618,0,0,0-.826-.422,3.134,3.134,0,0,0-.883-.218q-.124-.007-.241-.007A1.975,1.975,0,0,0,42.1,6.388Zm21.416.764A2.587,2.587,0,0,0,62.9,8.894c-.005.142-.009.3-.009.482s0,.344.009.491a3.672,3.672,0,0,0,.042.618.739.739,0,0,0,.163.372.645.645,0,0,0,.345.185,2.985,2.985,0,0,0,.574.06h3.724V8.269a.717.717,0,0,0-.241-.441,3.409,3.409,0,0,0-.613-.5,4.627,4.627,0,0,0-.827-.422,3.032,3.032,0,0,0-.882-.218q-.125-.007-.242-.007A1.965,1.965,0,0,0,63.513,7.152Zm5.292-2.375c-.18.038-.371.088-.571.148s-.4.13-.608.2-.407.148-.6.228-.384.157-.557.233a4.708,4.708,0,0,1,1.272.76c.161.123.322.255.484.39a3.652,3.652,0,0,1,.432.436,2.336,2.336,0,0,1,.31.492,1.3,1.3,0,0,1,.121.557V11.1h2.507V6.848a2.551,2.551,0,0,0-.224-1.059,1.8,1.8,0,0,0-.585-.71,2.035,2.035,0,0,0-.877-.343,2.672,2.672,0,0,0-.415-.031A3.462,3.462,0,0,0,68.805,4.777Zm11.666,7.648,0-10.93h-.622V.159h1.951l0,12.267ZM-61.249,3.3h1.374V4.681h-1.374Zm2.1,0h1.374V4.68H-59.15Zm-53.694-1.5h1.374V3.175h-1.373Zm2.1,0h1.373V3.174h-1.373Zm77.41-.025h1.374V3.149h-1.374Zm2.1,0h1.374V3.148h-1.374Zm27.775-.009h1.374V3.139H-3.461Zm-2.1,1.384V1.756h1.374V3.14Zm47.712-1.4h1.374V3.124H42.152Zm2.1,0h1.374V3.123H44.252Zm6.38.815h.548a1.428,1.428,0,0,1-.242-.845V1.449a1.523,1.523,0,0,1,.116-.6,1.316,1.316,0,0,1,.32-.455A1.458,1.458,0,0,1,51.86.1a1.825,1.825,0,0,1,.617-.1,2.656,2.656,0,0,1,.488.047,4.984,4.984,0,0,1,.5.122V.994H52.85V.678a1.327,1.327,0,0,0-.391-.065A.9.9,0,0,0,51.8.851a.939.939,0,0,0-.256.691v.176a.863.863,0,0,0,.257.594.9.9,0,0,0,.57.241h1.18v.567H50.63Z" transform="translate(127.98 71.334)" fill="#4d4e4e" stroke="rgba(0,0,0,0)" stroke-width="1"/>
	<path id="Path_442" data-name="Path 442" d="M346.885,27.763a211.373,211.373,0,0,0-22-6.2A161.774,161.774,0,0,0,301,21.274c13.035,2.752,21.942,5.545,23.008,5.885A110.924,110.924,0,0,1,346.885,27.763Z" transform="translate(-124.554 -16.127)" fill="#d5c2b2"/>
	<path id="Path_443" data-name="Path 443" d="M319.089,20.3a215.555,215.555,0,0,0-24.552-3.61c-7.286-.138-14.183-.075-20.7.152,7.554.906,14.38,2.054,20.89,3.173A240.063,240.063,0,0,1,319.089,20.3Z" transform="translate(-124.554 -16.127)" fill="#ebe4de"/>
	<path id="Path_444" data-name="Path 444" d="M271.664,25.736a225.122,225.122,0,0,1,22.448,7.8h0a118.506,118.506,0,0,1,22.541-5.567,202.986,202.986,0,0,0-23.106-6.061A168.884,168.884,0,0,0,271.664,25.736Z" transform="translate(-124.554 -16.127)" fill="#c0a590"/>
	<path id="Path_445" data-name="Path 445" d="M195.131,18.905c-3.727.529-7.255,1.1-10.553,1.7l.014,0C187.886,20.009,191.409,19.434,195.131,18.905Z" transform="translate(-124.554 -16.127)" fill="none"/>
	<path id="Path_446" data-name="Path 446" d="M249.809,46.387c-.613-.377-1.255-.771-1.925-1.173-.4-.233-.806-.474-1.226-.723-.4-.233-.806-.465-1.22-.707-.627-.361-1.276-.73-1.946-1.1a.026.026,0,0,0-.022-.008c-.656-.378-1.333-.747-2.025-1.117a.361.361,0,0,0-.078-.04c-.692-.385-1.4-.763-2.132-1.14-.756-.394-1.533-.8-2.325-1.2-.385-.193-.777-.386-1.169-.587l-.014-.008h-.014c-.008.008-.008.008-.015.008A150.269,150.269,0,0,0,212.81,52.331a137.473,137.473,0,0,1,22.91,20.412,137.487,137.487,0,0,1,22.909-20.412c-.9-.7-3.408-2.538-7.308-5C250.836,47.022,250.33,46.708,249.809,46.387Z" transform="translate(-124.554 -16.127)" fill="#426829"/>
	<path id="Path_447" data-name="Path 447" d="M170.439,21.274c2.141-.423,3.953-.793,6.273-1.255a188.664,188.664,0,0,0-24.376.292q-3.012.615-5.782,1.256A161.777,161.777,0,0,1,170.439,21.274Z" transform="translate(-124.554 -16.127)" fill="#eaebe3"/>
	<path id="Path_448" data-name="Path 448" d="M184.578,20.606c3.3-.6,6.826-1.172,10.553-1.7,4.059-.577,8.355-1.1,12.871-1.53q-5.038-.328-10.415-.522c-7.487.843-14.871,1.971-20.931,3.166C179.4,20.247,181.974,20.432,184.578,20.606Z" transform="translate(-124.554 -16.127)" fill="#eaebe3"/>
	<path id="Path_449" data-name="Path 449" d="M286.861,20.606c2.745-.2,5.093-.378,7.866-.587-6.329-1.2-13.387-2.323-20.875-3.166q-5.383.188-10.415.522c4.515.431,8.81.953,12.868,1.53C280.033,19.433,283.563,20.008,286.861,20.606Z" transform="translate(-124.554 -16.127)" fill="#eaebe3"/>
	<path id="Path_450" data-name="Path 450" d="M235.72,18.118c3,.434,5.308.765,8.081,1.156,6.05-.787,12.573-1.44,19.613-1.9-1.553-.147-3.141-.279-4.744-.4h0A145.706,145.706,0,0,0,235.72,18.118Z" transform="translate(-124.554 -16.127)" fill="#eaebe3"/>
	<path id="Path_451" data-name="Path 451" d="M235.72,18.118a145.719,145.719,0,0,0-22.951-1.148h0c-1.6.124-3.19.256-4.744.4,7.04.461,13.564,1.114,19.614,1.9C230.5,18.854,232.823,18.542,235.72,18.118Z" transform="translate(-124.554 -16.127)" fill="#eaebe3"/>
	<path id="Path_452" data-name="Path 452" d="M259.12,25.421c1.081-.253,1.836-.429,2.8-.657,1.1-.262,2.236-.531,3.416-.805-6.545-1.748-13.852-3.417-21.536-4.685-2.793.362-5.494.751-8.081,1.167a227.642,227.642,0,0,1,23.4,4.98h0Z" transform="translate(-124.554 -16.127)" fill="#e3e4d9"/>
	<path id="Path_453" data-name="Path 453" d="M286.847,20.608l.012,0c-2.01.191-3.979.42-5.925.669-5.453.7-10.661,1.609-15.6,2.68,2.321.649,4.251,1.2,6.325,1.777a168.884,168.884,0,0,1,21.884-3.83q-3.164-.659-6.687-1.3Z" transform="translate(-124.554 -16.127)" fill="#e3e4d9"/>
	<path id="Path_454" data-name="Path 454" d="M271.664,25.736c-2.053.5-4.069,1.024-6.035,1.577,12.355,3.849,19.379,7.561,21.636,8.857q3.334-1.395,6.848-2.636h0A225.122,225.122,0,0,0,271.664,25.736Z" transform="translate(-124.554 -16.127)" fill="#d9ddcf"/>
	<path id="Path_455" data-name="Path 455" d="M227.639,19.274c-7.685,1.268-14.992,2.937-21.536,4.685,1.334.323,2.2.522,3.3.776.982.226,1.52.37,2.918.686h0a227.667,227.667,0,0,1,23.4-4.98C233.132,20.025,230.431,19.636,227.639,19.274Z" transform="translate(-124.554 -16.127)" fill="#e3e4d9"/>
	<path id="Path_456" data-name="Path 456" d="M190.526,21.282c-1.953-.251-3.929-.481-5.945-.672l.011,0-.014,0q-3.519.639-6.687,1.3a168.884,168.884,0,0,1,21.884,3.83c2.166-.607,4-1.118,6.326-1.777C201.173,22.89,195.972,21.981,190.526,21.282Z" transform="translate(-124.554 -16.127)" fill="#e3e4d9"/>
	<path id="Path_457" data-name="Path 457" d="M235.691,38.6h0c.392.2.827.393,1.212.586.792.4,1.569.8,2.325,1.2.727.377,1.44.755,2.132,1.14a.418.418,0,0,1,.078.041c.692.369,1.369.739,2.025,1.116a.026.026,0,0,1,.022.008c.67.37,1.319.739,1.946,1.1.414.241.82.474,1.22.707.42.249.827.49,1.226.723.67.4,1.312.795,1.925,1.172.528.33,1.027.643,1.512.948,3.9,2.458,6.41,4.3,7.308,5,1.854-1.334,3.794-2.675,5.84-4.009a136.815,136.815,0,0,0-22.5-12.507c-2.089.924-4.385,1.856-6.275,2.78Z" transform="translate(-124.554 -16.127)" fill="#d6d8c9"/>
	<path id="Path_458" data-name="Path 458" d="M249.8,46.387c.521.322,1.027.635,1.512.948C250.829,47.03,250.33,46.717,249.8,46.387Z" transform="translate(-124.554 -16.127)" fill="#d6d8c9" opacity="0.5" style="mix-blend-mode: screen;isolation: isolate"/>
	<path id="Path_459" data-name="Path 459" d="M249.8,46.387c.521.322,1.027.635,1.512.948C250.829,47.03,250.33,46.717,249.8,46.387Z" transform="translate(-124.554 -16.127)" fill="#d6d8c9" opacity="0.5" style="mix-blend-mode: screen;isolation: isolate"/>
	<path id="Path_460" data-name="Path 460" d="M235.7,38.6c-.014-.008-.007-.016-.007-.016-1.945-.877-4.143-1.839-6.232-2.763a136.863,136.863,0,0,0-22.5,12.507q3.069,2,5.84,4.009A167.761,167.761,0,0,1,235.691,38.6C235.7,38.6,235.691,38.6,235.7,38.6Z" transform="translate(-124.554 -16.127)" fill="#d6d8c9"/>
	<path id="Path_461" data-name="Path 461" d="M248.7,33.018q3.072-1.209,6.365-2.364c3.36-1.176,6.879-2.3,10.564-3.339q-3.034-.951-6.5-1.894a177.834,177.834,0,0,0-18.567,5.816c-.307.1-.613.225-.913.338q-2.01.759-3.914,1.526v.016c2.218.952,4.253,1.834,6.246,2.7l0,0,0,0C244.109,34.871,246.359,33.937,248.7,33.018Z" transform="translate(-124.554 -16.127)" fill="#d9ddcf"/>
	<path id="Path_462" data-name="Path 462" d="M241.973,35.812l0,0c2.134-.942,4.383-1.877,6.718-2.8C246.359,33.937,244.109,34.871,241.973,35.812Z" transform="translate(-124.554 -16.127)" fill="#d6d8c9" opacity="0.5" style="mix-blend-mode: screen;isolation: isolate"/>
	<path id="Path_463" data-name="Path 463" d="M241.973,35.812l0,0c2.134-.942,4.383-1.877,6.718-2.8C246.359,33.937,244.109,34.871,241.973,35.812Z" transform="translate(-124.554 -16.127)" fill="#d6d8c9" opacity="0.5" style="mix-blend-mode: screen;isolation: isolate"/>
	<path id="Path_464" data-name="Path 464" d="M235.713,33.109V33.1q-1.905-.771-3.915-1.526c-.3-.113-.606-.233-.913-.338a177.758,177.758,0,0,0-18.567-5.816q-3.462.939-6.5,1.894c3.745,1.054,7.317,2.2,10.726,3.4q3.166,1.111,6.128,2.277c2.363.928,4.639,1.873,6.8,2.824l0,0,0,0c2.168-.932,3.863-1.678,6.247-2.7Z" transform="translate(-124.554 -16.127)" fill="#d9ddcf"/>
	<path id="Path_465" data-name="Path 465" d="M222.669,32.988c2.362.928,4.636,1.873,6.794,2.826l0,0C227.308,34.861,225.032,33.916,222.669,32.988Z" transform="translate(-124.554 -16.127)" fill="#d6d8c9" opacity="0.5" style="mix-blend-mode: screen;isolation: isolate"/>
	<path id="Path_466" data-name="Path 466" d="M199.775,25.736a225.124,225.124,0,0,0-22.448,7.8h0q3.513,1.236,6.847,2.636c2.257-1.3,9.281-5.008,21.636-8.857Q202.861,26.484,199.775,25.736Z" transform="translate(-124.554 -16.127)" fill="#d9ddcf"/>
	<path id="Path_467" data-name="Path 467" d="M177.891,21.906q-3.666-.395-7.452-.632c-12.916,2.726-21.8,5.5-23,5.885q3.735.288,7.348.808A202.987,202.987,0,0,1,177.891,21.906Z" transform="translate(-124.554 -16.127)" fill="#d6d8c9" opacity="0.7" style="mix-blend-mode: screen;isolation: isolate"/>
	<path id="Path_468" data-name="Path 468" d="M177.891,21.906q-3.666-.395-7.452-.632c-12.916,2.726-21.8,5.5-23,5.885q3.735.288,7.348.808A202.987,202.987,0,0,1,177.891,21.906Z" transform="translate(-124.554 -16.127)" fill="#e3e4d9"/>
	<path id="Path_469" data-name="Path 469" d="M301,21.274c-2.054-.408-4.066-.812-6.273-1.255a188.681,188.681,0,0,1,24.377.292q3.012.615,5.781,1.256A161.774,161.774,0,0,0,301,21.274Z" transform="translate(-124.554 -16.127)" fill="#eaebe3"/>
	<path id="Path_470" data-name="Path 470" d="M293.548,21.906q3.666-.395,7.452-.632c12.916,2.726,21.8,5.5,23,5.885q-3.735.288-7.348.808A202.986,202.986,0,0,0,293.548,21.906Z" transform="translate(-124.554 -16.127)" fill="#e3e4d9"/>
	<path id="Path_471" data-name="Path 471" d="M195.131,18.905c-3.722.529-7.245,1.1-10.539,1.7,2.013.193,3.985.423,5.934.674,5.447.7,10.648,1.606,15.577,2.677,6.544-1.748,13.851-3.417,21.536-4.685-6.05-.787-12.574-1.44-19.614-1.9l-.023,0,.027,0C203.5,17.807,199.2,18.329,195.131,18.905Z" transform="translate(-124.554 -16.127)" fill="#d5c2b2"/>
	<path id="Path_472" data-name="Path 472" d="M265.337,23.959c4.934-1.073,10.143-1.982,15.6-2.68,1.942-.249,3.908-.479,5.913-.671-3.294-.6-6.819-1.174-10.542-1.7-4.066-.577-8.369-1.1-12.894-1.528l.026,0-.023,0c-7.04.461-13.563,1.114-19.613,1.9C251.485,20.542,258.792,22.211,265.337,23.959Z" transform="translate(-124.554 -16.127)" fill="#d5c2b2"/>
	<path id="Path_473" data-name="Path 473" d="M265.624,27.315l.007,0c-3.687,1.035-7.209,2.161-10.571,3.337q-3.292,1.152-6.365,2.364c-2.335.919-4.584,1.854-6.718,2.8A137.424,137.424,0,0,1,264.472,48.32a141.662,141.662,0,0,1,22.793-12.15c-2.257-1.3-9.281-5.008-21.636-8.857Z" transform="translate(-124.554 -16.127)" fill="#ac896d"/>
	<path id="Path_474" data-name="Path 474" d="M216.541,30.711c-3.411-1.2-6.986-2.342-10.733-3.394l.007,0-.005,0c-12.355,3.849-19.379,7.561-21.636,8.857a141.673,141.673,0,0,1,22.794,12.15,137.329,137.329,0,0,1,22.495-12.506c-2.158-.953-4.432-1.9-6.794-2.826Q219.706,31.826,216.541,30.711Z" transform="translate(-124.554 -16.127)" fill="#ac896d"/>
	<path id="Path_475" data-name="Path 475" d="M146.554,21.567a211.372,211.372,0,0,0-22,6.2,110.983,110.983,0,0,1,22.883-.6c1.2-.382,10.086-3.159,23-5.885A161.777,161.777,0,0,0,146.554,21.567Z" transform="translate(-124.554 -16.127)" fill="#d5c2b2"/>
	<path id="Path_476" data-name="Path 476" d="M235.72,18.12a149.521,149.521,0,0,1,22.95-1.148h0c-7.2-.557-14.879-.882-22.95-.842-8.071-.04-15.752.285-22.951.842h0A150.87,150.87,0,0,1,235.72,18.12Z" transform="translate(-124.554 -16.127)" fill="#ebe4de"/>
	<path id="Path_477" data-name="Path 477" d="M212.318,25.421a177.758,177.758,0,0,1,18.567,5.816c.307.1.614.225.913.338q2.01.759,3.915,1.526v.008h.014V33.1q1.9-.771,3.914-1.526c.3-.113.606-.233.913-.338a177.779,177.779,0,0,1,18.568-5.816,227.725,227.725,0,0,0-23.4-4.98A227.667,227.667,0,0,0,212.318,25.421Z" transform="translate(-124.554 -16.127)" fill="#c0a590"/>
	<path id="Path_478" data-name="Path 478" d="M176.656,20.019c6.408-1.162,13.387-2.323,20.875-3.166-6.509-.227-13.4-.29-20.673-.152l-.054,0a215.611,215.611,0,0,0-24.525,3.608A195.7,195.7,0,0,1,176.656,20.019Z" transform="translate(-124.554 -16.127)" fill="#ebe4de"/>
	<path id="Path_479" data-name="Path 479" d="M199.775,25.736a168.884,168.884,0,0,0-21.884-3.83,202.987,202.987,0,0,0-23.106,6.061,118.534,118.534,0,0,1,22.542,5.567h0A225.124,225.124,0,0,1,199.775,25.736Z" transform="translate(-124.554 -16.127)" fill="#c0a590"/>
	<path id="Path_480" data-name="Path 480" d="M240.51,56.33a29.7,29.7,0,0,0-4.636,3.3,30.175,30.175,0,0,0-4.636-3.3,7.713,7.713,0,0,0-5.8-.641s2.727-.231,6.347,2.175a35.205,35.205,0,0,1,3.275,2.507c-.54.5-1.088,1.037-1.636,1.619l-.05-.051a.079.079,0,0,0-.113,0h0a.09.09,0,0,0-.021.072.3.3,0,0,1-.08-.114.346.346,0,0,0-.106-.388.328.328,0,0,0-.464-.007l-.008.007a.334.334,0,0,0,.047.469l0,0a.365.365,0,0,0,.325.089.264.264,0,0,1,.025.232,1.522,1.522,0,0,1-1.264.6A1.342,1.342,0,0,1,230.7,62.4a.535.535,0,0,0-.754-.064.644.644,0,0,0-.064.064c-.611.872.624,1.685,1.5,1.685a3.374,3.374,0,0,0,2.271-.927c.093-.105.16-.147.24-.109s.076.1.093.168a.35.35,0,0,0,.126.316.321.321,0,0,0,.48-.425.353.353,0,0,0-.058-.051.363.363,0,0,0-.266-.1h-.038a.081.081,0,0,0,.038,0,.075.075,0,0,0,.007-.107l-.007-.007-.122-.118h0c.219-.219.843-.843,1.728-1.614.872.78,1.5,1.4,1.724,1.614l-.122.118a.083.083,0,0,0,0,.114.115.115,0,0,0,.037,0h-.033a.354.354,0,0,0-.266.1.333.333,0,0,0-.061.467l.011.013a.341.341,0,0,0,.476,0,.38.38,0,0,0,.126-.316.2.2,0,0,1,.089-.168c.046-.021.147,0,.236.109a3.392,3.392,0,0,0,2.28.927c.872,0,2.107-.813,1.5-1.685a.535.535,0,0,0-.754-.064.644.644,0,0,0-.064.064,1.35,1.35,0,0,1-1.015.505,1.53,1.53,0,0,1-1.264-.6.287.287,0,0,1,.029-.232.357.357,0,0,0,.32-.088.341.341,0,0,0,.055-.472.333.333,0,0,0-.471-.006l-.005.006a.352.352,0,0,0-.1.387.3.3,0,0,1-.081.114.077.077,0,0,0-.021-.072.08.08,0,0,0-.113,0h0l-.051.051q-.843-.873-1.631-1.618a36.006,36.006,0,0,1,3.258-2.5c3.624-2.407,6.351-2.175,6.351-2.175A7.733,7.733,0,0,0,240.51,56.33Z" transform="translate(-124.554 -16.127)" fill="#fff" fill-rule="evenodd"/>
	<path id="Path_481" data-name="Path 481" d="M241.374,46.806a2.581,2.581,0,0,0-1.124-1.292l-.03-.015c-.644-.327-2.314.044-3.175.393a11.6,11.6,0,0,1,1.781-1.4,4.268,4.268,0,0,1,1.356-.425.251.251,0,0,0,.13-.452,3.344,3.344,0,0,0-2.459-.628c-.577.151-1.477,1.393-1.832,2.117a3.057,3.057,0,0,0-1.076-1.969,4.207,4.207,0,0,0-3.284-.143.251.251,0,0,0,.039.482,4.127,4.127,0,0,1,2.984,2.371,4.316,4.316,0,0,0-3.4-.591,3.2,3.2,0,0,0-1.359,1.2,5.224,5.224,0,0,0-.744,2.185.25.25,0,0,0,.132.253l.015.008a.252.252,0,0,0,.292-.065c1.437-1.665,3.088-2.35,4.642-1.962a5.249,5.249,0,0,0-2.733,2,4.994,4.994,0,0,0,.7,4.8.255.255,0,0,0,.093.086.252.252,0,0,0,.365-.182c.019-.119.038-.236.057-.353.326-2.055.813-3.927,2.274-5.149l.3,8.56h1.028l.3-8.516h.015c1.351,1.209,1.758,2.713,2.04,5.367a.251.251,0,0,0,.455.118c1.085-1.546,1.441-3.007,1-4.115a5.615,5.615,0,0,0-2.766-2.316,3.749,3.749,0,0,1,3.972,2.3.25.25,0,0,0,.477-.109A6.485,6.485,0,0,0,241.374,46.806Z" transform="translate(-124.554 -16.127)" fill="#fff" fill-rule="evenodd"/>
	<path id="Path_482" data-name="Path 482" d="M235.727,33.109l-6.264,2.705,6.229,2.781,6.286-2.781Z" transform="translate(-124.554 -16.127)" fill="#fff"/>
	<path id="Path_483" data-name="Path 483" d="M206.1,23.959l-6.328,1.777,6.04,1.579,6.5-1.893Z" transform="translate(-124.554 -16.127)" fill="#fff"/>
	<path id="Path_484" data-name="Path 484" d="M170.439,21.274l7.452.632,6.7-1.3-7.937-.589Z" transform="translate(-124.554 -16.127)" fill="#fff"/>
	<path id="Path_485" data-name="Path 485" d="M235.72,18.12l8.081,1.154-8.081,1.168-8.081-1.168Z" transform="translate(-124.554 -16.127)" fill="#fff"/>
	<path id="Path_486" data-name="Path 486" d="M286.847,20.608l7.88-.589L301,21.274l-7.452.632Z" transform="translate(-124.554 -16.127)" fill="#fff"/>
	<path id="Path_487" data-name="Path 487" d="M265.337,23.959l-6.215,1.463,6.508,1.892,6.035-1.577Z" transform="translate(-124.554 -16.127)" fill="#fff"/>
</svg>
